<svg xmlns="http://www.w3.org/2000/svg" version="1.1" fill="none" stroke="black" stroke-width="0.5"><path d="M 251.0,14.0 249.95009309527077,15.049906904729223 248.85884195695175,16.0 247.3740493730545,16.0 245.8892567891573,16.0 244.57889260110008,16.421107398899927 243.52898569637085,17.471014303629154 242.2633061622118,18.0 240.77851357831457,18.0 239.5005853257428,18.49941467425718 238.22314197289322,19.0 237.1078782974709,19.89212170252908 235.76507817392823,20.23492182607176 234.71517126919903,21.28482873080098 233.6652643644698,21.665264364469795 232.45603330289947,21.0 232.0,22.028759280997747 232.0,23.51355186489497 232.0,24.9983444487922 230.9512637467564,26.04873625324359 229.86049750815954,27.0 228.5585567184845,26.558556718484517 228.49135018624472,25.50864981375529 229.54125709097394,24.458742909026068 230.0,23.16396785968993 229.06603588075419,23.93396411924583 227.72323575721148,24.276764242788506 226.67332885248226,25.326671147517732 225.62342194775306,26.376578052246956 224.3968591896962,27.0 223.23071491948116,27.769285080518856 222.18080801475193,28.81919198524808 220.83800789120923,29.16199210879076 219.78810098648003,30.211899013519982 218.7381940817508,31.261805918249202 218.0,32.440828501821706 217.34548705347888,33.65451294652111 216.00379989275694,34.0 214.65988680639353,34.34011319360646 213.6099799016643,34.60997990166432 212.5600729969351,33.5600729969351 212.0,32.30727024428734 212.0,30.822477660390113 211.53167262630706,29.531672626307067 211.0,28.267106054968753 211.1539276207783,29.153927620778287 212.0,30.28826555045261 212.0,31.773058134349835 212.0,33.257850718247056 212.0,34.74264330214428 212.0,36.2274358860415 211.4963784191522,37.5036215808478 210.44647151442297,38.55352848557702 209.39656460969377,39.603435390306245 209.0,40.92396553451113 208.00385758142184,41.996142418578145 207.0,42.47933713993249 206.3182573343365,43.681742665663506 205.26835042960727,44.731649570392726 204.21844352487804,45.78155647512195 203.1685366201488,46.83146337985118 202.82573649660614,48.17426350339385 202.0,49.317024831450375 201.43302946833424,50.56697053166575 200.383122563605,51.61687743639498 200.0,52.94297545839586 198.99041553533314,53.990415535333135 197.94050863060392,52.9405086306039 197.0,51.845287477031775 197.0,50.360494893134536 196.2050014787893,49.20500147878932 196.0,47.80512328771319 195.51940123170397,46.519401231703974 195.0,45.24975168229181 195.0,44.23504090160541 195.0,45.71983348550264 195.1446924812802,47.1446924812802 196.0,48.27520509092399 196.0,49.75999767482122 196.17309285190822,51.173092851908216 197.0,52.31536928024257 197.0,53.8001618641398 197.0,55.28495444803702 197.0,56.76974703193425 197.0,58.25453961583146 196.47721318802226,59.522786811977724 196.0,60.809911221252825 195.0845061597504,61.91549384024962 194.74170603620772,63.25829396379229 194.3082008685215,64.30820086852152 194.64189222674926,65.35810777325074 193.42298010875345,66.0 193.75081480152264,66.75081480152264 193.9063850749347,68.0936149250653 192.79702948180798,69.0 192.0,69.68776310208924 192.0,71.17255568598647 192.0,72.6573482698837 191.19238445722132,73.80761554277866 190.84958433367865,75.15041566632135 190.0,76.28329889682915 189.45687730540678,77.54312269459324 188.40697040067755,78.59302959932246 188.0,79.90924952377463 187.72137015359218,81.27862984640781 187.0,82.464621129196 186.3286631253203,83.67133687467971 185.98586300177763,85.01413699822238 185.0,86.09057175614147 184.59315597350573,87.40684402649427 184.0,88.64594336156281 183.90755572642038,90.09244427357963 183.0,91.20131496698417 183.0,92.68610755088142 182.17204857460578,93.8279514253942 182.0,95.24147915630276 181.48644832752043,96.51355167247957 180.4365414227912,96.43654142279121 180.0,95.13257021675174 179.75094117570586,93.75094117570586 179.0,92.57719861133039 179.0,91.09240602743316 179.0,89.60761344353594 179.0,88.12282085963871 179.0,86.63802827574148 179.0,85.15323569184423 179.0,83.66844310794704 179.0,82.18365052404981 179.92004637380515,81.07995362619485 180.0,79.62827891862845 180.0,78.14348633473122 180.94844674443314,77.05155325556686 181.99835364916237,76.00164635083763 183.0,74.93174927015886 183.0,73.44695668626164 183.73386080097694,72.26613919902304 184.0,70.89158508084031 184.0,69.40679249694308 184.0,67.92199991304584 184.0,66.4372073291486 183.25924536249622,65.25924536249622 182.91644523895354,63.916445238953536 182.0,62.81125670220315 181.52373821068167,62.476261789318336 180.47383130595244,63.52616869404757 179.42392440122322,64.5760755987768 178.374017496494,65.62598250350602 177.3241105917648,66.67588940823522 176.9813104682221,68.0186895317779 175.93140356349286,69.06859643650712 174.88149665876364,69.88149665876365 174.0,68.76183194611289 173.48878963049174,67.48878963049174 173.0,66.20646034069158 172.80318938340642,64.80318938340642 172.0,63.651088735270214 172.0,62.16629615137299 171.06768223159185,61.06768223159184 171.0,59.61092454595167 170.38208198450653,58.38208198450651 170.0,57.05555294053031 169.69648173742115,55.69648173742116 169.0,54.500181335108955 168.30377470914928,53.30377470914929 167.9609745856066,51.96097458560661 167.0,50.8742307081635 166.5682675573347,49.56826755733471 166.0,48.318859102742145 165.17556052906284,47.17556052906283 164.83276040552016,45.832760405520155 164.0,44.69290847579669 163.44005337724826,43.44005337724825 163.0,42.13753687037533 162.04734634897633,41.04734634897635 161.7045462254337,39.704546225433695 160.65463932070446,38.65463932070447 160.0,37.44100722190574 159.26193229243256,36.26193229243256 158.21202538770333,35.212025387703335 157.8692252641607,33.86922526416069 156.81931835943146,32.81931835943146 156.0,31.673898551912018 155.42661133115956,30.42661133115956 154.37670442643034,29.37670442643033 154.0,28.047947924966525 152.98399739815846,26.983997398158454 151.93409049342924,25.934090493429228 150.8841835887,24.8841835887 149.76563183887004,24.0 148.2808392549728,24.0 147.14867643688544,24.85132356311455 145.80587631334276,25.19412368665723 144.65488862802735,26.0 143.41316928507086,26.586830714929132 142.36326238034164,27.63673761965836 141.31335547561244,28.686644524387557 140.2634485708832,29.736551429116787 140.786458333846,29.213541666153986 141.83636523857524,28.16363476142476 142.88627214330447,27.113727856695533 144.2290722668471,27.229072266847115 145.0,28.394536128062875 145.621779295119,29.62177929511902 145.32831380015176,30.671686199848246 145.72159310457747,31.721593104577476 146.0,33.0910657765325 146.0,34.575858360429685 145.25000652479451,35.74999347520548 145.0,37.13122996585104 145.0,38.616022549748266 144.2216061541665,39.778393845833506 143.87880603062385,41.12119396937615 142.82889912589462,42.171100874105385 141.7789922211654,43.22100777883461 140.72908531643617,44.27091468356384 139.54628975873388,45.0 138.33637828816427,45.66362171183574 137.28647138343507,46.713528616564936 137.76343552129416,47.76343552129417 139.10623564483686,48.10623564483684 140.15614254956608,49.15614254956607 141.2060494542953,50.206049454295304 142.2559563590245,51.2559563590245 143.30586326375374,52.305863263753736 144.35577016848296,53.35577016848296 145.4056770732122,54.405677073212196 146.45558397794142,55.45558397794142 147.5054908826706,56.50549088267063 148.55539778739984,57.555397787399855 149.6053046921291,58.60530469212908 150.65521159685832,59.655211596858315 151.0,60.997188148025295 152.0479186251302,62.047918625130194 153.09782552985942,63.09782552985942 154.0,64.20892521259766 154.49053255813132,65.49053255813132 155.0,66.76429681801902 155.88323958640322,67.88323958640322 156.93314649113242,68.93314649113242 157.2759466146751,70.2759466146751 158.32585351940432,71.32585351940433 159.0,72.53140548801274 159.71856054767625,73.71856054767623 160.0613606712189,75.06136067121888 161.0,76.15735611495819 161.4540676994908,77.45406769949079 162.0,78.71272772037955 162.8467747277627,79.84677472776269 163.18957485130537,81.18957485130537 164.0,82.338678347325 164.5822818795773,83.5822818795773 165.0,84.89404995274644 165.9749889078492,85.97498890784921 166.31778903139195,87.31778903139195 167.0,88.52000057969202 167.00338927847733,90.00338927847733 168.0,91.07537218511342 168.39609630674923,92.39609630674924 169.0,93.6307437905349 169.7888033350212,94.78880333502121 170.0,96.1861153959563 170.4744035821066,97.47440358210659 171.0,98.74148700137765 171.86711061037855,99.86711061037856 172.0,101.29685860679906 172.55271085746392,102.55271085746394 173.0,103.85223021222048 173.0,105.33702279611768 172.418888771908,106.581111228092 171.10760559846088,107.0 170.02618174363604,106.02618174363603 168.55223399303947,106.0 167.06744140914228,106.0 165.582648825245,106.0 164.0978562413478,106.0 162.72639468829576,105.72639468829574 161.5424846359264,105.0 160.0576920520291,105.0 158.69799431766768,104.69799431766768 157.50232044660777,104.0 156.0175278627105,104.0 154.66959394703963,103.66959394703962 153.46215625728908,103.0 151.98399369995425,102.98399369995425 150.90678465186775,102.0 149.42199206797048,102.0 147.9371994840733,102.0 146.6127932057835,101.6127932057835 145.3818278786519,101.0 143.89703529475472,101.0 142.41224271085744,101.0 140.92745012696025,101.0 139.44265754306298,101.0 137.9578649591658,101.0 136.6274059033579,100.6274059033579 135.40249335374438,100.0 133.91770076984716,100.0 132.59900553272976,100.40099446727022 131.36232916442574,101.0 129.87753658052856,101.0 128.3927439966313,101.0 126.9079514127341,101.0 125.42315882883685,101.0 123.93836624493966,101.0 122.45357366104238,101.0 120.97792488794802,101.02207511205198 119.89820205562106,102.0 118.41340947172378,102.0 116.92861688782659,102.0 115.4438243039293,102.0 114.2639242702346,102.7360757297654 112.88845269850799,103.0 111.40366011461072,103.0 109.94263068079313,103.05736931920687 108.84828850918932,104.0 107.36349592529214,104.0 105.87870334139495,104.0 104.57143018662238,104.42856981337762 103.32333173597355,105.0 101.83853915207627,105.0 100.54302981599433,105.45697018400567 99.28316754665494,106.0 97.85742956890896,106.14257043109104 96.72779594123354,107.0 95.24300335733626,107.0 94.12192241709435,107.87807758290565 92.68763175191495,108.0 91.43632217000898,108.56367782999102 90.13226014649351,109.0 89.043615141737,109.956384858263 87.70081501819432,110.29918498180568 86.50630951954791,111.0 85.30810798992235,111.69189201007765 83.96530786637966,112.03469213362034 82.88035889260223,113.0 81.57260083810768,113.42739916189232 80.32498728718085,114.0 79.17989380983573,114.82010619016427 78.12998690510653,115.87001309489347 76.78718678156379,116.21281321843621 75.73727987683459,117.26272012316541 74.68737297210532,118.31262702789468 73.48729959566283,119.0 72.29466594383344,119.70533405616656 71.24475903910418,120.75524096089582 70.19485213437498,121.80514786562502 69.14494522964571,122.85505477035429 68.09503832491652,123.90496167508348 67.04513142018732,124.95486857981268 65.99522451545806,126.00477548454194 64.94531761072886,127.05468238927114 63.895410705999595,128.1045892940004 62.8455038012704,129.1544961987296 61.7955968965412,130.20440310345882 60.745689991811936,131.25431000818807 60.0,132.43022768415088 59.35298296353999,133.64701703646 58.30307605881079,134.69692394118923 57.25316915408158,135.74683084591842 56.910369030538845,137.08963096946115 55.86046212580965,138.13953787419035 55.0,139.2679153756689 54.4677550975377,140.5322449024623 54.0,141.8232869810903 53.07504806926575,142.92495193073424 52.02514116453655,143.97485883546344 52.0,145.44923760803582 51.339540917451174,146.6604590825488 50.99674079390843,148.00325920609157 50.0,149.0751882349814 49.604033765636515,150.39596623436347 49.0,151.63055984040287 48.211326737364544,152.78867326263546 48.0,154.18593144582428 47.52572649027917,155.47427350972083 47.0,156.7413030512456 46.840126243193794,158.1598737568062 46.0,159.296674656667 46.0,160.78146724056427 45.10461909137919,161.8953809086208 45.0,163.3368388459856 44.41901884429382,164.58098115570618 44.0,165.89221045140698 44.0,167.37700303530428 43.39061847366576,168.60938152633423 43.0,169.9323746407256 43.0,171.41716722462286 43.0,172.90195980852005 42.01941797949501,173.98058202050498 42.0,175.45733141394146 42.0,176.94212399783865 42.0,178.4269165817359 42.0,179.91170916563308 41.01252414296818,180.98747585703182 41.0,182.4670807710545 41.0,183.9518733549517 41.0,185.43666593884896 41.0,186.92145852274615 41.0,188.40625110664342 41.0,189.89104369054064 41.0,191.37583627443783 41.0,192.8606288583351 41.0,194.3454214422323 41.0,195.83021402612957 41.0,197.31500661002676 41.0,198.79979919392403 41.0,200.28459177782122 41.0,201.76938436171844 41.0,203.2541769456157 41.0,204.7389695295129 41.0,206.22376211341017 41.0,207.70855469730736 41.8438239548503,208.8438239548503 42.0,210.26392630272878 42.0,211.74871888662597 42.0,213.23351147052324 42.0,214.71830405442043 42.14361101019059,216.1436110101906 43.0,217.27367565984184 43.0,218.75846824373903 43.0,220.2432608276363 43.0,221.72805341153352 43.85761162790402,222.85761162790402 44.0,224.2834250169549 44.0,225.7682176008521 44.178905217345545,227.17890521734554 45.0,228.3235892062735 45.0,229.8083817901707 45.2073055879736,231.2073055879736 46.0,232.3637533955921 46.0,233.84854597948942 46.23570595860166,235.23570595860167 47.0,236.40391758491083 47.0,237.88871016880805 47.26410632922972,239.26410632922972 48.0,240.44408177422946 48.0,241.92887435812662 48.999613481044385,242.99961348104438 49.0,244.48424596354803 49.685213728129696,245.6852137281297 50.0,247.03961756896945 50.0,248.52441015286666 50.713614098757816,249.7136140987578 51.0,251.07978175828805 51.399214345843134,252.39921434584312 52.0,253.6351533637095 52.791921374115105,254.7919213741151 53.0,256.1905249691309 53.47752162120048,257.4775216212005 54.0,258.7458965745522 54.16312186828585,260.1631218682858 55.0,261.30126817997365 55.55582889655783,262.55582889655784 56.0,263.8566397853951 56.94853592482974,264.94853592482974 57.0,266.4120113908165 57.63413617191512,267.6341361719151 58.0,268.9673829962379 59.0,270.0379620177621 59.369643323729775,271.3696433237298 60.0,272.5933336231835 60.76235035200175,273.76235035200176 61.10515047554449,275.1051504755445 62.0,276.21928425012914 62.49785750381641,277.4978575038164 63.0,278.77465585555063 63.89056453208838,279.8905645320884 64.23336465563114,281.23336465563114 65.0,282.4006064824962 65.6260716839031,283.6260716839031 66.0,284.9559780879177 67.0,286.0265571094418 67.36157883571776,287.36157883571775 68.0,288.5819287148633 68.75428586398972,289.7542858639897 69.80419276871892,290.8041927687189 70.1469928922616,292.1469928922616 71.0,293.278458363333 71.53969992053356,294.53969992053356 72.0,295.83382996875446 72.93240694880552,296.9324069488055 73.98231385353472,297.9823138535347 74.32511397707745,299.3251139770774 75.37502088180665,300.3750208818066 76.0,301.6009386387483 76.7677279100786,302.7677279100786 77.11052803362129,304.1105280336213 78.16043493835055,305.16043493835053 79.0,306.29746828721795 79.55314196662248,307.5531419666225 80.60304887135167,308.6030488713517 81.0,309.92341891416345 81.9957558996236,310.9957558996236 83.0,312.0645769572117 83.38846292789555,313.38846292789555 84.43836983262476,314.43836983262474 85.48827673735403,315.488276737354 86.0,316.76110660568145 86.8809837656259,317.8809837656259 87.93089067035515,318.93089067035515 88.2736907938979,320.2736907938979 89.3235976986271,321.3235976986271 90.3735046033563,322.3735046033563 91.4234115080855,323.4234115080855 92.0,324.66937331872344 92.81611853635748,325.81611853635746 93.86602544108666,326.86602544108666 94.91593234581586,327.91593234581586 95.96583925054505,328.96583925054506 97.0,330.02226842634406 97.35854627881703,331.358546278817 98.40845318354623,332.4084531835462 99.45836008827543,333.4583600882754 100.50826699300463,334.5082669930046 101.55817389773382,335.5581738977338 102.60808080246315,336.6080808024631 103.65798770719235,337.6579877071923 104.70789461192155,338.7078946119215 106.05069473546422,339.0506947354642 107.10060164019345,340.1006016401935 108.21285122548285,341.0 109.49330866846545,341.49330866846543 110.76822283090415,342.0 111.88601569673729,342.8860156967373 113.22881582027995,343.22881582028 114.39417345784967,344.0 115.87896604174692,344.0 116.96432297209456,344.9643229720946 118.43433764716816,345.0 119.91913023106534,345.0 121.28561656153607,345.2856165615361 122.47450183648675,346.0 123.95929442038394,346.0 125.44408700428113,346.0 126.92887958817833,346.0 128.41367217207568,346.0 129.8984647559729,346.0 131.38325733987008,346.0 132.6138039875043,345.3861960124957 133.93862894529133,345.0 135.42342152918872,345.0 136.9082141130859,345.0 138.3930066969831,345.0 139.6206978240311,344.37930217596886 140.94837830240436,344.0 142.4331708863017,344.0 143.91796347019888,344.0 144.99189831820178,343.0081016817982 146.47333507562018,343.0 147.67749856528724,342.32250143471276 149.0287066810416,342.0 150.51349926493876,342.0 151.70589893591512,341.2941010640849 153.0486990594578,340.95130094054224 154.13944989188423,340.0 155.62424247578147,340.0 156.7842062112724,339.2157937887276 158.17961408120277,339.0 159.46980645835774,338.5301935416423 160.73498568662424,338.0 162.1554067054432,337.84459329455683 163.29035729204554,337.0 164.7751498759428,337.0 165.8909138572577,336.1090861427423 167.3305214813642,336.0 168.81531406526142,336.0 170.3001066491586,336.0 171.55500757024186,335.44499242975814 172.85547825457985,335.0 174.3402708384772,335.0 175.8250634223744,335.0 177.3098560062716,335.0 178.7946485901688,335.0 180.279441174066,335.0 181.76423375796335,335.0 183.24902634186054,335.0 184.73381892575773,335.0 186.21861150965492,335.0 187.49738180446508,335.4973818044651 188.77398311507633,336.0 190.25877569897355,336.0 191.74356828287074,336.0 193.16147551744925,336.1614755174492 194.29893988829198,337.0 195.7837324721894,337.0 196.89698266926385,337.8969826692639 198.3391040776107,338.0 199.5825829163492,338.58258291634917 200.894475683032,339.0 202.26818316343463,339.2681831634346 203.44984728845347,340.0 204.93463987235071,340.0 206.00521889387477,341.0 207.34649043879182,341.3464904387918 208.56059049929618,342.0 210.04538308319337,342.0 211.3748908094198,342.3748908094198 212.60075468861461,343.0 214.06049105650513,343.06049105650516 215.15612629403606,344.0 216.64091887793325,344.0 218.12571146183043,344.0 219.4316915506758,344.4316915506758 220.68108306725168,345.0 222.16587565114904,345.0 223.65066823504625,345.0 225.13546081894344,345.0 226.43858538720264,345.43858538720264 227.69083242436486,346.0 229.17562500826205,346.0 230.66041759215926,346.0 232.14521017605645,346.0 233.63000275995364,346.0 235.114795343851,346.0 236.5995879277482,346.0 237.76677281317097,345.233227186829 239.15495953316943,345.0 240.63975211706662,345.0 242.08806640261247,344.91193359738753 243.19512372248803,344.0 244.67991630638528,344.0 245.82357355442696,343.17642644557304 247.16637367796963,342.83362632203034 248.3058669333308,342.0 249.5590807062416,341.4409192937584 250.8612385387521,341.0 251.9517877345135,340.04821226548654 253.00239658180035,339.0 254.3444947627855,338.6555052372145 255.3944016675147,337.60559833248533 256.44430857224387,336.55569142775613 257.49421547697307,335.50578452302693 258.54412238170227,334.45587761829773 259.5940292864316,333.4059707135684 260.6439361911608,332.3560638088392 261.69384309589,331.30615690411 262.7437500006192,330.2562499993808 263.0865501241619,328.9134498758381 264.1364570288912,327.8635429711088 265.1863639336203,326.8136360663797 266.2362708383495,325.7637291616505 267.2861777430787,324.7138222569213 268.0,323.5247045329646 268.67888477135074,322.32111522864926 269.72879167607994,321.27120832392006 270.77869858080913,320.22130141919087 271.12149870435184,318.87850129564816 272.17140560908103,317.82859439091897 273.0,316.68701684144645 273.5641126373531,315.4358873626469 274.6140195420823,314.3859804579177 275.6639264468115,313.3360735531885 276.0067265703542,311.9932734296458 277.0566334750835,310.9433665249165 278.0,309.84932914992845 278.4493405033554,308.5506594966446 279.49924740808467,307.50075259191533 280.0,306.2233785229829 280.8919544363567,305.1080455636433 281.94186134108594,304.05813865891406 282.28466146462864,302.71533853537136 283.33456836935784,301.66543163064216 284.0,300.45626985298895 284.72727539762985,299.27272460237015 285.0700755211725,297.9299244788275 286.11998242590175,296.88001757409825 287.0,295.7597402045192 287.5126894541736,294.4873105458264 288.0,293.20436859909773 288.9053964824456,292.0946035175544 289.95530338717487,291.04469661282513 290.2981035107175,289.7018964892825 291.0,288.5078389506282 291.69081053898947,287.30918946101053 292.03361066253217,285.96638933746783 293.08351756726137,284.91648243273863 294.0,283.8113093021584 294.4762245955334,282.5237754044666 295.0,281.25593769673696 295.8689316238052,280.1310683761948 296.21173174734787,278.78826825265213 297.0,277.6299870697916 297.6044387756198,276.3955612243802 298.0,275.07461546437014 298.99714580389167,274.00285419610833 299.0,272.51924385894887 299.682746050977,271.317253949023 300.0255461745198,269.9744538254802 301.0,268.8932932320033 301.4182532027916,267.5817467972084 302.0,266.33792162658204 302.81096023106346,265.18903976893654 303.0,263.78255002116055 303.4965604781489,262.5034395218511 304.0,261.2271784157393 304.8892675064207,260.1107324935793 305.0,258.67180681031795 305.57486775350617,257.42513224649383 306.0,256.1164352048965 306.967574781778,255.032425218222 307.0,253.5610635994752 307.65317502886336,252.34682497113664 308.0,251.00569199405373 308.3387752759488,249.6612247240512 309.0,248.45032038863243 309.0243755230341,246.97562447696586 310.0,245.89494878321113 310.0,244.41015619931372 310.75988267484877,243.24011732515126 311.0,241.85478459389248 311.0,240.36999200999531 311.78828304547665,239.21171695452335 312.0,237.81462040457396 312.0,236.3298278206768 312.81668341610464,235.18331658389536 313.0,233.7744562152555 313.50228366319,232.49771633681004 314.0,231.21908460983408 314.0,229.7342920259369 314.0,228.2494994420397 314.8734841573606,227.12651584263935 315.0,225.6941278366185 315.0,224.20933525272116 315.9018845279886,223.09811547201136 316.0,221.65396364729992 316.0,220.16917106340273 316.0,218.68437847950554 316.5659782409728,217.4340217590272 317.0,216.1290068740841 317.0,214.6442142901869 317.0,213.1594217062897 317.0,211.67462912239247 317.0,210.18983653849511 317.9156722010423,209.0843277989577 318.0,207.63446493307387 318.0,206.14967234917668 318.0,204.66487976527932 318.0,203.18008718138213 318.0,201.69529459748492 318.0,200.21050201358773 318.0,198.72570942969054 318.0,197.24091684579318 318.0,195.756124261896 318.0,194.2713316779988 318.0,192.7865390941016 318.0,191.30174651020442 318.0,189.81695392630706 318.0,188.33216134240988 318.0,186.8473687585127 318.0,185.3625761746155 318.0,183.8777835907183 318.0,182.39299100682095 317.93508648232574,180.93508648232577 317.0,179.8376194013997 317.0,178.3528268175025 317.0,176.8680342336053 317.0,175.38324164970794 316.92819264579896,173.92819264579893 316.0,172.82787004428667 316.0,171.34307746038948 316.0,169.85828487649232 315.55699215162826,168.55699215162826 315.0,167.3029132710709 315.0,165.81812068717375 314.5285917810004,164.5285917810004 314.0,163.26274908175253 314.0,161.77795649785523 313.5001914103724,160.5001914103724 313.0,159.22258489243396 312.81459116328705,157.81459116328705 312.0,156.66721328701266 312.0,155.18242070311524 311.07908401147245,154.07908401147245 310.73628388792974,152.73628388792977 310.0,151.5564700761699 309.34357685965796,150.34357685965793 309.0,149.00109847074845 308.6579766125725,147.6579766125725 308.0,146.44572686532715 307.26526958430065,145.26526958430065 306.92246946075795,143.92246946075798 305.87256255602864,142.87256255602864 305.0,141.7491972168574 304.47985552775674,140.47985552775674 304.0,139.1938256114361 303.08714849948484,138.08714849948487 302.0372415947555,137.03724159475553 301.6944414712128,135.69444147121283 300.64453456648357,134.6445345664836 300.0,133.42671694144212 299.2518275382117,132.2518275382117 298.2019206334824,131.2019206334824 297.1520137287532,130.15201372875322 296.102106824024,129.10210682402402 295.0521999192948,128.05219991929482 294.7093997957521,126.70939979575215 293.6594928910228,125.65949289102282 292.6095859862936,124.60958598629361 291.3772921853518,124.0 290.2168789580217,123.21687895802172 289.1669720532925,122.16697205329251 288.1170651485632,121.11706514856319 287.067158243834,120.06715824383399 286.01725133910475,119.01725133910477 284.95381805620696,118.0 283.62454431083273,117.62454431083276 282.57463740610353,116.57463740610353 281.3278674292613,116.0 280.18193037783163,115.18193037783162 279.1320234731024,114.13202347310238 277.7892233495596,113.78922334955959 276.6313377807915,113.0 275.3965163212877,112.39651632128772 274.3466094165585,111.3466094165585 273.005387153846,111.0 271.9348081323218,110.0 270.4500155484246,110.0 269.2683021412012,109.26830214120119 267.9255020176585,108.92550201765853 266.8240649214792,108.0 265.3392723375818,108.0 264.1899948658439,107.1899948658439 262.7839007321605,107.0 261.50439461875857,106.50439461875857 260.2285291267392,106.0 258.8187943716731,105.81879437167312 257.67315752131776,105.0 256.1883649374206,105.0 254.79039400104523,104.79039400104524 253.63299333199936,104.0 252.148200748102,104.0 250.66340816420484,104.0 249.41919350687456,103.41919350687458 248.1080365587836,103.0 246.6232439748864,103.0 245.13845139098908,103.0 244.0479930127039,102.04799301270391 242.58307978556783,102.0 241.09828720167064,102.0 239.61349461777345,102.0 238.1287020338761,102.0 236.6439094499789,102.0 235.15911686608172,102.0 234.06260571027835,101.06260571027836 232.60374526066047,101.0 231.11895267676312,101.0 229.63416009286593,101.0 228.14936750896874,101.0 226.66457492507152,101.0 225.17978234117433,101.0 223.694989757277,101.0 222.21019717337978,101.0 220.7254045894826,101.0 219.4630315995978,101.53696840040219 218.17003298406135,102.0 216.68524040016396,102.0 215.20044781626677,102.0 213.71565523236956,102.0 212.23086264847234,102.0 211.1133376395283,102.88666236047169 209.67549104305095,103.0 208.19069845915377,103.0 206.79204405008682,103.20795594991318 205.63532685373252,104.0 204.15053426983516,104.0 202.66574168593797,104.0 201.18094910204078,104.0 200.07804343237348,104.92195656762652 198.6255774966195,105.0 197.14078491272215,105.0 195.65599232882494,105.0 194.17119974492775,105.0 193.07114959584663,105.92885040415335 191.6158281395065,106.0 190.13103555560917,106.0 188.64624297171198,106.0 187.1614503878148,106.0 185.6766578039176,106.0 184.42856241696376,106.57143758303624 183.12128619849616,107.0 182.03585538869174,106.03585538869176 181.0,104.9801281554479 181.0,103.4953355715507 181.0,102.0105429876535 181.0,100.52575040375612 181.0,99.04095781985893 182.0,97.97037879833486 182.0,96.48558621443763 182.70654559964964,95.29345440035036 183.0,93.93021460901616 183.39214584673508,92.60785415326491 184.0,91.37484300359486 184.78485287500692,90.21514712499308 185.1276529985496,88.87234700145041 186.0,87.74889237664934 186.52036002682155,86.47963997317846 187.0,85.19352077122804 187.91306705509342,84.08693294490656 188.96297395982265,83.03702604017734 190.43242985571763,83.0 191.6485742069081,83.64857420690811 192.9878014611389,84.0 194.4725940450361,84.0 195.95738662893328,84.0 197.02796565045747,85.0 198.51275823435466,85.0 199.99755081825188,85.0 201.48234340214907,85.0 202.96713598604626,85.0 204.45192856994362,85.0 205.9367211538408,85.0 207.421513737738,85.0 208.90630632163518,85.0 210.39109890553237,85.0 211.87589148942973,85.0 213.36068407332692,85.0 214.8454766572241,85.0 216.2335356200142,84.76646437998579 217.40084826264535,84.0 218.8856408465427,84.0 220.3704334304399,84.0 221.60473611418487,83.39526388581513 222.92580503586112,83.0 224.4105976197583,83.0 225.89539020365567,83.0 226.97593660835554,82.02406339164446 228.45076180907697,82.0 229.6615368554409,81.33846314455913 231.00613341449827,81.0 232.34713710252632,80.65286289747368 233.5615050199197,80.0 235.03273734961166,79.96726265038834 236.116876625341,79.0 237.42544437788362,78.57455562211639 238.67224823076248,78.0 240.11104462496894,77.88895537503105 241.16095152969817,76.83904847030182 242.298198857708,76.0 243.55365855797018,75.44634144202982 244.85357046312947,75.0 245.94636558624208,74.05363441375793 246.9962724909713,73.0037275090287 248.33907261451398,72.66092738548603 249.3889795192433,71.61102048075672 250.4388864239725,70.56111357602752 251.48879332870166,69.51120667129832 252.53870023343086,68.46129976656913 253.58860713816006,67.41139286183994 254.63851404288937,66.36148595711063 255.68842094761857,65.31157905238143 256.73832785234777,64.26167214765223 257.08112797589047,62.918872024109554 258.13103488061967,61.86896511938033 259.0,60.744109673159414 259.5237419088917,59.47625809110829 260.57364881362093,58.426351186379065 261.0,57.1181590462139 261.9663558418928,56.03364415810721 262.0,54.562787440792434 262.65195608897824,53.348043911021755 263.0,52.007415835371134 264.0,50.93683681384708 264.3874632407927,49.61253675920726 265.0,48.38146520842561 265.0730634878782,46.926936512121806 266.0,45.826093603004324 266.0,44.34130101910716 266.10146385850607,42.89853614149392 267.0,41.78592941368578 267.0,40.3011368297886 267.0,38.816344245891415 267.47266435267676,37.527335647323255 268.0,36.26097264047017 268.0,34.77618005657281 268.0,33.291387472675616 268.1367580656609,31.86324193433909 269.0,30.73601586725437 269.0,29.25122328335717 269.0,27.766430699459807 269.0,26.28163811556261 269.0,24.79684553166541 269.0,23.312052947768215 269.0,21.827260363871016 269.0,20.342467779973653 269.0,18.857675196076457 269.0,17.37288261217926 269.0,15.888090028282061 268.57806757657323,14.578067576573208 267.33271842286064,14.0 265.8479258389635,14.0 264.36313325506626,14.0 262.8783406711691,14.0 261.39354808727177,14.0 259.90875550337455,14.0 258.4239629194774,14.0 256.9391703355802,14.0 255.45437775168298,14.0 253.96958516778565,14.0 252.48479258388846,14.0 251.0,14.0 "/></svg>