<svg xmlns="http://www.w3.org/2000/svg" width="360" height="360" viewBox="0 0 360 360"><path d="M 251 14 L 249 16 L 245 16 L 243 18 L 240 18 L 239 19 L 238 19 L 237 20 L 236 20 L 234 22 L 233 21 L 232 21 L 232 25 L 230 27 L 229 27 L 228 26 L 230 24 L 230 23 L 229 24 L 228 24 L 225 27 L 224 27 L 222 29 L 221 29 L 218 32 L 218 33 L 217 34 L 215 34 L 214 35 L 212 33 L 212 30 L 211 29 L 211 28 L 211 29 L 212 30 L 212 37 L 209 40 L 209 41 L 208 42 L 207 42 L 207 43 L 203 47 L 203 48 L 202 49 L 202 50 L 200 52 L 200 53 L 199 54 L 197 52 L 197 50 L 196 49 L 196 47 L 195 46 L 195 44 L 195 47 L 196 48 L 196 51 L 197 52 L 197 59 L 196 60 L 196 61 L 195 62 L 195 63 L 194 64 L 195 65 L 194 66 L 193 66 L 194 67 L 194 68 L 193 69 L 192 69 L 192 73 L 191 74 L 191 75 L 190 76 L 190 77 L 188 79 L 188 81 L 187 82 L 187 83 L 186 84 L 186 85 L 185 86 L 185 87 L 184 88 L 184 90 L 183 91 L 183 93 L 182 94 L 182 96 L 181 97 L 180 96 L 180 94 L 179 93 L 179 82 L 180 81 L 180 78 L 183 75 L 183 73 L 184 72 L 184 66 L 183 65 L 183 64 L 182 63 L 182 62 L 177 67 L 177 68 L 175 70 L 174 69 L 174 68 L 173 67 L 173 65 L 172 64 L 172 62 L 171 61 L 171 59 L 170 58 L 170 56 L 169 55 L 169 54 L 168 53 L 168 52 L 167 51 L 167 50 L 166 49 L 166 48 L 165 47 L 165 46 L 164 45 L 164 44 L 163 43 L 163 42 L 162 41 L 162 40 L 160 38 L 160 37 L 158 35 L 158 34 L 156 32 L 156 31 L 154 29 L 154 28 L 150 24 L 148 24 L 147 25 L 146 25 L 145 26 L 144 26 L 140 30 L 143 27 L 144 27 L 145 28 L 145 29 L 146 30 L 145 31 L 146 32 L 146 35 L 145 36 L 145 39 L 144 40 L 144 41 L 140 45 L 139 45 L 137 47 L 138 48 L 139 48 L 151 60 L 151 61 L 154 64 L 154 65 L 155 66 L 155 67 L 157 69 L 157 70 L 159 72 L 159 73 L 160 74 L 160 75 L 161 76 L 161 77 L 162 78 L 162 79 L 163 80 L 163 81 L 164 82 L 164 83 L 165 84 L 165 85 L 166 86 L 166 87 L 167 88 L 167 90 L 168 91 L 168 92 L 169 93 L 169 94 L 170 95 L 170 97 L 171 98 L 171 99 L 172 100 L 172 102 L 173 103 L 173 106 L 172 107 L 171 107 L 170 106 L 163 106 L 162 105 L 159 105 L 158 104 L 155 104 L 154 103 L 152 103 L 151 102 L 147 102 L 146 101 L 137 101 L 136 100 L 133 100 L 132 101 L 121 101 L 120 102 L 115 102 L 114 103 L 110 103 L 109 104 L 105 104 L 104 105 L 101 105 L 100 106 L 98 106 L 97 107 L 95 107 L 94 108 L 92 108 L 91 109 L 90 109 L 89 110 L 88 110 L 87 111 L 86 111 L 85 112 L 84 112 L 83 113 L 82 113 L 81 114 L 80 114 L 78 116 L 77 116 L 74 119 L 73 119 L 60 132 L 60 133 L 57 136 L 57 137 L 55 139 L 55 140 L 54 141 L 54 142 L 52 144 L 52 146 L 51 147 L 51 148 L 50 149 L 50 150 L 49 151 L 49 152 L 48 153 L 48 155 L 47 156 L 47 158 L 46 159 L 46 161 L 45 162 L 45 164 L 44 165 L 44 168 L 43 169 L 43 173 L 42 174 L 42 180 L 41 181 L 41 208 L 42 209 L 42 216 L 43 217 L 43 222 L 44 223 L 44 227 L 45 228 L 45 231 L 46 232 L 46 235 L 47 236 L 47 239 L 48 240 L 48 242 L 49 243 L 49 245 L 50 246 L 50 249 L 51 250 L 51 252 L 52 253 L 52 254 L 53 255 L 53 257 L 54 258 L 54 260 L 55 261 L 55 262 L 56 263 L 56 264 L 57 265 L 57 267 L 58 268 L 58 269 L 59 270 L 59 271 L 60 272 L 60 273 L 61 274 L 61 275 L 62 276 L 62 277 L 63 278 L 63 279 L 64 280 L 64 281 L 65 282 L 65 283 L 66 284 L 66 285 L 67 286 L 67 287 L 68 288 L 68 289 L 70 291 L 70 292 L 71 293 L 71 294 L 72 295 L 72 296 L 74 298 L 74 299 L 76 301 L 76 302 L 77 303 L 77 304 L 79 306 L 79 307 L 81 309 L 81 310 L 83 312 L 83 313 L 86 316 L 86 317 L 88 319 L 88 320 L 92 324 L 92 325 L 97 330 L 97 331 L 105 339 L 106 339 L 108 341 L 109 341 L 110 342 L 111 342 L 112 343 L 113 343 L 114 344 L 116 344 L 117 345 L 121 345 L 122 346 L 132 346 L 133 345 L 139 345 L 140 344 L 144 344 L 145 343 L 147 343 L 148 342 L 151 342 L 152 341 L 153 341 L 154 340 L 156 340 L 157 339 L 159 339 L 160 338 L 162 338 L 163 337 L 165 337 L 166 336 L 171 336 L 172 335 L 187 335 L 188 336 L 193 336 L 194 337 L 196 337 L 197 338 L 199 338 L 200 339 L 202 339 L 203 340 L 205 340 L 206 341 L 207 341 L 208 342 L 211 342 L 212 343 L 214 343 L 215 344 L 219 344 L 220 345 L 226 345 L 227 346 L 237 346 L 238 345 L 242 345 L 243 344 L 245 344 L 246 343 L 247 343 L 248 342 L 249 342 L 250 341 L 251 341 L 253 339 L 254 339 L 263 330 L 263 329 L 268 324 L 268 323 L 271 320 L 271 319 L 273 317 L 273 316 L 276 313 L 276 312 L 278 310 L 278 309 L 280 307 L 280 306 L 282 304 L 282 303 L 284 301 L 284 300 L 285 299 L 285 298 L 287 296 L 287 295 L 288 294 L 288 293 L 290 291 L 290 290 L 291 289 L 291 288 L 292 287 L 292 286 L 294 284 L 294 283 L 295 282 L 295 281 L 296 280 L 296 279 L 297 278 L 297 277 L 298 276 L 298 275 L 299 274 L 299 272 L 300 271 L 300 270 L 301 269 L 301 268 L 302 267 L 302 266 L 303 265 L 303 263 L 304 262 L 304 261 L 305 260 L 305 258 L 306 257 L 306 256 L 307 255 L 307 253 L 308 252 L 308 250 L 309 249 L 309 247 L 310 246 L 310 244 L 311 243 L 311 240 L 312 239 L 312 236 L 313 235 L 313 233 L 314 232 L 314 228 L 315 227 L 315 224 L 316 223 L 316 218 L 317 217 L 317 210 L 318 209 L 318 181 L 317 180 L 317 174 L 316 173 L 316 169 L 315 168 L 315 165 L 314 164 L 314 161 L 313 160 L 313 158 L 312 157 L 312 155 L 311 154 L 311 153 L 310 152 L 310 151 L 309 150 L 309 148 L 308 147 L 308 146 L 307 145 L 307 144 L 305 142 L 305 141 L 304 140 L 304 139 L 302 137 L 302 136 L 300 134 L 300 133 L 295 128 L 295 127 L 292 124 L 291 124 L 285 118 L 284 118 L 282 116 L 281 116 L 279 114 L 278 114 L 277 113 L 276 113 L 274 111 L 273 111 L 272 110 L 270 110 L 269 109 L 268 109 L 267 108 L 265 108 L 264 107 L 262 107 L 261 106 L 259 106 L 258 105 L 255 105 L 254 104 L 250 104 L 249 103 L 245 103 L 244 102 L 235 102 L 234 101 L 220 101 L 219 102 L 212 102 L 211 103 L 207 103 L 206 104 L 201 104 L 200 105 L 194 105 L 193 106 L 185 106 L 184 107 L 183 107 L 181 105 L 181 99 L 182 98 L 182 96 L 183 95 L 183 93 L 184 92 L 184 91 L 185 90 L 185 89 L 186 88 L 186 87 L 187 86 L 187 85 L 189 83 L 191 83 L 192 84 L 196 84 L 197 85 L 216 85 L 217 84 L 221 84 L 222 83 L 226 83 L 227 82 L 229 82 L 230 81 L 232 81 L 233 80 L 235 80 L 236 79 L 237 79 L 238 78 L 240 78 L 242 76 L 243 76 L 244 75 L 245 75 L 247 73 L 248 73 L 257 64 L 257 63 L 259 61 L 259 60 L 261 58 L 261 57 L 262 56 L 262 54 L 263 53 L 263 52 L 264 51 L 264 50 L 265 49 L 265 47 L 266 46 L 266 43 L 267 42 L 267 38 L 268 37 L 268 32 L 269 31 L 269 15 L 268 14 Z" fill="black" stroke="none" /></svg>