<svg xmlns="http://www.w3.org/2000/svg" version="1.1" fill="none" stroke="black" stroke-width="0.5"><path d="M 0.0,20000.0 0.0,19769.820219283603 0.0,19539.640438567203 0.0,19309.460657850806 0.0,19079.28087713441 0.0,18849.10109641801 0.0,18618.921315701613 0.0,18388.741534985213 0.0,18158.561754268816 0.0,17928.38197355242 0.0,17698.20219283602 0.0,17468.022412119622 0.0,17237.842631403222 0.0,17007.662850686826 0.0,16777.48306997043 0.0,16547.30328925403 0.0,16317.123508537632 0.0,16086.943727821235 0.0,15856.763947104837 0.0,15626.58416638844 0.0,15396.404385672042 0.0,15166.224604955645 0.0,14936.044824239247 0.0,14705.86504352285 0.0,14475.685262806452 0.0,14245.505482090055 0.0,14015.325701373657 0.0,13785.14592065726 0.0,13554.966139940861 0.0,13324.786359224465 0.0,13094.606578508068 0.0,12864.42679779167 0.0,12634.247017075273 0.0,12404.067236358875 0.0,12173.887455642478 0.0,11943.70767492608 0.0,11713.527894209683 0.0,11483.348113493284 0.0,11253.168332776886 0.0,11022.98855206049 0.0,10792.808771344093 0.0,10562.628990627696 0.0,10332.449209911298 0.0,10102.2694291949 0.0,9872.089648478503 0.0,9641.909867762106 0.0,9411.730087045707 0.0,9181.550306329309 0.0,8951.370525612912 0.0,8721.190744896516 0.0,8491.01096418012 0.0,8260.831183463719 0.0,8030.651402747323 0.0,7800.471622030926 0.0,7570.291841314527 0.0,7340.11206059813 0.0,7109.932279881733 0.0,6879.752499165335 0.0,6649.572718448939 0.0,6419.39293773254 0.0,6189.213157016143 0.0,5959.033376299745 0.0,5728.853595583347 0.0,5498.673814866951 0.0,5268.4940341505535 0.0,5038.314253434156 0.0,4808.134472717759 0.0,4577.95469200136 0.0,4347.774911284963 0.0,4117.595130568564 0.0,3887.415349852164 0.0,3657.235569135768 0.0,3427.0557884193686 0.0,3196.8760077029697 0.0,2966.6962269865735 0.0,2736.5164462701746 0.0,2506.3366655537748 0.0,2276.156884837379 0.0,2045.9771041209783 0.0,1815.797323404583 0.0,1585.6175426881846 0.0,1355.4377619717868 0.0,1125.2579812553915 0.0,895.0782005389937 0.0,664.8984198225984 0.0,434.7186391062005 0.0,204.53885838980278 43.19636525716583,0.0 273.376145973565,0.0 503.5559266899641,0.0 733.7357074063606,0.0 963.9154881227597,0.0 1194.0952688391594,0.0 1424.2750495555551,0.0 1654.4548302719545,0.0 1884.634610988351,0.0 2114.81439170475,0.0 2344.99417242115,0.0 2575.1739531375456,0.0 2805.353733853945,0.0 3035.533514570341,0.0 3265.7132952867405,0.0 3495.89307600314,0.0 3726.072856719536,0.0 3956.2526374359354,0.0 4186.432418152334,0.0 4416.612198868731,0.0 4646.79197958513,0.0 4876.97176030153,0.0 5107.151541017925,0.0 5337.331321734325,0.0 5567.511102450721,0.0 5797.690883167121,0.0 6027.870663883519,0.0 6258.050444599916,0.0 6488.230225316315,0.0 6718.410006032712,0.0 6948.589786749111,0.0 7178.76956746551,0.0 7408.949348181906,0.0 7639.129128898306,0.0 7869.308909614705,0.0 8099.488690331101,0.0 8329.6684710475,0.0 8559.8482517639,0.0 8790.028032480299,0.0 9020.207813196692,0.0 9250.387593913092,0.0 9480.56737462949,0.0 9710.747155345889,0.0 9940.92693606229,0.0 10171.106716778682,0.0 10401.28649749508,0.0 10631.466278211481,0.0 10861.64605892788,0.0 11091.82583964428,0.0 11322.005620360671,0.0 11552.185401077073,0.0 11782.365181793471,0.0 12012.54496250987,0.0 12242.72474322627,0.0 12472.904523942669,0.0 12703.084304659062,0.0 12933.264085375462,0.0 13163.44386609186,0.0 13393.62364680826,0.0 13623.80342752466,0.0 13853.983208241054,0.0 14084.16298895745,0.0 14314.34276967385,0.0 14544.522550390251,0.0 14774.702331106651,0.0 15004.882111823048,0.0 15235.061892539443,0.0 15465.241673255843,0.0 15695.421453972247,0.0 15925.601234688647,0.0 16155.781015405048,0.0 16385.960796121442,0.0 16616.14057683784,0.0 16846.32035755424,0.0 17076.50013827064,0.0 17306.679918987036,0.0 17536.859699703433,0.0 17767.03948041983,0.0 17997.219261136226,0.0 18227.39904185263,0.0 18457.578822569027,0.0 18687.758603285423,0.0 18917.938384001827,0.0 19148.118164718227,0.0 19378.297945434628,0.0 19608.47772615103,0.0 19838.65750686743,0.0 20068.837287583825,0.0 20299.01706830023,0.0 20529.19684901663,0.0 20759.37662973303,0.0 20989.556410449433,0.0 21219.736191165826,0.0 21449.915971882227,0.0 21680.09575259863,0.0 21910.27553331503,0.0 22140.45531403143,0.0 22370.63509474783,0.0 22600.814875464228,0.0 22830.99465618063,0.0 23061.174436897032,0.0 23291.354217613432,0.0 23521.533998329833,0.0 23751.71377904623,0.0 23981.89355976263,0.0 24212.07334047903,0.0 24442.25312119543,0.0 24672.432901911827,0.0 24902.61268262822,0.0 25132.79246334462,0.0 25362.97224406102,0.0 25593.152024777417,0.0 25823.331805493817,0.0 26053.51158621021,0.0 26283.69136692661,0.0 26513.87114764301,0.0 26744.050928359407,0.0 26974.230709075808,0.0 27204.410489792208,0.0 27434.5902705086,0.0 27664.770051225,0.0 27894.9498319414,0.0 28125.129612657798,0.0 28355.3093933742,0.0 28585.48917409059,0.0 28815.66895480699,0.0 29045.84873552339,0.0 29276.02851623979,0.0 29506.20829695619,0.0 29736.38807767259,0.0 29961.700585696326,11.750635746375238 30000.0,226.06627962724716 30000.0,456.24606034364723 30000.0,686.4258410600457 30000.0,916.605621776446 30000.0,1146.785402492838 30000.0,1376.9651832092381 30000.0,1607.1449639256366 30000.0,1837.3247446420366 30000.0,2067.5045253584353 30000.0,2297.6843060748292 30000.0,2527.864086791228 30000.0,2758.0438675076275 30000.0,2988.2236482240273 30000.0,3218.4034289404262 30000.0,3448.5832096568197 30000.0,3678.7629903732186 30000.0,3908.9427710896193 30000.0,4139.122551806018 30000.0,4369.302332522418 30000.0,4599.482113238816 30000.0,4829.66189395521 30000.0,5059.841674671608 30000.0,5290.021455388008 30000.0,5520.201236104407 30000.0,5750.3810168208065 30000.0,5980.5607975371995 30000.0,6210.740578253599 30000.0,6440.920358969997 30000.0,6671.100139686398 30000.0,6901.279920402797 30000.0,7131.459701119196 30000.0,7361.63948183559 30000.0,7591.819262551987 30000.0,7821.999043268367 30000.0,8052.1788239847565 30000.0,8282.358604701152 30000.0,8512.538385417558 30000.0,8742.718166133956 30000.0,8972.89794685036 30000.0,9203.077727566755 30000.0,9433.257508283164 30000.0,9663.43728899956 30000.0,9893.617069715967 30000.0,10123.796850432365 30000.0,10353.976631148758 30000.0,10584.156411865173 30000.0,10814.336192581572 30000.0,11044.515973297981 30000.0,11274.695754014374 30000.0,11504.875534730774 30000.0,11735.05531544718 30000.0,11965.235096163582 30000.0,12195.414876879988 30000.0,12425.594657596386 30000.0,12655.774438312781 30000.0,12885.954219029185 30000.0,13116.13399974557 30000.0,13346.313780461976 30000.0,13576.49356117836 30000.0,13806.673341894768 30000.0,14036.853122611163 30000.0,14267.032903327547 30000.0,14497.212684043952 30000.0,14727.392464760347 30000.0,14957.572245476757 30000.0,15187.752026193137 30000.0,15417.931806909526 30000.0,15648.111587625932 30000.0,15878.291368342334 30000.0,16108.47114905874 30000.0,16338.650929775138 30000.0,16568.830710491533 30000.0,16799.01049120793 30000.0,17029.190271924315 30000.0,17259.37005264071 30000.0,17489.549833357098 30000.0,17719.729614073483 30000.0,17949.90939478989 30000.0,18180.089175506273 30000.0,18410.268956222688 30000.0,18640.448736939066 30000.0,18870.628517655467 30000.0,19100.808298371863 30000.0,19330.98807908825 30000.0,19561.167859804642 30000.0,19791.34764052103 29952.61122490712,19990.279445009775 29724.426662969745,20000.0 29494.246882253363,20000.0 29264.067101536955,20000.0 29033.88732082057,20000.0 28803.707540104162,20000.0 28573.527759387773,20000.0 28343.347978671387,20000.0 28113.16819795498,20000.0 27882.98841723859,20000.0 27652.808636522186,20000.0 27422.628855805797,20000.0 27192.449075089404,20000.0 26962.269294373004,20000.0 26732.08951365661,20000.0 26501.909732940207,20000.0 26271.729952223814,20000.0 26041.550171507424,20000.0 25811.37039079102,20000.0 25581.19061007463,20000.0 25351.010829358227,20000.0 25120.831048641834,20000.0 24890.651267925452,20000.0 24660.471487209044,20000.0 24430.29170649266,20000.0 24200.111925776255,20000.0 23969.932145059865,20000.0 23739.752364343465,20000.0 23509.572583627072,20000.0 23279.392802910683,20000.0 23049.21302219429,20000.0 22819.033241477897,20000.0 22588.853460761507,20000.0 22358.673680045107,20000.0 22128.493899328725,20000.0 21898.31411861233,20000.0 21668.134337895932,20000.0 21437.954557179535,20000.0 21207.77477646315,20000.0 20977.594995746767,20000.0 20747.415215030367,20000.0 20517.235434313985,20000.0 20287.055653597585,20000.0 20056.875872881203,20000.0 19826.696092164802,20000.0 19596.51631144841,20000.0 19366.33653073202,20000.0 19136.156750015627,20000.0 18905.97696929924,20000.0 18675.79718858286,20000.0 18445.61740786646,20000.0 18215.437627150077,20000.0 17985.25784643368,20000.0 17755.078065717295,20000.0 17524.898285000916,20000.0 17294.718504284512,20000.0 17064.538723568126,20000.0 16834.35894285172,20000.0 16604.179162135337,20000.0 16373.999381418946,20000.0 16143.819600702538,20000.0 15913.639819986141,20000.0 15683.460039269734,20000.0 15453.280258553339,20000.0 15223.100477836932,20000.0 14992.920697120537,20000.0 14762.740916404142,20000.0 14532.561135687733,20000.0 14302.381354971329,20000.0 14072.201574254925,20000.0 13842.021793538526,20000.0 13611.842012822142,20000.0 13381.662232105738,20000.0 13151.48245138935,20000.0 12921.302670672943,20000.0 12691.122889956552,20000.0 12460.943109240165,20000.0 12230.763328523772,20000.0 12000.583547807379,20000.0 11770.403767090982,20000.0 11540.223986374587,20000.0 11310.044205658194,20000.0 11079.8644249418,20000.0 10849.684644225414,20000.0 10619.504863509012,20000.0 10389.325082792619,20000.0 10159.14530207623,20000.0 9928.965521359825,20000.0 9698.785740643443,20000.0 9468.605959927041,20000.0 9238.42617921066,20000.0 9008.24639849426,20000.0 8778.066617777857,20000.0 8547.88683706147,20000.0 8317.707056345072,20000.0 8087.5272756286895,20000.0 7857.347494912303,20000.0 7627.1677141959,20000.0 7396.9879334795,20000.0 7166.808152763106,20000.0 6936.628372046714,20000.0 6706.44859133032,20000.0 6476.268810613932,20000.0 6246.089029897542,20000.0 6015.909249181137,20000.0 5785.729468464748,20000.0 5555.549687748343,20000.0 5325.369907031962,20000.0 5095.190126315561,20000.0 4865.010345599164,20000.0 4634.83056488277,20000.0 4404.650784166363,20000.0 4174.471003449979,20000.0 3944.291222733591,20000.0 3714.1114420171925,20000.0 3483.9316613008073,20000.0 3253.7518805844065,20000.0 3023.572099868007,20000.0 2793.3923191516246,20000.0 2563.2125384352235,20000.0 2333.0327577188364,20000.0 2102.8529770024384,20000.0 1872.673196286048,20000.0 1642.493415569663,20000.0 1412.3136348532664,20000.0 1182.1338541368743,20000.0 951.9540734204718,20000.0 721.7742927040804,20000.0 491.5945119876772,20000.0 261.4147312712935,20000.0 31.234950554908167,20000.0 2.6689099152735123,19801.073072793424 5.756846900370208,19570.914005850966 8.844783885467075,19340.754938908496 11.93272087056377,19110.595871966038 15.020657855660467,18880.43680502358 18.10859484075733,18650.27773808111 21.196531825854027,18420.11867113865 24.284468810950898,18189.95960419618 27.37240579604759,17959.800537253723 30.460342781144288,17729.641470311268 33.54827976624116,17499.482403368795 36.636216751337855,17269.32333642634 39.724153736434715,17039.164269483867 42.81209072153141,16809.00520254141 45.90002770662811,16578.846135598953 48.987964691724976,16348.687068656483 52.07590167682167,16118.528001714025 55.16383866191853,15888.368934771555 58.25177564701523,15658.209867829097 61.33971263211193,15428.050800886638 64.4276496172088,15197.891733944169 67.51558660230549,14967.732667001712 70.60352358740236,14737.57360005924 73.69146057249907,14507.414533116782 76.77939755759576,14277.255466174325 79.86733454269262,14047.096399231856 82.95527152778932,13816.937332289397 86.04320851288618,13586.778265346928 89.13114549798287,13356.61919840447 92.21908248307957,13126.460131462012 95.30701946817643,12896.301064519543 98.39495645327312,12666.141997577084 101.48289343837001,12435.982930634615 104.5708304234667,12205.823863692156 107.65876740856356,11975.664796749687 110.74670439366027,11745.505729807228 113.83464137875696,11515.34666286477 116.92257836385382,11285.1875959223 120.01051534895052,11055.028528979843 123.0984523340474,10824.869462037372 126.18638931914407,10594.710395094915 129.27432630424076,10364.551328152456 132.36226328933765,10134.392261209987 225.74962981553563,9971.769082155644 448.2198165550775,9912.80974206276 672.8627047329092,9862.718574257911 899.2375338075514,9821.136768336353 1126.803283457667,9786.70323710491 1355.324740366124,9759.352529650016 1584.5705786619596,9738.976174214155 1814.3219511144705,9725.417276482554 2044.383485208343,9718.465871686123 2274.5615855389897,9719.345404985923 2504.558252629705,9727.880939124947 2734.1914032886507,9742.9756848739 2963.3561968244303,9764.248726007592 3191.5821673778028,9794.175934624805 3418.595171126501,9831.918705503145 3644.576756295269,9875.39751269443 3868.839428003496,9927.25294181176 4090.9227513945334,9987.527539675535 4311.622349450008,10052.75563006526 4529.096047274709,10128.17394485084 4744.178615031758,10209.90430177934 4957.03748265448,10297.504723724825 5165.606924052805,10394.76523481717 5373.613641725531,10493.323211583325 5583.071229008539,10588.770844242437 5796.1243825836755,10675.718242353525 6012.370839970881,10754.28886419082 6232.096640106627,10822.641196774413 6455.394762690764,10878.504242708574 6682.153006074833,10918.020129299868 6911.099525776233,10941.186729574069 7141.141972741959,10945.73492173628 7370.675391269697,10929.708367215508 7597.459999606753,10890.840317185115 7818.846803658198,10828.2827406378 8032.83693416367,10743.959213125521 8237.818023798076,10639.64744513112 8432.84133681314,10517.68014831149 8617.627986492456,10380.6237323956 8792.465766613792,10231.011296597268 8958.054784626127,10071.167233284037 9114.950377326548,9902.76065411312 9264.79602926628,9728.051416193348 9408.737282003405,9548.443996092079 9547.819629444897,9365.04422167227 9683.035205842765,9178.771513690168 9815.314162027702,8990.39927487119 9945.52508689442,8800.589991493482 10074.480600036048,8609.92489933399 10202.945533300992,8418.92885359987 10331.677552352072,8228.112715074629 10461.447966066227,8038.001370393308 10592.929685423504,7849.070513060431 10726.782344702406,7661.814440986065 10863.649688376709,7476.754910055483 11004.161683936632,7294.4540267957955 11148.933273409755,7115.5261301393075 11298.55901879237,6940.64822024421 11453.602870898063,6770.567998913488 11614.582426052664,6606.108006930474 11781.94745311579,6448.163743488162 11956.053300032998,6297.6931880497195 12137.131091881265,6155.695087412261 12325.258315910389,6023.1740843676625 12520.335077503081,5901.092583187045 12722.07230493903,5790.312231395158 12930.192711298474,5691.983050032629 13144.237914353364,5607.366057348212 13362.98416671718,5535.936453934494 13585.550301037276,5477.662462240216 13811.060652443017,5432.212448944443 14038.711328746102,5398.9912138870495 14267.819860197009,5377.200440694261 14497.862226907517,5369.24802163619 14728.009197356963,5368.0739231719945 14958.187407727051,5368.924171060868 15188.363647734936,5370.035547598762 15418.528479441062,5372.658846349526 15648.693311147186,5375.28214510029 15878.840045468121,5379.123059228374 16108.98117195315,5383.341275776753 16339.104282707814,5388.413577049592 16569.218577795004,5393.903809027588 16799.31665259414,5400.030816733759 17029.41316199271,5406.221447158278 17259.5126614841,5412.297413148164 17489.649173339552,5416.760300292445 17719.80251055184,5415.884274167709 17947.699790194572,5391.229941367802 17909.815222588182,5224.902078998234 17731.67980892196,5079.197923801355 17542.809862198483,4947.677928797044 17343.428995445734,4832.781326092172 17135.43257942807,4734.3340417136815 16920.78471821333,4651.380542478768 16701.15924495924,4582.677879309026 16477.910737206803,4526.855924469347 16252.094773153123,4482.534460102298 16024.511764244036,4448.395877031618 15795.756604346088,4423.221983893002 15566.264471786953,4405.905735121531 15336.348874995128,4395.4471845980115 15106.230942082015,4391.0659959671175 14876.098762137744,4393.194395278332 14646.198178766987,4403.809716603463 14416.900114517246,4423.715875344562 14188.587811707097,4452.95570727996 13961.76920060486,4492.148169671319 13736.780030736307,4540.693875865803 13513.982515189846,4598.422873328484 13293.755257120803,4665.260558510998 13076.472516637103,4741.106292434865 12862.502418579375,4825.835596888544 12652.205571795894,4919.30240768051 12445.934075514724,5021.341296048143 12244.03087370696,5131.769582560498 12046.829407545136,5250.389282640919 11854.653508962538,5376.9888380730235 11667.817474472822,5511.34460369653 11486.626257266587,5653.222072372055 11311.375716590941,5802.376833873934 11142.35286602374,5958.555274540179 10979.836066052367,6121.495034310369 10824.095111058214,6290.92524635503 10675.39116622506,6466.566592025959 10533.976515984376,6648.131210516236 10400.09409244658,6835.322508538249 10273.976759979749,7027.834920556307 10155.846340865988,7225.3536745841175 10045.912376966138,7427.554622087938 9944.370633676454,7634.104192808834 9851.401365180605,7844.65953589593 9767.167373933433,8058.868907107621 9692.13031723458,8276.474448334453 9626.324570933231,8497.039843928313 9569.690389458987,8720.1251246287 9522.305522894676,8945.345598873551 9484.219253246001,9172.313586471533 9455.450434343398,9400.641057004052 9435.985888597215,9629.942667424273 9425.779269323944,9859.839138610678 9424.742147867155,10089.961061402708 9432.869654212214,10319.947832011483 9450.257347513134,10549.430341462928 9476.956897765587,10778.029092290491 9512.986525418775,11005.358117880667 9558.387383606323,11231.01603049726 9613.607521145164,11454.472732981048 9677.947843673797,11675.462880681525 9751.31488645766,11893.612116266195 9833.59090387698,12108.55166818595 9924.636098159835,12319.919826484873 10024.29083870531,12527.363026228719 10132.377792986228,12730.536573712365 10248.703904371865,12929.105062413899 10373.062167294745,13122.7425337238 10505.233165090605,13311.132442180387 10644.98634992287,13493.967486810485 10792.08105707463,13670.949369772468 10946.26725738718,13841.788541363801 11107.286061747207,14006.203987032355 11274.870000394645,14163.923107653733 11448.743107617516,14314.681739206706 11628.62084930301,14458.22435216951 11814.209936976175,14594.304464435387 12005.208077450527,14722.685294179544 12201.303712010586,14843.14067072519 12402.175802992673,14955.456211863782 12607.493728441656,15059.430765131747 12816.91734679229,15154.878098174799 13030.097292739933,15241.62880962954 13246.675562061402,15319.532417214901 13466.286436561842,15388.459564492974 13688.630986169599,15448.004780172882 13913.302754172726,15498.027834379995 14139.832110007228,15538.749036862293 14367.829443137758,15570.139372239011 14596.906706429932,15592.201641127396 14826.680731593568,15604.971788134113 15056.776872315462,15608.528942031762 15286.831517776602,15602.913488540153 15516.477115582706,15588.03156737474 15745.335400743417,15563.828673962145 15973.021469951633,15530.284723732288 16199.147232300162,15487.411889947589 16423.32451186963,15435.252951367625 16645.16773289845,15373.879264858051 16864.185165242965,15303.068984673137 17080.04598965912,15223.171661067812 17292.434898144656,15134.478268861354 17500.998121398552,15037.144730260137 17705.390278068844,14931.344112718103 17905.2746751976,14817.26462736857 18100.32334254827,14695.107848213462 18290.216862606998,14565.08718843347 18474.64406004564,14427.42665596716 18600.377508491758,14241.022433086575 18524.30070500615,14049.504224815013 18300.4145272909,14023.203730850002 18070.520150943397,14016.661556010818 17840.35686975263,14019.312297635739 17610.177093034454,14019.355200078578 17380.026843289605,14022.757025706247 17150.411473048247,14037.797584600807 16924.685055355847,14080.946032907608 16716.865791078886,14177.667521708305 16524.843151542853,14304.565097336483 16323.17745849596,14404.399890175999 16102.4195597045,14360.124714787216 15896.089313332424,14259.129733903183 15677.731628431377,14186.310417130058 15452.485544097935,14139.00391421017 15225.876374644778,14098.913131607953 14998.914303675994,14060.600925522871 14780.726762028517,13992.918612449921 14575.482251791864,13899.913933817617 14348.722937515242,13929.613366841246 14176.880793876442,14082.757119963177 13969.04994381233,14149.568503902663 13764.362108596446,14044.280225517607 13553.232650565422,13952.764165690241 13340.54770825906,13864.801023021804 13126.72312748852,13780.71475132696 13124.653842960744,13625.432041864307 13335.706511621229,13542.909635431692 13558.507319399041,13485.09507682625 13766.156943622107,13400.16782557152 13676.544310470674,13271.990094356575 13464.255834676904,13189.806172031344 13239.820748288621,13138.702126706688 13012.17091909773,13150.317473693447 12793.988233595966,13218.876391573853 12570.347321025407,13230.718029578356 12357.607134796584,13142.969036077962 12158.298788437334,13027.821676046577 12035.46465250533,12839.061339324358 12015.553797039418,12610.462980985201 12082.16746725703,12403.659844408923 12296.625994569726,12408.809146908861 12485.99151526816,12539.665675294973 12648.956074225054,12701.366281170798 12837.0276616353,12831.719631504036 13059.324515206394,12772.616303430319 13240.004961146971,12630.33970077295 13398.829371268323,12465.47349246418 13616.51347579025,12420.534006241369 13842.629886082379,12463.593272924028 14070.024240599976,12496.63621456542 14298.986980133519,12504.58964680982 14505.080568531846,12416.051838574245 14564.712355684744,12213.533369550374 14427.45136349194,12030.484098295829 14230.389763423891,11911.532607219551 14007.554869925154,11865.876753408165 13784.340307001466,11891.097326647521 13567.682170051663,11967.25127318572 13364.510087820492,12075.067512148116 13147.01746358021,12113.767324482411 12941.672144160579,12016.803814724346 12759.631353530305,11876.118045066905 12559.329711276398,11764.259128682379 12335.572917017635,11713.94210447135 12105.922931421532,11698.418207300492 11876.061616360477,11686.314187758946 11657.675570382671,11618.643237316785 11499.168724924983,11457.404820279167 11408.650448381071,11245.861414749863 11323.543378547754,11031.998773827036 11235.402769222052,10819.370883333833 11157.816707506554,10602.809929817146 11111.652714748243,10378.376626459922 11129.922817196843,10152.419319440709 11214.758748774073,9940.331833628627 11293.235181882323,9725.543239712364 11370.068039119571,9509.13678005619 11563.232812781436,9400.248898654194 11792.561564024641,9420.024016956697 12019.5972207021,9454.506094801049 12244.060584651112,9505.485793656113 12470.190899479094,9547.254034882875 12647.558485014668,9464.298645565077 12683.775478366366,9237.21728853555 12698.783482920553,9007.911093287024 12662.824126938742,8781.289937321693 12713.73374356133,8565.604687082583 12864.000989621427,8391.241599784371 13049.011129321552,8254.815156440116 13083.47305143214,8055.857268443265 12994.836188045207,7843.427896887477 12915.389761909708,7627.464874327176 12889.620358339562,7404.0894528253475 13017.43731510088,7222.754925388653 13137.344054712521,7027.795295223438 13151.451010236025,6799.890958404183 13206.767040547627,6576.45669907672 13295.299163166424,6365.76348783048 13426.164571295949,6182.668286989005 13623.852813251922,6155.667653883335 13782.41411498579,6312.065968501538 13894.085887439554,6511.997544535135 14019.708194733006,6701.928414267412 14206.575591479454,6831.433142530808 14402.917592538073,6950.538575621082 14580.004120207286,7097.586503755823 14611.194277466237,7322.012334291324 14581.045456444548,7548.254070822654 14659.771466294327,7746.111680233536 14794.199136671692,7923.3742835828725 14873.341305175603,8136.530019866113 14773.341211137662,8343.846972934114 14776.726768879269,8529.871974239377 14943.708596118026,8688.285170645502 15115.618506029325,8841.3528495491 15275.485538818,9006.800565829213 15422.511052264119,9183.448442733163 15548.735841632182,9374.87368383603 15621.535178310934,9588.786606767031 15527.438623501233,9774.48545901809 15313.16979913973,9841.710924591174 15084.36859244266,9855.191787342103 14871.047998279857,9929.124952631775 14711.572015979316,10089.559997891025 14591.662423921678,10283.699028521425 14530.769885975944,10504.1105368783 14478.612644561512,10728.153709735236 14399.914850678053,10941.829646478674 14263.655290901599,11123.79066870298 14060.965133962218,11224.5975922453 14032.843250886606,11361.946452536105 14257.122788980485,11413.728884335376 14473.911426898345,11342.065780818864 14676.640434482651,11244.522988525607 14819.169216279282,11064.118353572398 14881.685868614519,10842.590929465485 14925.536695045992,10616.718398589654 15026.334880404529,10413.61829086363 15247.681041447542,10350.462860042782 15477.491095058702,10357.073348067466 15697.90139713834,10415.120028298947 15875.98342437778,10555.250428078007 15824.523856411577,10777.27446444724 15782.510103611636,10988.636726400575 15914.625901337817,11177.125843969283 16128.18256364444,11197.75704596603 16319.355301845304,11071.29473505841 16535.249829898083,10993.562841459547 16679.505503960554,10835.464597767472 16739.265200513502,10613.177598330809 16863.816612957602,10421.10955493034 17034.79393608822,10282.730598457169 16986.60072795386,10068.436174934368 16918.053006830967,9848.737127541654 16858.40934038071,9628.239104572043 16915.5045305645,9418.095171720599 17095.013441473286,9277.323906114203 17291.35673142795,9304.860177654402 17374.690826834998,9518.685231443886 17435.869669965206,9740.520295618382 17509.065512344412,9958.49365292354 17612.3263546773,10161.450942663147 17753.94086132175,10342.9118556954 17938.182068459155,10244.731555312817 18066.870349711007,10055.309598024449 18194.68938981671,9868.338591292331 18233.434095946795,9649.409194965554 18184.48598650647,9426.807648085414 18068.3371740366,9228.550172227846 18033.190364660706,9011.849378505261 18090.99790655922,8790.555958746334 18190.068028601007,8582.78723547627 18276.065889049598,8369.984450402342 18385.19878802781,8171.139050890962 18566.82582927818,8030.309312958018 18775.06599606823,7935.281425119518 19000.08495707214,7904.529199567642 19197.543151940885,7998.9207789946495 19247.643026725014,8211.824989262754 19242.53097860437,8439.77277560684 19219.66750509581,8666.156437934953 19315.19832667996,8870.153668819823 19407.97727250026,9076.306728847325 19198.12898266364,9148.076985317139 18973.756535347817,9187.09630337944 18743.596778479212,9184.69570279821 18594.90328908746,9267.057085537377 18670.951130340443,9468.326579508956 18838.49168578729,9625.693041568524 18818.673702449574,9844.201857623584 18768.7882750983,10068.148585273046 18680.924650905068,10280.898943661163 18630.76074592589,10493.804277391719 18786.54235717686,10484.313006767776 18988.65778493563,10529.520415045788 19157.119510570137,10671.947745002612 19244.05059041732,10881.41763411233 19260.657834307338,11108.574104982916 19217.829821390194,11332.89202665078 19126.143945273896,11542.366003927125 18996.34903151442,11731.682085128477 18843.788151617657,11904.041910423626 18732.987128763874,12103.36188330057 18778.59452945189,12299.812881407377 18994.162775925877,12249.236713816666 19135.094972134473,12068.016469237858 19341.588248320895,12046.391382379848 19441.48445661898,12232.575772454076 19435.44826551437,12462.550960727252 19387.973524160694,12687.781687725246 19291.36465685404,12889.931683701223 19094.52464800721,13008.306719917346 18880.052153219858,13091.878727374 18707.874273114718,13230.51807301429 18658.807785845966,13436.030226535828 18789.230859997064,13608.553528698181 19007.554773339467,13662.416677357514 19228.965497771514,13609.440167642517 19412.514226893516,13475.299293558845 19563.216689153665,13303.256431058491 19694.772318269315,13114.43325504995 19818.60529481772,12920.460416454423 19934.457162526032,12721.619053784532 20042.10848247714,12518.222048566295 20141.353224424365,12310.593976486238 20232.000969231463,12099.071025389176 20313.879322410306,11884.00059445408 20386.836479081034,11665.740516386788 20450.743863582542,11444.657853894198 20505.498750859613,11221.127235641723 20551.02676311076,10995.528715445955 20587.284125634334,10768.245161262206 20614.259562002946,10539.659206675551 20631.44707744128,10310.122018482194 20638.964537384792,10080.076168321546 20637.330292015286,9849.930527389766 20626.54615904909,9620.043600995708 20606.523112584826,9390.784048227211 20577.207354731076,9162.530970150983 20538.5757058435,8935.670732080842 20490.63742092528,8710.593559341609 20433.432997367432,8487.690420488636 20367.03258942594,8267.350231134187 20291.53412571279,8049.957423668194 20195.489843236363,7841.960887345269 20020.760677285136,7854.791250900955 19952.569499951962,8063.310893293688 19881.269922459964,8256.734460876256 19688.55777655395,8193.512638216398 19619.880404475283,7983.338897521851 19615.22511317419,7753.659222440782 19565.25923146071,7534.85828768601 19411.131721081107,7413.718934190933 19212.928366554377,7396.078669415718 19028.522141751186,7263.471629940684 18806.12856949535,7209.325518801981 18583.23835627532,7158.7890903770085 18368.061611722056,7077.047423804069 18140.579474264057,7042.621570229237 17962.378661018978,6908.627191834437 17871.74979504175,6698.914103405705 17696.510608919125,6549.669475034265 17523.522563400486,6397.82271285819 17475.290430379315,6185.422105407909 17658.129943196862,6061.046987435871 17880.139344360516,6008.346422129666 18108.844361182422,5982.332065878989 18338.190082232646,5967.180541180043 18568.33695223223,5966.72590372204 18795.943085258437,5999.607245276717 19017.253652738487,6061.928161160311 19230.444570088883,6148.3955402425245 19434.3463002458,6254.995747177085 19630.72951170503,6374.96071517266 19819.97230086526,6505.929643658357 20003.592460439628,6644.699762018268 20183.013735234177,6788.869722079251 20359.024352649198,6937.195167425526 20532.419645973092,7088.575254213091 20704.268584192054,7241.709673537049 20875.215165165544,7395.851950341937 21045.839760522347,7550.3510618614255 21216.663825383836,7704.62942205901 21388.1548651405,7858.165475044895 21560.731099607277,8010.480020196881 21734.765524910075,8161.125558977137 21910.589235181535,8309.678111044423 22088.49396665769,8455.731083616132 22268.733890834028,8598.890890036311 22451.5267270437,8738.774101549545 22637.05427822534,8875.005981737944 22825.462522564663,9007.220297162068 23016.86142075296,9135.060321164647 23211.32462389143,9258.180950908509 23408.88928850502,9376.251841019246 23609.556218844507,9488.961422031687 23813.290557534117,9596.021621220449 24020.023228165166,9697.173042780309 24229.653293030962,9792.19030201181 24442.051323679345,9880.887155076307 24657.412714416194,9962.141095476381 24875.31434788134,10036.260810356433 25095.416916781083,10103.500342695466 25317.496021348015,10163.859484437076 25541.326384123153,10217.393946394976 25766.689510719694,10264.213070612233 25993.719468752566,10302.162110207955 26221.759979258935,10333.209630079431 26450.569961090674,10357.853656149406 26679.985009415665,10376.392345551667 26909.937894493487,10386.610079891063 27140.05324886234,10390.18402691744 27370.18849440688,10388.439710663182 27600.228327324126,10380.414330793266 27829.859634769276,10364.859962081075 28059.142656879787,10344.98604527362 28287.896233175372,10319.402206964236 28515.78554898406,10287.19849866003 28743.196933875013,10251.746702313087 28969.48654412076,10209.60712773672 29194.955017160763,10163.447231805027 29419.64498335917,10113.475734524873 29642.913190905834,10057.582186652446 29865.8,10000.1 "/></svg>