<svg xmlns="http://www.w3.org/2000/svg" version="1.1" fill="none" stroke="black" stroke-width="0.5"><path d="M 0.0,20000.0 0.0,19899.8998998999 0.0,19799.7997997998 0.0,19699.6996996997 0.0,19599.599599599598 0.0,19499.4994994995 0.0,19399.3993993994 0.0,19299.2992992993 0.0,19199.1991991992 0.0,19099.099099099098 0.0,18998.998998999 0.0,18898.8988988989 0.0,18798.798798798798 0.0,18698.6986986987 0.0,18598.598598598597 0.0,18498.4984984985 0.0,18398.3983983984 0.0,18298.298298298298 0.0,18198.1981981982 0.0,18098.098098098097 0.0,17997.997997997998 0.0,17897.8978978979 0.0,17797.797797797797 0.0,17697.6976976977 0.0,17597.597597597596 0.0,17497.497497497498 0.0,17397.3973973974 0.0,17297.297297297297 0.0,17197.197197197198 0.0,17097.097097097096 0.0,16996.996996996997 0.0,16896.8968968969 0.0,16796.796796796796 0.0,16696.696696696697 0.0,16596.5965965966 0.0,16496.496496496497 0.0,16396.396396396398 0.0,16296.296296296296 0.0,16196.196196196197 0.0,16096.096096096097 0.0,15995.995995995996 0.0,15895.895895895897 0.0,15795.795795795795 0.0,15695.695695695696 0.0,15595.595595595596 0.0,15495.495495495496 0.0,15395.395395395395 0.0,15295.295295295295 0.0,15195.195195195196 0.0,15095.095095095096 0.0,14994.994994994995 0.0,14894.894894894896 0.0,14794.794794794796 0.0,14694.694694694695 0.0,14594.594594594593 0.0,14494.494494494495 0.0,14394.394394394396 0.0,14294.294294294295 0.0,14194.194194194195 0.0,14094.094094094093 0.0,13993.993993993994 0.0,13893.893893893895 0.0,13793.793793793793 0.0,13693.693693693695 0.0,13593.593593593594 0.0,13493.493493493494 0.0,13393.393393393395 0.0,13293.293293293293 0.0,13193.193193193194 0.0,13093.093093093094 0.0,12992.992992992993 0.0,12892.892892892894 0.0,12792.792792792792 0.0,12692.692692692694 0.0,12592.592592592593 0.0,12492.492492492493 0.0,12392.392392392392 0.0,12292.292292292292 0.0,12192.192192192193 0.0,12092.092092092093 0.0,11991.991991991992 0.0,11891.891891891892 0.0,11791.791791791793 0.0,11691.691691691693 0.0,11591.591591591592 0.0,11491.491491491492 0.0,11391.391391391391 0.0,11291.291291291293 0.0,11191.191191191192 0.0,11091.091091091092 0.0,10990.990990990991 0.0,10890.89089089089 0.0,10790.79079079079 0.0,10690.690690690692 0.0,10590.590590590591 0.0,10490.490490490492 0.0,10390.39039039039 0.0,10290.29029029029 0.0,10190.190190190191 0.0,10090.09009009009 0.0,9989.989989989992 0.0,9889.889889889891 0.0,9789.789789789791 0.0,9689.68968968969 0.0,9589.589589589592 0.0,9489.48948948949 0.0,9389.389389389391 0.0,9289.28928928929 0.0,9189.189189189188 0.0,9089.089089089091 0.0,8988.98898898899 0.0,8888.88888888889 0.0,8788.78878878879 0.0,8688.688688688688 0.0,8588.588588588591 0.0,8488.488488488489 0.0,8388.38838838839 0.0,8288.28828828829 0.0,8188.188188188187 0.0,8088.08808808809 0.0,7987.987987987988 0.0,7887.887887887888 0.0,7787.787787787789 0.0,7687.687687687687 0.0,7587.587587587588 0.0,7487.487487487488 0.0,7387.387387387389 0.0,7287.28728728729 0.0,7187.187187187188 0.0,7087.087087087088 0.0,6986.986986986987 0.0,6886.8868868868885 0.0,6786.78678678679 0.0,6686.686686686688 0.0,6586.586586586587 0.0,6486.486486486487 0.0,6386.38638638639 0.0,6286.286286286289 0.0,6186.186186186187 0.0,6086.086086086087 0.0,5985.985985985986 0.0,5885.885885885886 0.0,5785.785785785789 0.0,5685.685685685687 0.0,5585.585585585586 0.0,5485.485485485486 0.0,5385.385385385385 0.0,5285.285285285288 0.0,5185.185185185186 0.0,5085.085085085086 0.0,4984.984984984985 0.0,4884.884884884887 0.0,4784.784784784784 0.0,4684.684684684686 0.0,4584.584584584585 0.0,4484.484484484485 0.0,4384.384384384386 0.0,4284.284284284284 0.0,4184.184184184185 0.0,4084.0840840840847 0.0,3983.983983983986 0.0,3883.8838838838856 0.0,3783.7837837837833 0.0,3683.6836836836846 0.0,3583.583583583586 0.0,3483.4834834834837 0.0,3383.383383383385 0.0,3283.283283283283 0.0,3183.183183183184 0.0,3083.0830830830855 0.0,2982.9829829829832 0.0,2882.8828828828846 0.0,2782.7827827827823 0.0,2682.6826826826837 0.0,2582.582582582585 0.0,2482.4824824824827 0.0,2382.382382382384 0.0,2282.282282282282 0.0,2182.182182182183 0.0,2082.0820820820845 0.0,1981.9819819819822 0.0,1881.8818818818836 0.0,1781.7817817817813 0.0,1681.6816816816827 0.0,1581.5815815815804 0.0,1481.4814814814854 0.0,1381.381381381383 0.0,1281.2812812812808 0.0,1181.1811811811822 0.0,1081.08108108108 0.0,980.9809809809849 0.0,880.8808808808826 0.0,780.7807807807803 0.0,680.6806806806817 0.0,580.5805805805794 0.0,480.4804804804844 0.0,380.3803803803821 0.0,280.28028028027984 0.0,180.1801801801812 0.0,80.08008008007891 20.020020020017352,0.0 120.12012012011799,0.0 220.22022022021858,0.0 320.32032032031924,0.0 420.4204204204198,0.0 520.5205205205204,0.0 620.6206206206183,0.0 720.720720720719,0.0 820.8208208208196,0.0 920.9209209209201,0.0 1021.0210210210209,0.0 1121.1211211211187,0.0 1221.2212212212194,0.0 1321.3213213213198,0.0 1421.4214214214205,0.0 1521.5215215215212,0.0 1621.6216216216217,0.0 1721.7217217217196,0.0 1821.8218218218203,0.0 1921.921921921921,0.0 2022.0220220220215,0.0 2122.122122122122,0.0 2222.22222222222,0.0 2322.322322322321,0.0 2422.4224224224213,0.0 2522.5225225225217,0.0 2622.6226226226227,0.0 2722.7227227227204,0.0 2822.822822822821,0.0 2922.9229229229218,0.0 3023.0230230230222,0.0 3123.1231231231227,0.0 3223.2232232232204,0.0 3323.3233233233213,0.0 3423.4234234234223,0.0 3523.5235235235223,0.0 3623.623623623623,0.0 3723.723723723724,0.0 3823.823823823822,0.0 3923.9239239239223,0.0 4024.024024024023,0.0 4124.124124124123,0.0 4224.224224224224,0.0 4324.324324324321,0.0 4424.424424424423,0.0 4524.524524524523,0.0 4624.624624624624,0.0 4724.724724724725,0.0 4824.824824824826,0.0 4924.924924924923,0.0 5025.0250250250265,0.0 5125.125125125124,0.0 5225.225225225222,0.0 5325.325325325325,0.0 5425.425425425423,0.0 5525.525525525527,0.0 5625.625625625625,0.0 5725.725725725722,0.0 5825.8258258258265,0.0 5925.925925925924,0.0 6026.026026026027,0.0 6126.126126126124,0.0 6226.226226226222,0.0 6326.326326326326,0.0 6426.426426426424,0.0 6526.526526526528,0.0 6626.626626626626,0.0 6726.726726726723,0.0 6826.826826826827,0.0 6926.926926926924,0.0 7027.0270270270275,0.0 7127.127127127125,0.0 7227.227227227223,0.0 7327.327327327327,0.0 7427.427427427425,0.0 7527.527527527528,0.0 7627.627627627626,0.0 7727.72772772773,0.0 7827.827827827828,0.0 7927.927927927925,0.0 8028.0280280280285,0.0 8128.128128128126,0.0 8228.228228228229,0.0 8328.328328328327,0.0 8428.428428428426,0.0 8528.52852852853,0.0 8628.628628628627,0.0 8728.72872872873,0.0 8828.828828828828,0.0 8928.928928928926,0.0 9029.029029029029,0.0 9129.129129129127,0.0 9229.229229229231,0.0 9329.329329329328,0.0 9429.429429429427,0.0 9529.52952952953,0.0 9629.629629629628,0.0 9729.72972972973,0.0 9829.829829829829,0.0 9929.929929929925,0.0 10030.03003003003,0.0 10130.130130130128,0.0 10230.23023023023,0.0 10330.33033033033,0.0 10430.430430430431,0.0 10530.53053053053,0.0 10630.630630630627,0.0 10730.730730730733,0.0 10830.83083083083,0.0 10930.930930930932,0.0 11031.03103103103,0.0 11131.13113113113,0.0 11231.231231231232,0.0 11331.331331331328,0.0 11431.431431431434,0.0 11531.531531531531,0.0 11631.63163163163,0.0 11731.731731731732,0.0 11831.83183183183,0.0 11931.931931931933,0.0 12032.03203203203,0.0 12132.132132132128,0.0 12232.232232232232,0.0 12332.332332332331,0.0 12432.432432432433,0.0 12532.532532532532,0.0 12632.632632632629,0.0 12732.732732732733,0.0 12832.83283283283,0.0 12932.932932932934,0.0 13033.033033033033,0.0 13133.13313313313,0.0 13233.233233233233,0.0 13333.33333333333,0.0 13433.433433433434,0.0 13533.533533533531,0.0 13633.63363363363,0.0 13733.733733733734,0.0 13833.833833833833,0.0 13933.933933933935,0.0 14034.034034034032,0.0 14134.134134134136,0.0 14234.234234234233,0.0 14334.334334334331,0.0 14434.434434434435,0.0 14534.534534534534,0.0 14634.634634634636,0.0 14734.734734734735,0.0 14834.834834834832,0.0 14934.934934934934,0.0 15035.035035035033,0.0 15135.135135135137,0.0 15235.235235235235,0.0 15335.335335335332,0.0 15435.435435435436,0.0 15535.535535535535,0.0 15635.635635635635,0.0 15735.735735735734,0.0 15835.835835835833,0.0 15935.935935935937,0.0 16036.036036036034,0.0 16136.13613613614,0.0 16236.236236236236,0.0 16336.336336336335,0.0 16436.436436436437,0.0 16536.536536536532,0.0 16636.63663663664,0.0 16736.736736736737,0.0 16836.83683683684,0.0 16936.936936936938,0.0 17037.037037037036,0.0 17137.13713713714,0.0 17237.237237237234,0.0 17337.33733733734,0.0 17437.43743743744,0.0 17537.537537537537,0.0 17637.63763763764,0.0 17737.737737737738,0.0 17837.83783783784,0.0 17937.937937937935,0.0 18038.038038038034,0.0 18138.13813813814,0.0 18238.23823823824,0.0 18338.33833833834,0.0 18438.43843843844,0.0 18538.538538538538,0.0 18638.638638638637,0.0 18738.738738738735,0.0 18838.83883883884,0.0 18938.93893893894,0.0 19039.039039039035,0.0 19139.13913913914,0.0 19239.23923923924,0.0 19339.339339339338,0.0 19439.439439439437,0.0 19539.539539539535,0.0 19639.63963963964,0.0 19739.739739739736,0.0 19839.839839839842,0.0 19939.93993993994,0.0 20040.04004004004,0.0 20140.140140140138,0.0 20240.240240240237,0.0 20340.340340340343,0.0 20440.440440440438,0.0 20540.540540540544,0.0 20640.640640640642,0.0 20740.74074074074,0.0 20840.84084084084,0.0 20940.940940940938,0.0 21041.041041041044,0.0 21141.141141141143,0.0 21241.241241241238,0.0 21341.341341341344,0.0 21441.441441441442,0.0 21541.54154154154,0.0 21641.64164164164,0.0 21741.74174174174,0.0 21841.841841841844,0.0 21941.94194194194,0.0 22042.042042042045,0.0 22142.142142142144,0.0 22242.242242242242,0.0 22342.34234234234,0.0 22442.44244244244,0.0 22542.542542542546,0.0 22642.64264264264,0.0 22742.74274274274,0.0 22842.842842842845,0.0 22942.942942942944,0.0 23043.043043043042,0.0 23143.14314314314,0.0 23243.243243243247,0.0 23343.343343343342,0.0 23443.44344344344,0.0 23543.543543543547,0.0 23643.643643643645,0.0 23743.743743743744,0.0 23843.843843843842,0.0 23943.94394394394,0.0 24044.044044044043,0.0 24144.144144144142,0.0 24244.244244244248,0.0 24344.344344344347,0.0 24444.44444444444,0.0 24544.544544544544,0.0 24644.644644644643,0.0 24744.744744744745,0.0 24844.844844844843,0.0 24944.944944944942,0.0 25045.045045045048,0.0 25145.145145145143,0.0 25245.245245245245,0.0 25345.345345345344,0.0 25445.445445445443,0.0 25545.545545545545,0.0 25645.645645645644,0.0 25745.74574574575,0.0 25845.845845845844,0.0 25945.945945945943,0.0 26046.046046046045,0.0 26146.146146146144,0.0 26246.246246246246,0.0 26346.346346346345,0.0 26446.446446446444,0.0 26546.54654654655,0.0 26646.646646646645,0.0 26746.746746746747,0.0 26846.846846846845,0.0 26946.946946946948,0.0 27047.047047047046,0.0 27147.147147147145,0.0 27247.24724724725,0.0 27347.347347347346,0.0 27447.44744744745,0.0 27547.547547547547,0.0 27647.647647647645,0.0 27747.747747747748,0.0 27847.847847847846,0.0 27947.947947947952,0.0 28048.048048048047,0.0 28148.148148148146,0.0 28248.24824824825,0.0 28348.348348348347,0.0 28448.44844844845,0.0 28548.548548548548,0.0 28648.648648648646,0.0 28748.74874874875,0.0 28848.848848848847,0.0 28948.94894894895,0.0 29049.04904904905,0.0 29149.149149149143,0.0 29249.24924924925,0.0 29349.349349349348,0.0 29449.44944944945,0.0 29549.54954954955,0.0 29649.64964964965,0.0 29749.74974974975,0.0 29849.849849849845,0.0 29949.94994994995,0.0 30000.0,50.05005005005448 30000.0,150.15015015015234 30000.0,250.25025025025022 30000.0,350.3503503503481 30000.0,450.45045045044594 30000.0,550.5505505505549 30000.0,650.6506506506528 30000.0,750.7507507507506 30000.0,850.8508508508485 30000.0,950.9509509509464 30000.0,1051.0510510510553 30000.0,1151.1511511511533 30000.0,1251.251251251251 30000.0,1351.351351351349 30000.0,1451.4514514514467 30000.0,1551.5515515515558 30000.0,1651.6516516516535 30000.0,1751.7517517517515 30000.0,1851.8518518518492 30000.0,1951.9519519519474 30000.0,2052.0520520520563 30000.0,2152.152152152154 30000.0,2252.252252252252 30000.0,2352.35235235235 30000.0,2452.4524524524477 30000.0,2552.552552552557 30000.0,2652.6526526526545 30000.0,2752.7527527527523 30000.0,2852.85285285285 30000.0,2952.952952952948 30000.0,3053.053053053057 30000.0,3153.153153153155 30000.0,3253.2532532532528 30000.0,3353.3533533533505 30000.0,3453.453453453448 30000.0,3553.5535535535573 30000.0,3653.653653653655 30000.0,3753.7537537537537 30000.0,3853.8538538538514 30000.0,3953.953953953949 30000.0,4054.0540540540583 30000.0,4154.1541541541565 30000.0,4254.254254254254 30000.0,4354.354354354352 30000.0,4454.45445445445 30000.0,4554.554554554558 30000.0,4654.654654654656 30000.0,4754.754754754754 30000.0,4854.854854854852 30000.0,4954.954954954961 30000.0,5055.055055055059 30000.0,5155.1551551551565 30000.0,5255.255255255254 30000.0,5355.355355355352 30000.0,5455.455455455462 30000.0,5555.555555555559 30000.0,5655.655655655657 30000.0,5755.755755755755 30000.0,5855.8558558558525 30000.0,5955.955955955962 30000.0,6056.05605605606 30000.0,6156.1561561561575 30000.0,6256.256256256255 30000.0,6356.356356356353 30000.0,6456.456456456462 30000.0,6556.556556556559 30000.0,6656.656656656658 30000.0,6756.756756756756 30000.0,6856.8568568568535 30000.0,6956.956956956962 30000.0,7057.05705705706 30000.0,7157.157157157158 30000.0,7257.257257257256 30000.0,7357.357357357354 30000.0,7457.457457457463 30000.0,7557.557557557561 30000.0,7657.657657657659 30000.0,7757.757757757758 30000.0,7857.857857857855 30000.0,7957.957957957964 30000.0,8058.058058058062 30000.0,8158.1581581581595 30000.0,8258.258258258258 30000.0,8358.358358358355 30000.0,8458.458458458465 30000.0,8558.558558558561 30000.0,8658.65865865866 30000.0,8758.758758758759 30000.0,8858.858858858855 30000.0,8958.958958958965 30000.0,9059.059059059062 30000.0,9159.15915915916 30000.0,9259.259259259257 30000.0,9359.359359359356 30000.0,9459.459459459466 30000.0,9559.559559559562 30000.0,9659.659659659661 30000.0,9759.759759759758 30000.0,9859.859859859856 30000.0,9959.959959959966 30000.0,10060.060060060063 30000.0,10160.160160160161 30000.0,10260.260260260258 30000.0,10360.360360360357 30000.0,10460.460460460466 30000.0,10560.560560560563 30000.0,10660.660660660662 30000.0,10760.760760760759 30000.0,10860.860860860868 30000.0,10960.960960960965 30000.0,11061.061061061064 30000.0,11161.161161161162 30000.0,11261.26126126126 30000.0,11361.361361361369 30000.0,11461.461461461466 30000.0,11561.561561561564 30000.0,11661.661661661661 30000.0,11761.76176176176 30000.0,11861.86186186187 30000.0,11961.961961961966 30000.0,12062.062062062065 30000.0,12162.162162162162 30000.0,12262.26226226226 30000.0,12362.36236236237 30000.0,12462.462462462467 30000.0,12562.562562562565 30000.0,12662.662662662662 30000.0,12762.76276276276 30000.0,12862.862862862868 30000.0,12962.962962962967 30000.0,13063.063063063066 30000.0,13163.163163163163 30000.0,13263.263263263261 30000.0,13363.363363363369 30000.0,13463.463463463468 30000.0,13563.563563563566 30000.0,13663.663663663663 30000.0,13763.763763763762 30000.0,13863.86386386387 30000.0,13963.963963963968 30000.0,14064.064064064065 30000.0,14164.164164164164 30000.0,14264.264264264262 30000.0,14364.36436436437 30000.0,14464.464464464469 30000.0,14564.564564564565 30000.0,14664.664664664664 30000.0,14764.764764764761 30000.0,14864.86486486487 30000.0,14964.96496496497 30000.0,15065.065065065068 30000.0,15165.165165165166 30000.0,15265.265265265265 30000.0,15365.365365365373 30000.0,15465.465465465471 30000.0,15565.565565565568 30000.0,15665.665665665667 30000.0,15765.765765765764 30000.0,15865.865865865873 30000.0,15965.965965965972 30000.0,16066.066066066069 30000.0,16166.166166166167 30000.0,16266.266266266264 30000.0,16366.366366366374 30000.0,16466.46646646647 30000.0,16566.56656656657 30000.0,16666.666666666668 30000.0,16766.766766766767 30000.0,16866.866866866872 30000.0,16966.96696696697 30000.0,17067.06706706707 30000.0,17167.16716716717 30000.0,17267.267267267267 30000.0,17367.367367367373 30000.0,17467.46746746747 30000.0,17567.56756756757 30000.0,17667.66766766767 30000.0,17767.76776776778 30000.0,17867.867867867873 30000.0,17967.967967967972 30000.0,18068.06806806807 30000.0,18168.16816816817 30000.0,18268.26826826828 30000.0,18368.368368368374 30000.0,18468.468468468473 30000.0,18568.56856856857 30000.0,18668.66866866867 30000.0,18768.76876876878 30000.0,18868.868868868874 30000.0,18968.968968968973 30000.0,19069.06906906907 30000.0,19169.16916916917 30000.0,19269.269269269276 30000.0,19369.369369369375 30000.0,19469.469469469474 30000.0,19569.569569569572 30000.0,19669.66966966967 30000.0,19769.769769769777 30000.0,19869.869869869875 30000.0,19969.969969969974 29929.929929929927,20000.0 29829.82982982983,20000.0 29729.729729729723,20000.0 29629.629629629624,20000.0 29529.529529529525,20000.0 29429.429429429427,20000.0 29329.32932932933,20000.0 29229.229229229222,20000.0 29129.129129129124,20000.0 29029.029029029025,20000.0 28928.928928928926,20000.0 28828.82882882883,20000.0 28728.72872872872,20000.0 28628.628628628623,20000.0 28528.528528528524,20000.0 28428.428428428426,20000.0 28328.32832832833,20000.0 28228.22822822822,20000.0 28128.128128128123,20000.0 28028.028028028024,20000.0 27927.92792792793,20000.0 27827.82782782783,20000.0 27727.72772772772,20000.0 27627.627627627622,20000.0 27527.527527527523,20000.0 27427.42742742743,20000.0 27327.32732732733,20000.0 27227.22722722722,20000.0 27127.12712712712,20000.0 27027.027027027023,20000.0 26926.926926926928,20000.0 26826.82682682683,20000.0 26726.72672672672,20000.0 26626.62662662662,20000.0 26526.526526526526,20000.0 26426.426426426427,20000.0 26326.326326326318,20000.0 26226.22622622622,20000.0 26126.12612612612,20000.0 26026.026026026026,20000.0 25925.925925925927,20000.0 25825.825825825817,20000.0 25725.72572572572,20000.0 25625.625625625624,20000.0 25525.525525525525,20000.0 25425.425425425427,20000.0 25325.325325325317,20000.0 25225.22522522522,20000.0 25125.125125125123,20000.0 25025.025025025025,20000.0 24924.924924924926,20000.0 24824.824824824816,20000.0 24724.724724724718,20000.0 24624.624624624623,20000.0 24524.524524524524,20000.0 24424.424424424426,20000.0 24324.324324324316,20000.0 24224.224224224217,20000.0 24124.124124124122,20000.0 24024.024024024024,20000.0 23923.923923923925,20000.0 23823.823823823815,20000.0 23723.72372372372,20000.0 23623.623623623622,20000.0 23523.523523523523,20000.0 23423.423423423425,20000.0 23323.32332332332,20000.0 23223.22322322322,20000.0 23123.12312312312,20000.0 23023.023023023023,20000.0 22922.922922922924,20000.0 22822.822822822814,20000.0 22722.72272272272,20000.0 22622.62262262262,20000.0 22522.522522522522,20000.0 22422.422422422424,20000.0 22322.322322322318,20000.0 22222.22222222222,20000.0 22122.12212212212,20000.0 22022.02202202202,20000.0 21921.921921921923,20000.0 21821.821821821814,20000.0 21721.72172172172,20000.0 21621.62162162162,20000.0 21521.52152152152,20000.0 21421.421421421423,20000.0 21321.321321321317,20000.0 21221.221221221218,20000.0 21121.12112112112,20000.0 21021.02102102102,20000.0 20920.920920920922,20000.0 20820.820820820816,20000.0 20720.720720720718,20000.0 20620.62062062062,20000.0 20520.52052052052,20000.0 20420.42042042042,20000.0 20320.320320320316,20000.0 20220.220220220217,20000.0 20120.12012012012,20000.0 20020.02002002002,20000.0 19919.919919919925,20000.0 19819.819819819815,20000.0 19719.719719719717,20000.0 19619.619619619618,20000.0 19519.51951951952,20000.0 19419.419419419413,20000.0 19319.319319319315,20000.0 19219.219219219216,20000.0 19119.119119119117,20000.0 19019.01901901902,20000.0 18918.918918918913,20000.0 18818.818818818814,20000.0 18718.718718718716,20000.0 18618.618618618617,20000.0 18518.51851851852,20000.0 18418.418418418412,20000.0 18318.318318318314,20000.0 18218.218218218215,20000.0 18118.118118118116,20000.0 18018.018018018018,20000.0 17917.917917917912,20000.0 17817.817817817813,20000.0 17717.717717717715,20000.0 17617.617617617616,20000.0 17517.517517517517,20000.0 17417.41741741741,20000.0 17317.317317317313,20000.0 17217.217217217214,20000.0 17117.117117117115,20000.0 17017.01701701702,20000.0 16916.91691691691,20000.0 16816.816816816812,20000.0 16716.716716716714,20000.0 16616.616616616615,20000.0 16516.516516516516,20000.0 16416.41641641641,20000.0 16316.316316316314,20000.0 16216.216216216215,20000.0 16116.116116116118,20000.0 16016.01601601602,20000.0 15915.91591591591,20000.0 15815.815815815813,20000.0 15715.715715715714,20000.0 15615.615615615618,20000.0 15515.515515515519,20000.0 15415.41541541541,20000.0 15315.31531531531,20000.0 15215.215215215214,20000.0 15115.115115115115,20000.0 15015.015015015018,20000.0 14914.914914914909,20000.0 14814.81481481481,20000.0 14714.714714714713,20000.0 14614.614614614615,20000.0 14514.514514514518,20000.0 14414.414414414408,20000.0 14314.314314314312,20000.0 14214.214214214213,20000.0 14114.114114114116,20000.0 14014.014014014017,20000.0 13913.91391391391,20000.0 13813.813813813813,20000.0 13713.713713713714,20000.0 13613.613613613616,20000.0 13513.513513513506,20000.0 13413.413413413407,20000.0 13313.313313313309,20000.0 13213.21321321321,20000.0 13113.113113113115,20000.0 13013.013013013006,20000.0 12912.912912912907,20000.0 12812.812812812812,20000.0 12712.712712712713,20000.0 12612.612612612615,20000.0 12512.512512512509,20000.0 12412.41241241241,20000.0 12312.312312312311,20000.0 12212.212212212213,20000.0 12112.112112112114,20000.0 12012.012012012005,20000.0 11911.911911911906,20000.0 11811.811811811807,20000.0 11711.711711711712,20000.0 11611.611611611614,20000.0 11511.511511511504,20000.0 11411.411411411409,20000.0 11311.31131131131,20000.0 11211.211211211212,20000.0 11111.111111111113,20000.0 11011.011011011007,20000.0 10910.910910910909,20000.0 10810.81081081081,20000.0 10710.710710710711,20000.0 10610.610610610616,20000.0 10510.510510510507,20000.0 10410.410410410408,20000.0 10310.31031031031,20000.0 10210.210210210214,20000.0 10110.110110110116,20000.0 10010.010010010003,20000.0 9909.909909909908,20000.0 9809.809809809809,20000.0 9709.70970970971,20000.0 9609.609609609612,20000.0 9509.509509509506,20000.0 9409.409409409407,20000.0 9309.309309309308,20000.0 9209.20920920921,20000.0 9109.109109109115,20000.0 9009.009009009005,20000.0 8908.908908908907,20000.0 8808.808808808812,20000.0 8708.708708708713,20000.0 8608.608608608614,20000.0 8508.508508508505,20000.0 8408.408408408406,20000.0 8308.308308308307,20000.0 8208.208208208209,20000.0 8108.10810810811,20000.0 8008.008008008004,20000.0 7907.907907907906,20000.0 7807.807807807807,20000.0 7707.707707707712,20000.0 7607.607607607613,20000.0 7507.507507507504,20000.0 7407.407407407409,20000.0 7307.30730730731,20000.0 7207.2072072072115,20000.0 7107.107107107113,20000.0 7007.007007007003,20000.0 6906.906906906905,20000.0 6806.806806806806,20000.0 6706.706706706707,20000.0 6606.606606606601,20000.0 6506.506506506503,20000.0 6406.406406406404,20000.0 6306.306306306309,20000.0 6206.2062062062105,20000.0 6106.106106106101,20000.0 6006.006006006002,20000.0 5905.905905905907,20000.0 5805.805805805809,20000.0 5705.70570570571,20000.0 5605.6056056056,20000.0 5505.505505505502,20000.0 5405.405405405403,20000.0 5305.3053053053045,20000.0 5205.2052052052095,20000.0 5105.1051051051,20000.0 5005.005005005001,20000.0 4904.904904904903,20000.0 4804.804804804808,20000.0 4704.704704704709,20000.0 4604.604604604599,20000.0 4504.504504504504,20000.0 4404.404404404406,20000.0 4304.304304304307,20000.0 4204.2042042042085,20000.0 4104.104104104099,20000.0 4004.0040040040003,20000.0 3903.9039039039017,20000.0 3803.803803803803,20000.0 3703.7037037037117,20000.0 3603.6036036035985,20000.0 3503.5035035035,20000.0 3403.403403403405,20000.0 3303.303303303306,20000.0 3203.2032032032075,20000.0 3103.103103103098,20000.0 3003.003003003003,20000.0 2902.9029029029043,20000.0 2802.8028028028057,20000.0 2702.702702702707,20000.0 2602.602602602601,20000.0 2502.5025025025025,20000.0 2402.402402402404,20000.0 2302.302302302309,20000.0 2202.20220220221,20000.0 2102.102102102097,20000.0 2002.002002002002,20000.0 1901.9019019019033,20000.0 1801.8018018018047,20000.0 1701.701701701706,20000.0 1601.6016016016001,20000.0 1501.5015015015015,20000.0 1401.4014014014028,20000.0 1301.3013013013042,20000.0 1201.2012012012092,20000.0 1101.1011011010996,20000.0 1001.001001001001,20000.0 900.9009009009023,20000.0 800.8008008008073,20000.0 700.7007007006941,20000.0 600.6006006005955,20000.0 500.5005005005005,20000.0 400.40040040040185,20000.0 300.3003003003032,20000.0 200.2002002001973,20000.0 100.10010010009864,20000.0 0.0,20000.0 134.1640000000025,10000.099999999997 149.8581615988678,9994.88850403229 196.0048880754639,9980.43770737616 271.2005419498091,9958.523146902093 374.04148574191913,9930.920359480573 503.1240819718132,9899.404881982082 657.0446931595088,9865.752251277108 834.3996818250207,9831.738004236135 1033.78541048837,9799.137677729643 1253.7982416695718,9769.72680862812 1493.0345378886436,9745.28093380205 1750.090661665603,9727.575590121918 2023.5629755204677,9718.386314458206 2312.0478419732385,9719.4886436814 2614.141623543965,9732.658114661981 2928.440682752649,9759.670264270439 3253.5413821193074,9802.300629377254 3588.040084163958,9862.324746852912 3930.5331514066183,9941.518153567897 4279.616946367306,10041.656386392693 4633.887831566037,10164.514982197787 4991.94216952283,10311.86947785366 5339.869863909513,10477.946524821617 5639.269448698247,10614.379785406225 5924.842749810556,10726.053834807633 6197.19313004972,10813.909298973358 6456.9239522190355,10878.88680385092 6704.638579121801,10921.926975387836 6940.940373561301,10943.970439531628 7166.432698340829,10945.957822229806 7381.718916263685,10928.829749429893 7587.402390133154,10893.526847079407 7784.08648275253,10840.989741125868 7972.374556925109,10772.159057516787 8152.8699754541785,10687.975422199686 8326.176101143035,10589.379461122086 8492.896296794974,10477.311800231499 8653.63392521328,10352.713065475447 8808.992349201253,10216.523882801444 8959.574931562182,10069.684878157012 9105.985035099358,9913.136677489667 9248.82602261608,9747.819906746929 9388.701256915634,9574.675191876311 9526.214100801317,9394.643158825338 9661.967917076418,9208.664433541522 9796.56606854423,9017.679641972381 9930.611918008051,8822.629410065438 10064.708828271168,8624.454363768205 10199.460162136877,8424.095129028205 10335.469282408467,8222.492331792952 10473.339551889236,8020.586598009965 10613.67433338247,7819.318553626763 10757.076989691466,7619.628824590864 10904.150883619517,7422.458036849785 11055.499377969914,7228.746816351042 11211.725835545949,7039.435789042157 11373.433619150916,6855.465580870645 11541.226091588107,6677.776817784024 11715.706615660816,6507.310125729815 11897.478554172334,6345.006130655532 12087.145269925953,6191.805458508695 12285.31012572497,6048.64873523682 12492.576484372672,5916.4765867874285 12709.547708672355,5796.2296391080345 12936.827161427298,5688.848518146164 13175.01820544082,5595.273849849322 13424.724203516198,5516.446260165033 13686.548518456728,5453.306375040815 13961.0945130657,5406.794820424185 14248.96555014641,5377.852222262662 14550.764992502147,5367.419206503763 15154.465786795186,5369.649197453095 15703.142354351623,5375.902726906641 16184.59585479297,5384.72720410398 16601.91544591925,5394.683914369971 16958.19028553049,5404.3341430294795 17256.50953142672,5412.239175407366 17499.962341407958,5416.9602968284935 17691.637873274234,5417.058792617723 17834.625284825568,5411.095948099917 17932.013733861993,5397.633048599938 17986.892378183533,5375.231379442646 18002.35037559021,5342.452225952907 17981.47688388205,5297.856873455579 17927.361060859082,5240.006607275526 17843.092064321325,5167.46271273761 17720.46776963776,5070.315343716985 17528.45021239166,4937.76544948865 17325.61434499404,4822.672996398111 17113.055614493493,4723.939997440046 16891.86946793862,4640.468465609137 16663.151352378016,4571.160413900064 16427.996714860285,4514.917855307506 16187.501002434023,4470.642802826146 15942.75966214783,4437.237269450662 15694.868141050303,4413.603268175735 15444.921886190043,4398.6428119960465 15194.016344615648,4391.2579139062755 14941.649433899673,4390.706185076442 14688.484497642814,4400.315965727402 14438.310205005419,4420.985692421669 14191.366173078708,4452.475628405315 13947.892018953904,4494.546036924408 13708.127359722232,4546.957181225021 13472.311812474914,4609.469324553223 13240.68499430317,4681.842730155086 13013.486522298226,4763.837661276681 12790.956013551304,4855.214381164076 12573.333085153625,4955.733153063344 12360.85735419641,5065.154240220556 12153.768437770888,5183.2379058817805 11952.305952968276,5309.744413293091 11756.709516879799,5444.434025700556 11567.218746596678,5587.0670063502475 11384.073259210138,5737.403618488234 11207.5126718114,5895.2041253605885 11037.776601491696,6060.228790213372 10875.10466534223,6232.237876292673 10719.736480454234,6410.991646844552 10571.911663918932,6596.250365115082 10431.869832827546,6787.774294350332 10299.850604271296,6985.3236977963725 10176.093595341408,7188.658838699275 10060.838423129106,7397.5399803051105 9954.324704725606,7611.727385859949 9856.792057222137,7830.981318609862 9768.48009770992,8055.062041800919 9689.628443280177,8283.72981867919 9620.476711024128,8516.744912490749 9561.264518033002,8753.867586481663 9512.231481398016,8994.858103898005 9473.617218210395,9239.476727985844 9445.661345561362,9487.483721991253 9428.603480542139,9738.639349160301 9422.683240243947,9992.703872739057 9428.063953291603,10246.87410268138 9444.589618958502,10498.157326479866 9472.020753852757,10746.312646001305 9510.117874704225,10991.099935147706 9558.641498242765,11232.279067821088 9617.352141198233,11469.609917923466 9686.010320300484,11702.852359356852 9764.376552279373,11931.766266023258 9852.21135386476,12156.111511824703 9949.275241786505,12375.647970663204 10055.328732774455,12590.135516440769 10170.132343558475,12799.334023059415 10293.446590868418,13003.003364421158 10425.031991434138,13200.903414428012 10564.649061985498,13392.794046981991 10712.05831925235,13578.43513598511 10867.020279964552,13757.58655533938 11029.29546085196,13930.00817894682 11198.644378644432,14095.459880709444 11374.827550071823,14253.701534529266 11557.60549186399,14404.493014308298 11746.738720750789,14547.594193948558 11941.98775346208,14682.76494735206 12143.113106727715,14809.765148420816 12349.875297277555,14928.354671056844 12562.03484184145,15038.293389162156 12779.352257149265,15139.341176638767 13001.588059930851,15231.257907388692 13228.502766916066,15313.803455313946 13459.856894834767,15386.737694316542 13695.41096041681,15449.820498298495 13934.925480392052,15502.811741161822 14178.160971490335,15545.471296808531 14424.877950441545,15577.559039140646 14674.836933975525,15598.834842060174 14927.798438822127,15609.058579469134 15182.036804064232,15608.01457426143 15433.581731101684,15595.770137589821 15682.139140291622,15572.566445664905 15927.466481645992,15538.646490815132 16169.321205176746,15494.253265368961 16407.460760895832,15439.629761654844 16641.642598815197,15375.018972001235 16871.62416894679,15300.663888736592 17097.16292130256,15216.807504189368 17318.016305894456,15123.692810688019 17533.941772734433,15021.562800560998 17744.69677183443,14910.66046613676 17950.0387532064,14791.228799743762 18149.725166862296,14663.510793710457 18343.513462814062,14527.7494403653 18531.16109107365,14384.187732036746 18625.563098974602,14188.929263211392 18516.071079125257,14038.173109092146 18185.514534870617,14015.228172343068 17858.12795490128,14019.308985342297 17575.2028466931,14019.361718812004 17330.71430193933,14023.614873027123 17118.637412333213,14040.296948262583 16932.947269568005,14077.636444793314 16767.618965336955,14143.861862894248 16542.60441301587,14293.739487203728 16358.414653299942,14406.004403305535 16173.498554549871,14397.584314534062 15936.103695293614,14272.473985821007 15674.94490980373,14185.38108438596 15378.972497464349,14123.678297043863 15099.412916474577,14078.456124562297 14887.492625033516,14040.805067708836 14780.767018652625,13992.940767477574 14605.709412310403,13896.598707126668 14354.902160414471,13924.106514062722 14125.947019682088,14128.148717016249 13984.96716215921,14157.756076528338 13739.545386968375,14031.514885102408 13391.065352165886,13884.219246750987 13129.346862611315,13783.618589412177 13041.528135911369,13686.424569722065 13183.304466204738,13582.397824182897 13457.671337886766,13511.307893687217 13722.130641847283,13442.56037719627 13816.068708673403,13352.108211401759 13578.871868952241,13215.90433299538 13193.58348629416,13128.173865859964 12948.585046056616,13158.078902011957 12777.907524604272,13225.200368902424 12615.246040975368,13249.055103044766 12362.708769010833,13145.916427506105 12141.673988638331,13018.216951292829 12038.305454771344,12865.366226076329 12012.373662652106,12625.24643205443 12058.973423740732,12408.618703792346 12240.261188706463,12369.85959161907 12513.33608454506,12558.561487967687 12683.67338209589,12737.922824072488 12837.467685184169,12831.988765200223 13061.749144956528,12771.967433449026 13309.088684225424,12575.451331498256 13416.455902490254,12443.872055286327 13599.202785729549,12417.237537759396 13987.756436034288,12491.229669632434 14278.078933615376,12510.30932827308 14459.337607154468,12460.723544436358 14570.473660916114,12352.190188597018 14564.4055363164,12206.14917518334 14428.042092717473,12030.840677772374 14196.743457095517,11891.22282436187 13905.86975642672,11852.25374294958 13598.523959834738,11950.4884690229 13378.064693065977,12070.310163571641 13202.03997508656,12132.090711683357 13004.809629725121,12066.409813322023 12771.908658815775,11883.423665979864 12582.318050531749,11770.607613875998 12391.492947917093,11717.909142487377 12147.915489024203,11700.629448185837 11834.48425509822,11684.124810250727 11623.521483375298,11605.994179138655 11497.913472034854,11455.904916099516 11401.912057409045,11230.005406569846 11306.951299154343,10990.077156433106 11208.400066453229,10754.945649752719 11129.107322748554,10516.462897709802 11099.62043007971,10283.187245841054 11150.486750486087,10063.677039683174 11261.168123615076,9851.267014498886 11313.67204148933,9645.417426076396 11380.961471667959,9482.812854822958 11551.513673329511,9399.238352144832 11913.805905652529,9430.478969448275 12365.463706102533,9533.058643241777 12574.74740342989,9561.426290190711 12642.940699748633,9489.23379806933 12679.452577402635,9292.07667943595 12700.934496396423,9019.46229357368 12660.996597809402,8804.990989334114 12676.086727799951,8609.288524165037 12871.64381565579,8382.373221758053 13100.595847621644,8217.716737738629 13106.523553809335,8111.100691404397 12973.377099935593,7791.998498022292 12878.593383687652,7523.058608169067 12894.211874321813,7354.551950890402 13052.049378928552,7185.735239923355 13144.740631319093,7014.099072223899 13148.39432657392,6812.237611737648 13227.404026148937,6493.0991340705905 13373.212105256296,6219.639696535573 13528.77005878271,6111.029139970664 13699.65760471892,6191.255739834741 13854.09037451822,6416.70094254974 13928.016515974115,6592.843453648292 14058.167733807406,6747.683463822043 14371.70001208747,6924.61632965997 14580.291267403225,7097.824943126611 14620.983961860344,7275.571702744644 14575.740700457753,7490.198196120923 14594.420508521918,7694.6322170494805 14751.829612509657,7818.629423055131 14877.18518135389,8128.530273599271 14778.411971717935,8334.093766906528 14709.824138929233,8466.017026461803 14928.690294421758,8674.912953866913 15141.26993834008,8864.192749857266 15346.685752291021,9082.452776928134 15515.527105215973,9307.34136767723 15618.383366056327,9516.506854702267 15625.843903753466,9687.59757060096 15489.274463563228,9808.18287100378 15236.63866556545,9856.281463968893 15026.563488987342,9854.77812188012 14823.287186641426,9951.957822613347 14637.30641512415,10181.034666599027 14556.777412438412,10362.16384612903 14515.869128380205,10585.43750326337 14438.391300116451,10882.22723224831 14295.859074451555,11103.018518327237 14123.465636638512,11214.216086416991 13977.623863228111,11238.440807112644 14010.617437255305,11356.814880176327 14268.928292351984,11416.454579592226 14649.640392030837,11278.29337995856 14818.237451880103,11067.420055751169 14888.023698774905,10820.13286209603 14931.16062513699,10586.222601506672 15019.809723388098,10415.480076496615 15253.203326467285,10348.887218125643 15543.649170459687,10359.488007615486 15748.705649910022,10433.44289664165 15878.824328667932,10557.969233777409 15839.818406047601,10735.391065383983 15759.3873786584,10955.647620652206 15936.615825983079,11208.498787728653 16135.044924284697,11197.372252098474 16336.16985015009,11059.792742992226 16576.804731276123,10979.738362323315 16658.010547458733,10915.418976042767 16745.351163471067,10590.539758406023 16933.935722932238,10320.824660709877 17045.90018939577,10278.53577592707 16968.39841746186,10003.94489493749 16857.016640785194,9660.570659432522 16865.14359657569,9471.90318380821 16983.496720890467,9345.44908855352 17170.801314185515,9231.025354397254 17294.206109975592,9306.605295097235 17379.50945892785,9531.38248910232 17457.791966868102,9821.868129554403 17560.134239622163,10094.573409595378 17757.295583919855,10347.210504471197 17897.505290643323,10314.48724041224 18017.406513323756,10108.871348952 18160.62971394146,9953.782581908661 18247.436793004297,9736.013532195966 18201.88799520594,9454.301842742847 18092.3288343871,9281.204532766758 18014.42111119946,9110.2208957213 18065.01700354094,8845.042810465713 18250.12527204503,8456.835873589167 18302.125677314707,8282.734031556365 18390.69809013754,8163.751648308579 18601.253358823305,8004.225460605927 18842.48083055667,7908.540845061856 19072.292328029303,7902.691237702341 19231.124577597006,8024.721209569953 19259.933782097418,8351.041859299132 19210.42615454511,8603.464243927661 19230.993637980453,8742.991540797968 19388.426118548745,8980.73898168293 19409.860927237656,9085.514197630751 19062.411421792334,9188.17895936356 18754.28108692245,9184.41606298734 18591.917273979958,9188.665602036552 18599.77010499171,9394.824998600316 18760.00984632848,9560.28867736782 18856.124804291117,9640.387943122456 18784.524842111958,10030.0445313748 18675.019675616284,10295.197074662443 18613.37250937254,10469.050063979716 18686.195740114308,10572.722554838829 18821.45329840709,10453.55501385033 19098.515663440234,10579.431742118102 19218.88530783573,10769.45541656078 19268.76492686155,10991.373558693753 19252.33587149467,11228.880932778564 19173.779492712085,11465.672303076753 19037.277141490773,11685.442433849863 18800.543198247327,11952.899078872384 18697.88568157737,12181.540827451003 18776.246100950957,12300.101593691465 18973.875871453314,12275.805285576134 19131.637169250098,12069.194544787699 19303.555168752482,12010.62197759295 19443.317824807516,12142.066159217326 19436.972547705445,12455.319427152612 19384.847039646702,12702.614425302238 19319.87216301735,12871.806853613554 19122.04754629301,12997.582063298554 18781.26971876635,13130.370592528645 18638.268117704152,13325.49509820666 18674.246438198184,13519.114013829741 18827.712227812015,13638.485886621094 19039.87097724279,13666.716840651678 19268.739717759963,13597.392568451896 19477.49217242621,13420.120039505264 19618.728080188484,13227.58074673992 19750.655066927633,13031.284380144938 19874.477752903378,12829.334787321863 19989.953811261326,12621.953814246599 20096.840915147073,12409.363306895057 20194.89673770623,12191.78511124313 20283.87895208439,11969.441073266731 20363.545231427157,11742.553038941758 20433.65324888013,11511.34285424412 20493.96067758892,11276.032365149718 20544.225190699115,11036.843417634458 20584.204461356327,10793.997857674243 20613.656162706153,10547.717531244978 20632.337967894193,10298.224284322567 20640.007550066053,10045.739962882912 20636.575265831107,9794.709383927744 20622.35143040557,9546.988684079211 20597.56099113077,9302.339721164413 20562.42368760281,9060.982234779465 20517.15925941781,8823.135964520485 20461.987446171886,8589.020649983584 20397.12798746115,8358.856030764877 20322.800622881714,8132.861846460481 20239.225092029697,7911.2578366665075 20155.240819379404,7778.1877376914335 19989.63043818866,7872.523874057845 19915.13623648395,8256.014615787699 19728.84180024517,8259.974395256379 19617.104337042605,8075.626670000447 19624.089974951996,7843.395653415263 19598.164850823265,7580.963122576736 19464.712761568153,7393.980271011533 19286.246301840372,7459.725342502601 19081.304679710545,7281.817271650477 18908.860835918636,7221.88091588635 18673.64954582635,7193.134629557308 18363.69848680374,7075.389953323094 18122.087654172414,7039.905768299279 17974.22408069539,6938.661181003534 17883.672512669942,6709.0682338885545 17690.39114958507,6544.457761522275 17512.635101814885,6388.255403061086 17469.06737896904,6266.525100437962 17460.4889338885,6206.481328943677 17525.705551394098,6113.692648613327 17754.8431370168,6022.598405842102 18238.027596287586,5967.637947025192 18563.00043680481,5966.153913603252 18700.228071756195,5980.862547408315 18836.632179651875,6007.575742099067 18972.45072245663,6045.721146969352 19107.921662135235,6094.726411313029 19243.28296065247,6154.019184423945 19378.772579973116,6223.027115595951 19514.628482061948,6301.177854122899 19651.08862888374,6387.8990492986395 19788.390982403274,6482.618350417025 19926.773504585326,6584.763406771908 20066.474157394674,6693.761867657138 20207.73090279609,6809.041382366566 20350.781702754364,6930.029600194045 20495.864519234266,7056.154170433426 20643.21731420057,7186.842742378558 20793.07804961806,7321.5229653232955 20945.684687451514,7459.622488561488 21101.275189665706,7600.568961386988 21260.087518225413,7743.7900330936445 21422.359635095414,7888.713352975312 21588.32950224049,8034.766570325841 21758.23508162541,8181.377334439079 21932.31433521496,8327.973294608882 22110.805224973916,8473.9821001291 22293.94571286705,8618.831400293584 22481.97376085915,8761.948844396187 22675.127330914984,8902.762081730756 22873.644384999334,9040.698761591148 23077.762885076972,9175.18653327121 23287.720793112687,9305.653046064794 23503.756071071246,9431.525949265751 23726.10668091743,9552.232892167936 23955.010584616022,9667.201524065196 24190.70574413179,9775.859494251385 24433.43012142952,9877.634452020353 24683.42167847398,9971.954046665953 24940.91837722996,10058.245927482034 25206.158179662227,10135.937743762448 25479.37904773556,10204.457144801047 25760.818943414746,10263.231779891683 26050.71582866455,10311.689298328205 26349.30766544976,10349.257349404466 26656.832415735145,10375.363582414317 26973.528041485493,10389.43564665161 27299.63250466557,10390.901191410196 27635.38376724016,10379.187865983924 27981.01979117404,10353.72331966665 28336.778538431987,10313.935201752221 28702.897970978778,10259.25116153449 29079.616050779194,10189.098848307309 29467.170739798006,10102.905911364529 29865.8,10000.1 "/></svg>