<svg xmlns="http://www.w3.org/2000/svg" version="1.1" fill="none" stroke="black" stroke-width="0.5"><path d="M 144.0,29.0 143.0200747651861,29.979925234813877 141.64256644800224,30.0 140.2567428908168,30.0 138.8709193336314,30.0 137.63590773186334,30.364092268136645 136.51348578163365,31.0 135.12766222444822,31.0 134.11034558979483,31.889654410205182 132.8375271361675,32.16247286383251 131.79861867763813,33.0 130.5847834477263,33.41521655227372 129.6048582129124,34.395141787087596 128.46957513082805,35.0 127.3521145244712,35.647885475528795 126.37218928965733,36.62781071034267 126.0,37.85946841598203 125.11944560121611,38.88055439878388 124.84662714758879,40.153372852411216 123.86670191277491,41.13329808722509 122.88677667796104,42.11322332203897 121.90685144314716,43.093148556852846 120.8966580527709,44.0 119.65410775470595,44.34589224529405 118.67418251989207,45.32581748010793 117.6942572850782,46.305742714921806 116.59600451114848,47.0 115.44151359663698,47.55848640336301 114.4615883618231,48.53841163817689 113.48166312700924,49.518336872990766 112.50173789219535,50.49826210780464 111.52181265738147,51.47818734261852 110.3521309799014,52.0 109.26906896894027,52.730931031059725 108.2891437341264,53.7108562658736 107.30921849931252,54.69078150068748 106.32929326449865,55.670706735501355 106.0,56.92013255653333 105.07654957605743,57.92345042394257 104.09662434124355,58.903375658756445 103.11669910642968,59.88330089357032 102.1367738716158,60.86322612838419 101.15684863680193,61.84315136319807 100.88403018317459,63.115969816825405 99.90410494836073,64.09589505163927 98.92417971354685,65.07582028645315 97.94425447873296,66.05574552126704 97.0,67.05044606702972 96.69151079029176,68.30848920970824 95.71158555547788,69.28841444452212 95.0,70.37948961383981 94.45884186703667,71.54115813296333 93.47891663222279,72.52108336777721 92.49899139740891,73.50100860259109 92.0,74.68014315546223 91.24624770896772,75.75375229103228 90.26632247415384,76.73367752584616 88.99350402052652,77.00649597947348 88.01357878571264,77.98642121428736 87.03365355089876,78.96634644910124 85.76083509727142,79.23916490272858 84.69015975610529,80.0 83.50809140883021,80.49190859116979 82.33272620410753,81.0 81.25534772038901,81.74465227961099 80.27542248557513,82.72457751442487 79.29549725076126,83.70450274923874 78.31557201594738,84.68442798405262 78.0,85.9395373323272 78.0,87.32536088951264 78.5028833449346,88.5028833449346 79.48280857974848,89.48280857974848 80.46273381456237,90.46273381456237 81.44265904937625,91.44265904937625 82.59762442594739,92.0 83.69540273781745,92.69540273781745 84.67532797263132,93.67532797263132 85.6552532074452,94.6552532074452 86.63517844225908,95.63517844225908 87.61510367707295,96.61510367707295 88.59502891188683,97.59502891188683 89.57495414670072,98.57495414670072 90.55487938151458,99.55487938151458 91.53480461632846,100.53480461632846 92.51472985114233,101.51472985114233 93.49465508595621,102.49465508595621 94.4745803207701,103.4745803207701 95.0,104.64276792088076 95.72732400921129,105.72732400921129 96.70724924402518,106.70724924402518 97.68717447883904,107.68717447883904 98.66709971365292,108.66709971365292 99.0,109.9150314573155 99.91984340209412,110.91984340209412 100.89976863690801,111.89976863690801 101.17258709053532,113.17258709053532 102.0,114.2156849989379 102.42533077897653,115.42533077897653 103.4052560137904,116.4052560137904 104.0,117.54472854574799 104.0,118.93055210293339 104.93081815585894,119.93081815585894 105.0,121.28798565493116 104.5235449368864,122.4764550631136 103.54361970207252,122.54361970207252 102.38297079825874,122.0 101.29087601363132,121.29087601363132 100.31095077881743,120.31095077881743 99.05392725144866,120.0 97.66810369426325,120.0 96.49249541793544,119.49249541793544 95.51257018312158,118.51257018312158 94.33906014745315,118.0 92.96693327586691,117.96693327586691 92.0,116.98162659545541 91.71418958742571,115.71418958742571 90.73426435261183,114.73426435261183 89.65258304864533,114.0 88.48152066417062,113.48152066417062 87.29514949664758,113.0 85.93588375691597,112.93588375691597 84.93771594464981,112.0 83.68314006847477,111.68314006847477 82.58028239265207,111.0 81.43039638003356,110.43039638003356 80.2228488406543,110.0 78.88475947277891,109.88475947277891 77.86541528865658,109.0 76.6320157843377,108.6320157843377 75.50798173665882,108.0 74.3792720958965,107.3792720958965 73.39934686108265,107.60065313891735 72.17893818984876,108.0 71.14660317264143,108.85339682735857 69.8737847190141,108.8737847190141 68.89385948420023,108.10614051579977 67.91393424938639,108.91393424938639 66.90667465341409,108.0 65.52085109622865,108.0 64.13502753904322,108.0 63.115553653690526,108.88444634630947 61.77759398704547,109.0 60.39177042986008,109.0 59.00594687267465,109.0 57.62012331548922,109.0 56.234299758303784,109.0 54.84847620111835,109.0 53.462652643932955,109.0 52.07682908674752,109.0 50.69100552956209,109.0 49.30518197237666,109.0 48.23587100734955,109.76412899265046 46.947748420378915,110.0 45.56192486319352,110.0 44.17610130600809,110.0 42.79027774882266,110.0 41.57888552039947,110.42111447960053 40.4328441968249,111.0 39.326141831958275,111.67385816804172 38.34621659714439,112.65378340285561 37.10380065001484,113.0 35.80057968988974,113.19942031011027 34.74636709801709,114.0 33.54783600144855,114.45216399855144 32.38893354601937,115.0 31.003109988833955,115.0 30.02227385938002,115.97772614061998 29.042348624566138,116.95765137543387 27.769530170938825,117.23046982906118 27.0,118.29754355278845 26.51678648249761,119.48321351750239 25.53686124768373,120.46313875231627 24.55693601286985,121.44306398713015 23.401802905589104,122.0 22.304192324428655,122.69580767557134 21.32426708961477,123.67573291038522 20.344341854800888,124.65565814519911 19.364416619987004,125.63558338001299 18.129539369154344,126.0 17.11167293154582,126.88832706845419 16.838854477918478,128.1611455220815 16.0,129.1995041776557 15.586110789477269,130.41388921052274 15.0,131.55693772965347 15.0,132.9427612868389 15.0,134.3285848440243 15.0,135.71440840120974 14.222018521340617,136.77798147865937 13.242093286526734,137.75790671347326 12.96927483289939,139.0307251671006 11.989349598085536,140.01065040191446 11.009424363271652,140.99057563672835 11.0,142.37249549482993 10.463787456017,143.536212543983 10.0,144.72992904682766 9.211043767575818,145.78895623242417 9.0,147.0873625988254 9.0,148.47318615601083 9.0,149.85900971319626 9.0,151.2448332703817 9.0,152.63065682756707 9.0,154.0164803847525 9.0,155.40230394193793 9.557290299069724,156.55729029906973 10.0,157.7597374939357 9.189966012489068,158.81003398751093 9.0,160.11717104593342 9.0,161.50299460311885 9.0,162.88881816030428 9.0,164.27464171748971 9.0,165.66046527467512 9.0,167.04628883186052 9.305549600529108,168.3055496005291 10.0,169.40372238385828 10.0,170.7895459410437 10.0,172.17536949822912 10.0,173.56119305541455 10.0,174.94701661259995 10.942460322293062,175.94246032229307 11.215278775920405,177.2152787759204 12.195204010734287,178.1952040107343 13.0,179.2476701542224 13.447947699175486,180.4479476991755 14.42787293398937,181.42787293398936 15.0,182.57671370103247 15.680616622430588,183.6806166224306 16.0,184.93414725303023 16.226253529685213,186.2262535296852 17.206178764499093,187.2061787644991 18.186103999312976,188.18610399931296 19.166029234126857,189.16602923412685 20.145954468940737,190.14595446894074 21.17802078427725,191.0 22.398698157381933,191.39869815738194 23.378623392195816,192.3786233921958 24.0,193.50706433108738 24.631367080637045,194.63136708063703 25.611292315450928,195.61129231545092 26.83610787789746,196.0 27.864036003892124,196.86403600389212 28.843961238706004,197.84396123870602 29.823886473519885,198.82388647351988 30.803811708333768,199.80381170833377 31.78373694314762,200.78373694314763 33.05655539677496,201.05655539677497 34.036480631588844,202.03648063158886 35.023201398769224,203.0 36.28922432003007,203.2892243200301 37.269149554843956,204.26914955484395 38.35224494557931,205.0 39.52189324328519,205.52189324328518 40.709678497577116,206.0 41.77463693172638,206.77463693172638 43.04745538535375,207.04745538535374 44.038722044387235,208.0 45.300199073794985,208.300199073795 46.28012430860883,209.28012430860883 47.36776559119728,210.0 48.532867997050054,210.53286799705006 49.72519914319509,211.0 50.7856116854913,211.7856116854913 52.05843013911862,212.05843013911863 53.05424269000521,213.0 54.4400662471907,213.0 55.58399228118717,213.58399228118716 56.56391751600108,214.56391751600108 57.543842750814925,215.54384275081492 58.74071978881307,216.0 59.79658643925616,216.79658643925617 61.06940489288348,217.06940489288348 62.0,218.06976333562326 62.45558689280867,219.0 63.84141044999405,219.0 65.2272340071795,219.0 66.43349716102013,219.43349716102014 67.58466755917729,220.0 68.97049111636268,220.0 70.35631467354814,220.0 71.74213823073353,220.0 72.79758942915679,220.79758942915677 73.0,222.09957178273132 73.0,223.48539533991672 73.0,224.87121889710218 73.0,226.25704245428756 72.54542508389312,227.45457491610688 72.0,228.61447600628537 71.99978817663842,230.00021182336158 71.0198629418245,230.9801370581755 71.0,232.35773311546856 71.0,233.743556672654 70.20140758094249,234.7985924190575 70.0,236.10099022465178 70.0,237.48681378183727 69.38295222006047,238.61704777993953 69.0,239.844247333835 68.13020853161923,240.86979146838078 68.0,242.2016808858328 68.0,243.58750444301825 68.0,244.97332800020365 68.2539585017035,246.2539585017035 69.0,247.33076155220144 68.49329780985526,248.50670219014475 68.0,249.68819510419922 67.24055412141402,250.75944587858598 67.0,252.045628656197 67.0,253.4314522133824 67.0,254.8172757705678 66.14928030690469,255.85071969309533 66.0,257.1747093225656 66.39635660035,258.39635660035003 67.0,259.53214287456336 67.0,260.91796643174877 67.0,262.3037899889343 67.0,263.68961354611963 67.0,265.07543710330515 67.0,266.46126066049055 67.0,267.84708421767596 67.16469066699557,269.16469066699557 68.0,270.2045177696737 67.58256564456319,271.4174343554368 67.0,272.56195132167153 67.67017804387801,273.670178043878 68.0,274.91938487366934 67.07707826768075,275.92292173231925 67.90284696713317,276.90284696713314 68.0,278.24842842047946 68.4484838743878,279.4484838743878 69.42840910920171,280.4284091092017 70.40833434401556,281.40833434401554 71.0,282.5490819621019 71.6610780324568,283.66107803245677 72.0,284.9065155140996 72.91382172089801,285.913821720898 73.89374695571185,286.89374695571183 74.16656540933923,288.1665654093392 75.0,289.2071690557221 75.0,290.59299261290744 75.0,291.9788161700929 75.2578392238485,293.2578392238485 76.3362497220907,294.0 77.51058291228973,294.51058291228975 78.49050814710365,295.49050814710364 79.47043338191752,296.47043338191753 80.45035861673136,297.45035861673136 81.43028385154528,298.4302838515453 82.0,299.5801232533378 82.6830275399865,300.6830275399865 83.66295277480035,301.6629527748004 84.0,302.90916680014783 84.0,304.2949903573333 84.0,305.6808139145187 84.0,307.06663747170415 84.31993826175044,308.31993826175045 85.0,309.42407102370186 85.57268195019168,310.5726819501917 86.55260718500554,311.5526071850055 87.53253241981945,312.53253241981946 88.51245765463331,313.5124576546333 89.49238288944717,314.4923828894472 90.66794455494902,315.0 91.74512657788839,315.7451265778884 92.72505181270229,316.7250518127023 93.70497704751615,317.70497704751614 94.96859809657138,318.0 95.95772073595738,318.95772073595737 97.2305391895847,319.2305391895847 98.2104644243986,320.2104644243986 99.26925163819384,321.0 100.46320811283982,321.4632081128398 101.62668519019164,322.0 102.71595180128101,322.715951801281 103.98411874218944,323.0 105.36994229937486,323.0 106.53440716216306,323.53440716216306 107.51433239697691,324.5143323969769 108.49425763179077,325.4942576317908 109.67059584099728,326.0 111.05641939818267,326.0 112.44224295536812,326.0 113.58553144630008,326.5855314463001 114.56545668111393,327.5654566811139 115.54538191592783,328.54538191592786 116.74289649699048,329.0 117.79812560436908,329.7981256043691 119.0709440579964,330.07094405799637 120.0719400438006,331.0 121.45776360098606,331.0 122.84358715817145,331.0 124.16221787250572,331.1622178725057 125.14214310731957,332.14214310731955 126.0,333.1726307049815 126.39488679576078,334.3948867957608 127.53006425697927,335.0 128.64763048420204,334.352369515798 129.88749780897706,334.0 131.27332136616243,334.0 132.6591449233479,334.0 133.7389042987113,333.2610957012887 134.71882953352522,333.71882953352525 135.988188470158,334.0 137.26446644077987,334.26446644077987 138.2443916755938,334.7556083244062 139.22431691040765,334.22431691040765 140.28884201178053,335.0 141.67466556896593,335.0 142.74987905247627,335.7498790524763 144.02269750610358,336.0226975061036 145.00262274091745,337.00262274091745 145.98254797573136,337.98254797573134 146.9624732105452,338.9624732105452 147.94239844535912,338.0576015546409 149.21521689898645,338.21521689898645 150.27597265221084,339.0 151.6617962093963,339.0 153.0476197665817,339.0 154.43344332376716,339.0 155.81926688095254,339.0 156.8521276207504,339.8521276207504 157.83205285556429,340.8320528555643 159.10487130919162,340.8951286908084 160.11992042257498,340.0 161.35761499763285,339.6423850023671 162.4773539745727,339.0 163.8631775317582,339.0 165.17607035851486,339.1760703585149 166.15599559332878,339.8440044066712 167.13592082814264,339.1359208281427 168.16383107338063,340.0 169.54965463056612,340.0 170.93547818775153,340.0 172.321301744937,340.0 173.7071253021224,340.0 175.09294885930785,340.0 176.33854322234745,340.3385432223474 177.45038241130558,341.0 178.83620596849107,341.0 180.15699858322947,341.15699858322944 181.13692381804336,342.1369238180434 182.1168490528572,342.8831509471428 183.09677428767105,341.90322571232895 184.10846950492575,341.0 185.49429306211115,341.0 186.88011661929664,341.0 187.89515488336696,341.89515488336696 189.23755017129437,342.0 190.62337372847983,342.0 192.00919728566524,342.0 193.3950208428507,342.0 194.7808444000361,342.0 196.1666679572215,342.0 197.552491514407,342.0 198.66348895001252,341.3365110499875 199.90992506640478,341.0 201.29574862359016,341.0 202.68157218077553,341.0 204.0476559833353,341.0476559833353 205.03900573277332,342.0 206.30039967177655,342.3003996717765 207.39643928477113,343.0 208.78226284195654,343.0 209.82596181384508,342.1740381861549 210.80588704865892,341.1941129513411 212.11130638876668,341.0 213.49712994595208,341.0 214.62434240954093,340.37565759045907 215.85456349794987,340.0 217.16997931679563,340.1699793167956 218.14990455160952,341.1499045516095 219.18360704475992,342.0 220.0,341.4305693980546 220.0,340.04474584086915 220.24117836611882,338.75882163388115 221.22110360093276,338.22110360093274 222.0,339.28429770594096 222.67012126312642,340.0 223.7466657430013,339.2533342569987 225.01948419662864,339.01948419662864 225.99940943144256,339.9994094314426 227.27222788506987,339.72777211493013 228.35659836193437,339.0 229.74242191911978,339.0 231.09068324595188,339.0906832459519 232.07060848076583,339.9293915192342 233.05053371557966,338.94946628442034 234.03045895039358,337.96954104960645 235.01468545555454,337.0 236.40050901273995,337.0 237.78633256992543,337.0 238.82883954608943,337.82883954608945 240.14376612192322,338.0 241.37447645334413,337.62552354665587 242.50119967392095,337.0 243.88702323110644,337.0 245.19293181422614,336.80706818577386 246.17285704904006,336.1728570490401 247.21606677791658,337.0 248.60189033510207,337.0 249.98771389228747,337.0 250.2641308635494,335.7358691364506 251.34514744428526,335.0 252.73097100147075,335.0 254.08258622443145,334.91741377556855 255.06251145924534,333.93748854075466 256.0600145482808,333.0 257.44583810546624,333.0 258.58807360131397,333.58807360131397 259.5679988361278,334.5679988361278 260.7748816522764,335.0 261.0,333.8392947905382 261.38645419700975,332.61354580299025 262.5181387614597,332.0 263.9039623186451,332.0 265.28978587583055,332.0 266.67560943301595,332.0 268.04343968395995,331.95656031604005 269.0,330.9669570149862 269.29618337240123,329.70381662759877 270.3904765370115,329.0 271.5489270608424,329.5489270608424 272.0,330.7479100890093 272.80167074928374,331.80167074928374 273.7815959840976,332.7815959840976 274.76152121891147,332.23847878108853 275.7414464537253,331.2585535462747 276.7213716885392,330.2786283114608 277.99178362025657,330.0 278.9741153769805,329.0258846230195 280.2469338306078,328.7530661693922 281.3208271670666,328.0 282.70665072425203,328.0 283.77249597267644,327.22750402732356 285.0453144263038,326.9546855736962 286.03569427106225,326.0 287.4215178282476,326.0 288.807341385433,326.0 290.1931649426185,326.0 291.5789884998039,326.0 292.96481205698933,326.0 294.3506356141747,326.0 295.52075527413575,325.47924472586425 296.50068050894976,324.49931949105024 297.6796791609849,324.0 298.7534241973909,323.2465758026091 300.02624265101826,322.97375734898174 301.00872270779496,322.0 302.27898633945955,321.72101366054045 303.36615625979283,321.0 304.5317300279007,320.4682699720993 305.5116552627146,319.4883447372854 306.695199806603,319.0 308.05729216996934,318.94270783003066 309.05263335860076,318.0 310.3100358584105,317.6899641415895 311.2899610932244,316.7100389067756 312.26988632803835,315.73011367196165 313.2498115628522,314.7501884371478 314.229736797666,313.770263202334 315.2096620324799,312.7903379675201 316.26811688466006,312.0 317.4624057209212,311.5375942790788 318.0,310.37444956334207 318.0080426281758,308.9919573718242 318.9879678629897,308.0120321370103 320.3688075458411,308.0 321.75463110302667,308.0 322.0,306.8595453397879 322.3721348963125,305.6278651036875 323.35206013112634,304.64793986887366 324.3319853659402,303.6680146340598 325.3119106007542,302.6880893992458 326.0,301.5872818033532 326.0,300.2014582461678 326.8374727428226,299.1625272571774 328.11029119644996,298.88970880355004 329.0902164312639,297.9097835687361 330.0701416660778,296.9298583339222 331.0,295.929194709733 331.322885354519,294.677114645481 332.0,293.5717611577353 332.0,292.1859376005497 332.8484474965876,291.1515525034124 333.8283727314015,290.1716272685985 334.8082979662154,289.1917020337846 335.0,287.88528405892737 335.0,286.4994605017418 335.62675332709745,285.37324667290255 336.6066785619113,284.3933214380887 337.0,283.17041695493174 337.85942225035245,282.14057774964755 338.1322407039799,280.8677592960201 339.0,279.8413734081215 339.0,278.45554985093617 339.0,277.06972629375076 339.0,275.6839027365654 339.0,274.29807917937984 339.06204464455726,272.93795535544274 340.0,271.94064562738214 340.0,270.55482207019674 340.0,269.16899851301133 340.0,267.7831749558258 340.426136912694,266.573863087306 341.0,265.42574140382806 341.0,264.03991784664265 341.9516990547625,263.0483009452375 342.0,261.6824842946448 342.0,260.2966607374594 342.06304763445803,258.93695236554197 343.04297286927186,257.95702713072814 344.0,256.96761719064915 343.70428344228685,255.70428344228682 343.0,254.61018363865142 343.0,253.22436008146602 342.17872130021834,252.1787213002183 342.80120393459566,251.19879606540434 343.074022388223,249.92597761177703 344.0,248.9237065398435 344.32676607666417,247.67323392333583 345.30669131147806,246.69330868852197 345.713383453708,245.713383453708 345.0,244.62305299822097 345.5393602347332,243.4606397652668 346.0,242.26561944622327 346.0,240.87979588903787 346.0,239.49397233185232 346.0,238.10814877466694 346.0,236.72232521748154 346.0,235.33650166029616 346.0,233.95067810311076 346.0,232.56485454592521 345.4194872449939,231.41948724499392 345.0,230.2074209939275 344.1667435565527,229.16674355655272 343.1868183217389,228.18681832173885 342.2068930869249,227.20689308692488 341.93407463329754,225.93407463329757 340.9541493984837,224.95414939848368 339.9742241636698,223.97422416366982 339.0,222.99193746786804 338.72148047522853,221.72148047522853 338.0,220.63450391587014 338.0,219.24868035868474 337.19591833316,218.19591833316002 337.0,216.891246806687 337.0,215.50542324950146 337.62253702772205,214.37746297227795 338.60246226253594,213.39753773746406 339.0,212.1763797026914 339.8552059509771,211.1447940490229 341.12802440460456,210.87197559539547 342.1526638441188,210.0 343.5384874013042,210.0 344.65358654667307,209.34641345332696 345.8959209533019,209.0 347.1992234539278,208.8007765460722 348.2533545052998,208.0 349.63917806248526,208.0 351.02500161967066,208.0 352.41082517685606,208.0 353.7966487340416,208.0 354.8361341756918,207.16386582430817 356.10895262931916,206.89104737068087 357.12569228085164,206.0 358.51151583803704,206.0 359.6345147713878,205.36548522861224 360.86894939003497,205.0 362.2547729472204,205.0 363.6405965044058,205.0 364.725788585897,204.27421141410298 365.99803005640365,204.0 366.9785322743383,203.02146772566167 367.9584575091522,202.0415424908478 369.3270736032137,202.0 370.5040944164068,201.49590558359316 371.6845071552116,201.0 372.7568381048481,200.24316189515187 373.736763339662,199.263236660338 374.7166885744758,198.28331142552415 375.69661380928983,197.3033861907102 376.67653904410366,196.32346095589634 377.6564642789175,195.34353572108247 378.6363895137314,194.36361048626864 379.6163147485452,193.38368525145478 380.59623998335917,192.4037600166408 381.57616521817306,191.42383478182694 382.5560904529869,190.4439095470131 383.5360156878007,189.46398431219924 384.5159409226146,188.48405907738538 385.49586615742857,187.50413384257143 386.47579139224246,186.52420860775757 387.64448063458195,186.0 388.7285350806836,185.2714649193164 389.70846031549746,184.2915396845025 390.0,183.02647581860788 390.9612040039388,182.03879599606122 391.94112923875264,181.05887076124736 392.9210544735665,180.07894552643347 393.19387292719387,178.80612707280616 394.1737981620078,177.8262018379922 395.2173977126393,177.0 396.0,176.3967787301753 396.0,175.0109551729899 396.0,173.6251316158045 396.0,172.23930805861892 396.1036021025853,170.89639789741472 397.0835273373992,169.91647266260085 398.0,168.9102645118089 398.0,167.5244409546235 398.0,166.13861739743797 398.0,164.75279384025256 398.0,163.3669702830672 398.0,161.9811467258818 398.28614973160387,160.71385026839616 399.0,159.62371317388394 399.0,158.23788961669854 399.0,156.85206605951313 399.3774235461132,155.62257645388678 400.0,154.4946325075154 400.0,153.10880895032986 400.0,151.72298539314448 400.0,150.33716183595908 400.0,148.9513382787737 400.0,147.5655147215883 400.0,146.17969116440275 400.0,144.79386760721735 400.0,143.40804405003198 399.30860547998657,142.30860547998657 399.0,141.05061049803427 399.0,139.66478694084873 399.0,138.27896338366335 399.0,136.89313982647798 399.0,135.50731626929257 399.0,134.1214927121072 398.10598308578176,133.10598308578176 398.0,131.76405916010933 398.0,130.37823560292392 397.99463450608636,128.99463450608636 397.0147092712724,128.01470927127238 397.0,126.63497849374062 397.0,125.24915493655521 397.0,123.86333137936981 396.63054223794967,122.63054223794965 396.0,121.50589782737192 396.0,120.12007427018652 396.0,118.7342507130011 395.53926842344026,117.53926842344028 394.3768171610034,117.0 393.286524734999,116.28652473499898 392.3065995001851,115.3065995001851 392.0,114.04777361419318 391.0538558117439,113.05385581174392 390.07393057693,112.07393057693005 389.80111212330263,110.80111212330262 388.82118688848874,109.82118688848875 388.0,108.77551007775834 387.56844320004757,107.56844320004757 386.58851796523373,106.58851796523372 385.6085927304198,105.60859273041976 384.6286674956059,104.62866749560591 383.64874226079206,103.64874226079206 383.0,102.53163654651134 382.3959985723509,101.3959985723509 381.41607333753694,100.41607333753694 380.4361481027231,99.4361481027231 379.4562228679092,98.45622286790923 378.4762976330954,97.47629763309538 377.49637239828155,96.49637239828154 377.0,95.31615302045185 376.24362870984027,94.24362870984025 374.95871946845415,94.0 373.57289591126874,94.0 372.4251733489583,93.42517334895828 371.2154623592708,93.0 369.8296388020854,93.0 368.60671798807624,92.60671798807623 367.4722052500877,92.0 366.35397429963507,91.35397429963506 365.3740490648211,90.3740490648211 364.39412383000723,89.39412383000726 363.4141985951934,88.41419859519341 362.199941713653,88.0 360.81411815646766,88.0 359.4282945992821,88.0 358.04247104209674,88.0 356.65664748491133,88.0 355.2708239277259,88.0 353.8850003705405,88.0 352.64586452854786,87.64586452854786 351.52756681854265,87.0 350.3931208401067,86.39312084010668 349.17013326654495,86.0 347.78430970935955,86.0 346.398486152174,86.0 345.01266259498857,86.0 343.7361353531565,86.26386464684349 342.65522904299087,87.0 341.26940548580546,87.0 339.8835819286199,87.0 338.49775837143454,87.0 337.11193481424914,87.0 335.72611125706374,87.0 334.3402876998784,87.0 332.96780128651096,87.03219871348905 331.9828541478805,88.0 330.5970305906951,88.0 329.2112070335097,88.0 327.82538347632413,88.0 326.43955991913873,88.0 325.33089056474694,88.66910943525308 324.082126367141,89.0 323.07814687630577,89.92185312369426 321.7246928151431,90.0 320.3388692579577,90.0 318.9530457007723,90.0 317.6939798429829,90.3060201570171 316.5956121487746,91.0 315.209788591589,91.0 313.82396503440367,91.0 312.43814147721827,91.0 311.05231792003286,91.0 309.6664943628475,91.0 308.4913574487781,91.5086425512219 307.30906081084964,92.0 305.9457205415235,92.05427945847653 304.9516272588519,93.0 303.5658037016665,93.0 302.17998014448096,93.0 300.7941565872955,93.0 299.58162827338674,93.41837172661323 298.4367230352978,94.0 297.32888458494557,94.67111541505442 296.3489593501316,95.65104064986838 295.3690341153178,96.63096588468224 294.3891088805039,97.61089111949609 293.40918364569006,98.59081635430995 292.4292584108762,99.5707415891238 291.4493331760622,100.55066682393777 290.4694079412484,101.53059205875162 289.2780195196137,102.0 287.8921959624283,102.0 286.50637240524287,102.0 285.1205488480573,102.0 284.10531567311165,102.89468432688832 282.7631152960596,103.0 281.3772917388742,103.0 279.99146818168873,103.0 278.6056446245032,103.0 277.4483301861615,102.44833018616151 276.24821107250546,102.0 274.9026932789069,101.90269327890688 273.89077752050775,101.0 272.6499495904656,100.64994959046558 272.0,99.53334396850985 271.1475204113244,99.0 269.8314942295836,98.83149422958363 268.7900868593267,98.0 267.40426330214115,98.0 266.01843974495574,98.0 265.0331136338877,97.0331136338877 263.66100619295804,97.0 262.2751826357727,97.0 260.8893590785871,97.0 259.5035355214018,97.0 258.11771196421637,97.0 257.10330969331034,96.10330969331032 255.83049123968289,96.1695087603171 254.78866841740617,97.0 253.40284486022077,97.0 252.30492909761438,97.69507090238561 251.04541130822304,98.0 249.6595877510375,98.0 248.4864737367323,98.51352626326768 247.50654850191845,98.50654850191845 246.33054420422744,98.0 244.9609115946638,97.96091159466381 243.97311065222956,97.0 242.58728709504413,97.0 241.20146353785873,97.0 240.16253099896787,97.83746900103212 238.88971254534056,98.11028745465944 237.87241999104853,99.0 236.48659643386313,99.0 235.10077287667772,99.0 233.79843873083118,99.20156126916883 232.74333932468,100.0 231.54569504238987,100.45430495761013 230.565769807576,101.434230192424 229.58584457276214,101.58584457276213 229.0,100.44268578305747 228.05686222587207,100.0 226.6710386686865,100.0 225.2852151115011,100.0 223.92885908581198,99.92885908581198 223.0,98.92778155950336 222.67611539737078,97.6761153973708 222.0,96.57034800750547 222.0,95.18452445032007 221.15055325530219,94.15055325530217 221.0,92.82709089832234 221.0,91.44126734113694 220.33209789442012,90.3320978944201 220.0,89.08383378913905 219.78646098716547,87.78646098716547 219.0,86.72640023714132 219.0,85.34057667995592 218.9680056262834,83.9680056262834 218.0,82.98314312795803 218.0,81.59731957077263 218.0,80.21149601358721 217.16962503058758,79.16962503058757 217.0,77.85406246158935 217.0,76.46823890440398 217.0,75.0824153472186 217.0,73.69659179003322 217.0,72.31076823284785 216.2398210900101,71.2398210900101 216.0,69.95333468084999 216.0,68.5675111236646 216.0,67.18168756647921 216.0,65.79586400929382 216.0,64.41004045210828 216.0,63.024216894922894 216.0,61.638393337737504 216.52851297663537,60.471487023364645 217.0,59.28095978573979 217.0,57.89513622855422 217.0,56.50931267136882 217.0,55.12348911418341 217.1854984635855,53.81450153641449 218.0,52.76605556218568 218.0,51.38023200500012 218.0,49.994408447814706 218.2767722780949,48.723227721905104 219.0,47.63697489581698 219.0,46.251151338631416 219.8023344201635,45.19766557983648 220.0,43.89371778663369 220.0,42.50789422944828 220.62078978104546,41.379210218954526 221.0,40.1504606774504 220.12646653051323,39.12646653051323 220.0,37.79302712545267 219.58082962325858,36.58082962325859 218.60090438844472,35.60090438844472 217.46398357864246,35.0 216.07816002145705,35.0 214.78244902756265,34.782449027562656 213.72072646945932,34.0 212.52970533912148,34.47029466087854 211.36329291746145,35.0 209.97746936027605,35.0 208.59164580309064,35.0 207.2058222459052,35.0 205.87271985217131,35.12728014782869 204.84838869390734,36.0 203.46256513672193,36.0 202.07674157953653,36.0 200.69091802235113,36.0 199.3050944651657,36.0 198.23580913040718,35.235809130407176 196.94766091316782,35.0 195.56183735598242,35.0 194.41735376952522,34.41735376952522 193.2044038039847,34.0 191.81858024679912,34.0 190.4327566896137,34.0 189.32607995501584,33.326079955015835 188.07532313761598,33.0 186.68949958043058,33.0 185.303676023245,33.0 183.941912921693,32.941912921692996 182.9462424712473,32.0 181.5604189140619,32.0 180.17459535687652,32.0 178.78877179969098,32.0 177.40294824250557,32.0 176.0171246853202,32.0 174.63130112813482,32.0 173.24547757094942,32.0 172.19365362023356,31.193653620233565 170.88804401895155,31.0 169.50222046176614,31.0 168.11639690458077,31.0 166.73057334739536,31.0 165.34474979020982,31.0 163.9589262330244,31.0 162.573102675839,31.0 161.1872791186536,31.0 159.80145556146823,31.0 158.41563200428266,31.0 157.02980844709725,31.0 155.64398488991188,31.0 154.25816133272647,31.0 152.87233777554093,31.0 151.6369107217563,30.63691072175631 150.5149042235432,30.0 149.1290806663578,30.0 148.1113485796878,29.1113485796878 146.7716471143599,29.0 145.3858235571745,29.0 144.0,29.0 "/></svg>