<svg xmlns="http://www.w3.org/2000/svg" width="413" height="355" viewBox="0 0 413 355"><path d="M 144 29 L 143 30 L 138 30 L 137 31 L 135 31 L 134 32 L 133 32 L 132 33 L 131 33 L 129 35 L 128 35 L 126 37 L 126 38 L 125 39 L 125 40 L 121 44 L 120 44 L 117 47 L 116 47 L 111 52 L 110 52 L 106 56 L 106 57 L 101 62 L 101 63 L 97 67 L 97 68 L 95 70 L 95 71 L 92 74 L 92 75 L 90 77 L 89 77 L 87 79 L 86 79 L 85 80 L 84 80 L 83 81 L 82 81 L 78 85 L 78 88 L 82 92 L 83 92 L 95 104 L 95 105 L 99 109 L 99 110 L 101 112 L 101 113 L 102 114 L 102 115 L 104 117 L 104 119 L 105 120 L 105 122 L 104 123 L 103 122 L 102 122 L 100 120 L 97 120 L 95 118 L 93 118 L 92 117 L 92 116 L 90 114 L 89 114 L 88 113 L 86 113 L 85 112 L 84 112 L 83 111 L 82 111 L 81 110 L 79 110 L 78 109 L 77 109 L 76 108 L 75 108 L 74 107 L 73 108 L 72 108 L 71 109 L 70 109 L 69 108 L 68 109 L 67 108 L 64 108 L 63 109 L 49 109 L 48 110 L 42 110 L 41 111 L 40 111 L 38 113 L 36 113 L 35 114 L 34 114 L 33 115 L 31 115 L 29 117 L 28 117 L 27 118 L 27 119 L 24 122 L 23 122 L 19 126 L 18 126 L 17 127 L 17 128 L 16 129 L 16 130 L 15 131 L 15 136 L 13 138 L 13 139 L 11 141 L 11 143 L 10 144 L 10 145 L 9 146 L 9 156 L 10 157 L 10 158 L 9 159 L 9 168 L 10 169 L 10 175 L 11 176 L 11 177 L 13 179 L 13 180 L 15 182 L 15 183 L 16 184 L 16 186 L 21 191 L 22 191 L 24 193 L 24 194 L 26 196 L 27 196 L 32 201 L 33 201 L 35 203 L 36 203 L 38 205 L 39 205 L 40 206 L 41 206 L 42 207 L 43 207 L 44 208 L 45 208 L 47 210 L 48 210 L 49 211 L 50 211 L 51 212 L 52 212 L 53 213 L 55 213 L 58 216 L 59 216 L 60 217 L 61 217 L 62 218 L 62 219 L 66 219 L 67 220 L 72 220 L 73 221 L 73 227 L 72 228 L 72 230 L 71 231 L 71 234 L 70 235 L 70 238 L 69 239 L 69 240 L 68 241 L 68 246 L 69 247 L 69 248 L 68 249 L 68 250 L 67 251 L 67 255 L 66 256 L 66 258 L 67 259 L 67 269 L 68 270 L 68 271 L 67 272 L 67 273 L 68 274 L 68 275 L 67 276 L 68 277 L 68 279 L 71 282 L 71 283 L 72 284 L 72 285 L 74 287 L 74 288 L 75 289 L 75 293 L 76 294 L 77 294 L 82 299 L 82 300 L 84 302 L 84 308 L 85 309 L 85 310 L 90 315 L 91 315 L 94 318 L 95 318 L 96 319 L 97 319 L 99 321 L 100 321 L 101 322 L 102 322 L 103 323 L 106 323 L 109 326 L 113 326 L 116 329 L 117 329 L 118 330 L 119 330 L 120 331 L 124 331 L 126 333 L 126 334 L 127 335 L 128 335 L 129 334 L 133 334 L 134 333 L 135 334 L 137 334 L 138 335 L 139 334 L 140 335 L 142 335 L 143 336 L 144 336 L 147 339 L 148 338 L 149 338 L 150 339 L 156 339 L 158 341 L 159 341 L 160 340 L 161 340 L 162 339 L 165 339 L 166 340 L 167 339 L 168 340 L 176 340 L 177 341 L 180 341 L 182 343 L 184 341 L 187 341 L 188 342 L 198 342 L 199 341 L 204 341 L 205 342 L 206 342 L 207 343 L 209 343 L 211 341 L 214 341 L 215 340 L 217 340 L 219 342 L 220 342 L 220 339 L 221 338 L 222 339 L 222 340 L 223 340 L 224 339 L 225 339 L 226 340 L 227 340 L 228 339 L 231 339 L 232 340 L 235 337 L 238 337 L 239 338 L 241 338 L 242 337 L 245 337 L 246 336 L 247 337 L 250 337 L 250 336 L 251 335 L 254 335 L 256 333 L 258 333 L 260 335 L 261 335 L 261 333 L 262 332 L 268 332 L 269 331 L 269 330 L 270 329 L 271 329 L 272 330 L 272 331 L 274 333 L 277 330 L 278 330 L 279 329 L 280 329 L 281 328 L 283 328 L 284 327 L 285 327 L 286 326 L 295 326 L 297 324 L 298 324 L 299 323 L 300 323 L 301 322 L 302 322 L 303 321 L 304 321 L 306 319 L 308 319 L 309 318 L 310 318 L 316 312 L 317 312 L 318 311 L 318 309 L 319 308 L 322 308 L 322 306 L 326 302 L 326 300 L 327 299 L 328 299 L 331 296 L 331 295 L 332 294 L 332 292 L 335 289 L 335 286 L 337 284 L 337 283 L 338 282 L 338 281 L 339 280 L 339 273 L 340 272 L 340 267 L 341 266 L 341 264 L 342 263 L 342 259 L 344 257 L 344 256 L 343 255 L 343 253 L 342 252 L 343 251 L 343 250 L 344 249 L 344 248 L 346 246 L 345 245 L 345 244 L 346 243 L 346 232 L 345 231 L 345 230 L 342 227 L 342 226 L 339 223 L 339 222 L 338 221 L 338 219 L 337 218 L 337 215 L 339 213 L 339 212 L 340 211 L 341 211 L 342 210 L 344 210 L 345 209 L 347 209 L 348 208 L 354 208 L 355 207 L 356 207 L 357 206 L 359 206 L 360 205 L 364 205 L 365 204 L 366 204 L 368 202 L 370 202 L 371 201 L 372 201 L 387 186 L 388 186 L 390 184 L 390 183 L 393 180 L 393 179 L 395 177 L 396 177 L 396 171 L 398 169 L 398 161 L 399 160 L 399 156 L 400 155 L 400 143 L 399 142 L 399 134 L 398 133 L 398 129 L 397 128 L 397 123 L 396 122 L 396 118 L 395 117 L 394 117 L 392 115 L 392 114 L 390 112 L 390 111 L 388 109 L 388 108 L 383 103 L 383 102 L 377 96 L 377 95 L 376 94 L 373 94 L 372 93 L 369 93 L 368 92 L 367 92 L 363 88 L 353 88 L 352 87 L 351 87 L 350 86 L 344 86 L 343 87 L 333 87 L 332 88 L 326 88 L 325 89 L 324 89 L 323 90 L 318 90 L 317 91 L 309 91 L 308 92 L 306 92 L 305 93 L 300 93 L 299 94 L 298 94 L 290 102 L 285 102 L 284 103 L 278 103 L 277 102 L 275 102 L 274 101 L 273 101 L 272 100 L 272 99 L 270 99 L 269 98 L 266 98 L 265 97 L 258 97 L 257 96 L 256 96 L 255 97 L 253 97 L 252 98 L 249 98 L 248 99 L 247 98 L 245 98 L 244 97 L 241 97 L 240 98 L 239 98 L 238 99 L 234 99 L 233 100 L 232 100 L 230 102 L 229 101 L 229 100 L 224 100 L 223 99 L 223 98 L 222 97 L 222 95 L 221 94 L 221 91 L 220 90 L 220 88 L 219 87 L 219 84 L 218 83 L 218 80 L 217 79 L 217 72 L 216 71 L 216 61 L 217 60 L 217 54 L 218 53 L 218 49 L 219 48 L 219 46 L 220 45 L 220 42 L 221 41 L 221 40 L 220 39 L 220 37 L 218 35 L 215 35 L 214 34 L 213 34 L 212 35 L 206 35 L 205 36 L 199 36 L 198 35 L 195 35 L 194 34 L 190 34 L 189 33 L 184 33 L 183 32 L 173 32 L 172 31 L 152 31 L 151 30 L 149 30 L 148 29 Z" fill="black" stroke="none" /></svg>