<svg xmlns="http://www.w3.org/2000/svg" version="1.1">
<path d="M 0.0,0.0 0.7717957957957958,1.2709498313748636e-72 1.5435915915915916,3.391460524016165e-75 2.3153873873873874,-1.2692439267312835e-72 3.0871831831831833,-1.352514456977298e-74 3.8589789789789792,3.800887975972725e-72 4.630774774774775,7.085455638406316e-74 5.402570570570571,-1.3918732385461695e-71 6.174366366366367,-3.5027208187453196e-73 6.946162162162162,5.181651498038987e-71 7.7179579579579585,1.6306317549529596e-72 8.489753753753753,-1.931314740754755e-70 9.26154954954955,-7.289825403001936e-72 10.033345345345346,7.198985814897623e-70 10.80514114114114,3.1684972585634413e-71 11.576936936936937,-2.683417238618519e-69 12.348732732732731,-1.3490708345670856e-70 13.120528528528528,1.0002330787347076e-68 13.892324324324324,5.654264506120227e-70 14.664120120120122,-3.728294055750466e-68 15.435915915915917,-2.340570790267846e-69 16.20771171171171,1.3896807018013808e-67 16.979507507507506,9.59184064581002e-69 17.751303303303303,-5.1798336702510736e-67 18.523099099099102,-3.898318536463648e-68 19.294894894894895,1.9306898758749664e-66 20.066690690690688,1.5733507560369983e-67 20.838486486486488,-7.196231714465151e-66 21.610282282282284,-6.312416931163087e-67 22.382078078078077,2.6822155185778687e-65 23.153873873873874,2.5196699306870674e-66 23.925669669669674,-9.997193831690545e-65 24.697465465465466,-1.001282080076224e-65 25.46926126126126,3.726133933185406e-64 26.241057057057056,3.963407811925442e-65 27.012852852852856,-1.3887840312614537e-63 27.78464864864865,-1.5634177341235238e-64 28.556444444444445,5.176150181737084e-63 29.328240240240245,6.148060438450123e-64 30.100036036036038,-1.9291896414286178e-62 30.87183183183183,-2.410992332631761e-63 31.643627627627627,7.190165213905222e-62 32.41542342342342,9.431173651195789e-63 33.18721921921922,-2.67977733840002e-61 33.95901501501501,-3.680857850102979e-62 34.73081081081081,9.987445899986304e-61 35.50260660660661,1.4336179287958317e-61 36.27440240240241,-3.7222544286407416e-60 37.046198198198205,-5.573080993358471e-61 37.817993993993994,1.3872462297495558e-59 38.58978978978978,2.162728227117646e-60 39.36158558558558,-5.170076031979702e-59 40.13338138138138,-8.37939020784858e-60 40.90517717717718,1.926797978805071e-58 41.67697297297298,3.2417480415066214e-59 42.44876876876877,-7.18077478457566e-58 43.22056456456456,-1.2524178477284141e-58 43.99236036036035,2.676099750821853e-57 44.764156156156155,4.8324151192596055e-58 45.53595195195196,-9.973076569160024e-57 46.307747747747754,-1.862352156565242e-57 47.079543543543544,3.716651747146198e-56 47.85133933933934,7.169285143224347e-57 48.62313513513513,-1.3850659132352648e-55 49.39493093093093,-2.7570017342623757e-56 50.166726726726736,5.1616061754760584e-55 50.938522522522526,1.0591883438546648e-55 51.71031831831832,-1.9235130497446862e-54 52.48211411411411,-4.065459618094576e-55 53.25390990990991,7.168053733262807e-54 54.025705705705704,1.5590841230172125e-54 54.7975015015015,-2.6711803204269944e-53 55.569297297297304,-5.974121657252482e-54 56.34109309309309,9.954076983837593e-53 57.11288888888888,2.2874026944217926e-53 57.884684684684686,-3.709322671198841e-52 58.65648048048049,-8.75171422469862e-53 59.42827627627628,1.382241913588768e-51 60.20007207207208,3.346124134290706e-52 60.971867867867864,-5.150736374786235e-51 61.74366366366367,-1.2785114573643543e-51 62.515459459459464,1.9193333184475565e-50 63.28725525525525,4.881968373390623e-51 64.05905105105106,-7.151996498866245e-50 64.83084684684684,-1.8630570165439649e-50 65.60264264264264,2.6650170355491883e-49 66.37443843843845,7.105756806101882e-50 67.14623423423423,-9.930439874731992e-49 67.91803003003002,-2.708687260668275e-49 68.68982582582582,3.700264576961287e-48 69.46162162162162,1.0320061416862557e-48 70.23341741741743,-1.3787732848854617e-47 71.00521321321321,-3.9299810169847244e-48 71.777009009009,5.137463224165586e-47 72.5488048048048,1.4958656991607996e-47 73.3206006006006,-1.9142575604083147e-46 74.09239639639641,-5.691115226202309e-47 74.8641921921922,7.132598685421246e-46 75.63598798798797,2.1642772094200374e-46 76.40778378378378,-2.6576083206147606e-45 77.17957957957957,-8.227099375918006e-46 77.95137537537536,9.902159604777461e-45 78.72317117117117,3.1261233777776217e-45 79.49496696696697,-3.689475451505174e-44 80.26676276276275,-1.1874019177967735e-44 81.03855855855856,1.3746593098509894e-43 81.81035435435435,4.508457706856398e-44 82.58215015015016,-5.121784173653774e-43 83.35394594594595,-1.7112083094900116e-43 84.12574174174175,1.908284871420066e-42 84.89753753753753,6.4927407363182305e-43 85.66933333333333,-7.109857095751463e-42 86.44112912912911,-2.4626852507230538e-42 87.21292492492492,2.6489530487214605e-41 87.98472072072072,9.337927691357599e-42 88.75651651651653,-9.86923221614292e-41 89.5283123123123,-3.539628389780412e-41 90.3001081081081,3.6769539103834955e-40 91.0719039039039,1.3413279310515606e-40 91.8436996996997,-1.3698995064291285e-39 92.6154954954955,-5.081439287497984e-40 93.3872912912913,5.103697553623526e-39 94.15908708708707,1.9244964401110492e-39 94.93088288288288,-1.9014146767496137e-38 95.70267867867867,-7.286685138612027e-39 96.47447447447448,7.08376976576434e-38 97.24627027027026,2.758221570261966e-38 98.01806606606607,-2.6390505544561928e-37 98.78986186186185,-1.04380196393999e-37 99.56165765765766,9.831655478141082e-37 100.33345345345346,3.949119480140445e-37 101.10524924924924,-3.662699215536792e-36 101.87704504504504,-1.493753302815628e-36 102.64884084084085,1.3644936344746074e-35 103.42063663663663,5.648810626622744e-36 104.19243243243244,-5.083202599795597e-35 104.96422822822821,-2.1356871636662388e-35 105.73602402402402,1.893646740487022e-34 106.50781981981982,8.072788378111386e-35 107.27961561561561,-7.054335999394756e-34 108.05141141141142,-3.0508264916980196e-34 108.82320720720722,2.627900646956254e-33 109.59500300300299,1.1527152718448424e-33 110.36679879879878,-9.789428936045465e-33 111.1385945945946,-4.35451369013516e-33 111.9103903903904,3.6467112935394536e-32 112.68218618618619,1.6446471024451446e-32 113.45398198198197,-1.3584417025725647e-31 114.22577777777776,-6.210456401797814e-32 114.99757357357358,5.060299478727241e-31 115.76936936936939,2.3447374833097536e-31 116.54116516516518,-1.8849811750725808e-30 117.31296096096096,-8.850890146029304e-31 118.08475675675675,7.021556404213088e-30 118.85655255255254,3.3404402460327644e-30 119.62834834834835,-2.615503623217372e-29 120.40014414414415,-1.2605104088800277e-29 121.17193993993996,9.742553960830504e-29 121.94373573573573,4.755727937738092e-29 122.71553153153152,-3.628990754189577e-28 123.48732732732732,-1.7939783543567679e-28 124.25912312312312,1.3517439749869644e-27 125.03091891891893,6.766261126890304e-28 125.8027147147147,-5.034989313782098e-27 126.5745105105105,-2.5516043426078596e-27 127.3463063063063,1.8754184510025215e-26 128.1181021021021,9.620829916810794e-27 128.8898978978979,-6.985432927701516e-26 129.66169369369368,-3.627002985464018e-26 130.4334894894895,2.6018602816526168e-25 131.20528528528527,1.3671650624498185e-25 131.97708108108108,-9.691033799848542e-25 132.74887687687686,-5.152679037020522e-25 133.52067267267267,3.6095389094509206e-24 134.29246846846846,1.9417160452849767e-24 135.06426426426424,-1.3444009787397353e-23 135.83606006006005,-7.316109179236228e-24 136.60785585585586,5.0072742115892605e-23 137.37965165165167,2.756244635699681e-23 138.15144744744745,-1.864959406718616e-22 138.92324324324323,-1.0382446986155093e-22 139.69503903903905,6.945968894214972e-22 140.46683483483483,3.91045479762109e-22 141.23863063063064,-2.5869719359063963e-21 142.01042642642645,-1.4726568966596376e-21 142.7822222222222,9.634873628458867e-21 143.554018018018,5.5452837180898186e-21 144.3258138138138,-3.588357792747807e-20 145.0976096096096,-2.087829131742759e-20 145.8694054054054,1.3364135108227787e-19 146.64120120120117,7.859884827547107e-20 147.41299699699698,-4.97715728899657e-19 148.18479279279282,-2.9586152177444764e-19 148.9565885885886,1.85360525868202e-18 149.72838438438438,1.1135580510100269e-18 150.50018018018017,-6.90316904263307e-18 151.27197597597595,-4.190735720183843e-18 152.04377177177176,2.570840428926871e-17 152.81556756756757,1.5769635577861727e-17 153.58736336336335,-9.574080602624841e-17 154.35915915915913,-5.933458647547467e-17 155.13095495495494,3.565450178624126e-16 155.90275075075078,2.2322865476787524e-16 156.67454654654657,-1.3277826455449056e-15 157.44634234234235,-8.397472260561191e-16 158.21813813813816,4.944642700531748e-15 158.98993393393394,3.1586729156401567e-15 159.76172972972975,-1.841357611635898e-14 160.53352552552553,-1.1880069545141245e-14 161.30532132132126,6.857039564716692e-14 162.07711711711707,4.467785755893824e-14 162.84891291291316,-2.5534681473013376e-13 163.62070870870886,-1.6800626798940993e-13 164.39250450450353,9.508663912488568e-13 165.16430030029966,6.317120449511584e-13 165.93609609609962,-3.540819602766573e-12 166.7078918918943,-2.3750572123403947e-12 167.4796876876745,1.3185097420157474e-11 168.25148348347457,8.92875561647225e-12 169.02327927932836,-4.9097356663707056e-11 169.79507507510863,-3.3563745390306667e-11 170.56687087068804,1.8282184690598057e-10 171.3386666665405,1.2615753089403331e-10 172.11046246314322,-6.807588144178268e-10 172.8822582587324,-4.741544887963687e-10 173.65405405151918,2.5348580358588775e-09 174.42584984806794,1.781931890600681e-09 175.19764565508427,-9.438634836949583e-09 175.96944144813764,-6.69618572718505e-09 176.74123720209252,3.514470382401971e-08 177.51303300787194,2.516110038344913e-08 178.28482895968847,-1.3085964517691205e-07 179.0566247191608,-9.45361901311875e-08 179.82841993317618,4.872442500829996e-07 180.60021586104853,3.5516768916077893e-07 181.37201382620225,-1.8141902438169876e-06 182.1438091420548,-1.334247012492645e-06 182.9155968487796,6.754823996477889e-06 183.68739438744626,5.011953095893105e-06 184.4592203453313,-2.5150136125428368e-05 185.23100981647917,-1.882548816994885e-05 186.00269314671883,9.364006799249096e-05 186.77451187687174,7.070571084994576e-05 187.54672701914205,-0.00034864076370721487 188.31843971556816,-0.0002655413939962102 189.08867192524343,0.0012980447265269722 189.86076857110785,0.0009971946578972348 190.63839433220295,-0.004832770641385204 191.40910189414004,-0.003744536782699929 192.13872868628465,0.038424466868496404 192.67621940751073,0.2727295414382494 192.845719505226,0.8750252395187533 192.77695366574181,1.7155868747987408 192.73196140746344,2.5323749288728856 192.7503359078806,3.285796224251525 192.76244060301195,4.045487324916014 192.75753098634326,4.822192737380474 192.7542744031404,5.597245116379085 192.75558620669202,6.367729108623308 192.756462325083,7.138648786028084 192.75611183227545,7.91079507463146 192.7558761343569,8.68282656834582 192.75596977802664,9.454528720471872 192.75603318559018,10.226261108704126 192.7560081667795,10.998081923310552 192.75599110914567,11.769894776740221 192.75599779325788,12.541683888423808 192.75600238195028,13.313475095527158 192.75600059624597,14.085272677027296 192.7559993618583,14.857069707210767 192.75599983890842,15.628865025956454 192.75600017096087,16.400660489699753 192.75600004352052,17.17245641293591 192.75599995419935,17.94425229805291 192.7559999882432,18.71604805980484 192.7560000122699,19.48784383157393 192.75600000317587,20.259639636463785 192.75599999671294,21.03143543872251 192.75599999914215,21.803231232089068 192.7560000008806,22.575027026146433 192.7560000002317,23.346822822591133 192.7559999997641,24.11861861885451 192.75599999993742,24.89041441447701 192.7560000000632,25.662210210147016 192.75600000001688,26.434006005989087 192.7559999999831,27.20580180181874 192.75599999999542,27.977597597602152 192.75600000000452,28.749393393388875 192.75600000000122,29.521189189187954 192.75599999999878,30.29298498498618 192.75599999999966,31.064780780781117 192.7560000000003,31.83657657657624 192.7560000000001,32.608372372372294 192.75599999999991,33.38016816816825 192.756,34.15196396396397 192.75600000000003,34.92375975975974 192.756,35.69555555555553 192.756,36.46735135135137 192.756,37.23914714714714 192.756,38.01094294294292 192.756,38.78273873873874 192.756,39.554534534534525 192.756,40.32633033033034 192.756,41.09812612612612 192.756,41.86992192192194 192.756,42.641717717717725 192.756,43.4135135135135 192.756,44.18530930930932 192.756,44.95710510510509 192.756,45.72890090090092 192.756,46.5006966966967 192.756,47.272492492492475 192.756,48.0442882882883 192.756,48.816084084084075 192.756,49.5878798798799 192.756,50.359675675675675 192.756,51.13147147147145 192.756,51.903267267267275 192.756,52.67506306306305 192.756,53.446858858858874 192.756,54.21865465465466 192.756,54.99045045045043 192.756,55.76224624624625 192.756,56.53404204204203 192.756,57.30583783783784 192.756,58.077633633633624 192.756,58.849429429429414 192.756,59.62122522522523 192.756,60.39302102102101 192.756,61.16481681681683 192.756,61.9366126126126 192.756,62.70840840840838 192.756,63.48020420420421 192.756,64.25199999999998 192.756,65.0237957957958 192.756,65.79559159159157 192.756,66.56738738738736 192.756,67.33918318318318 192.756,68.11097897897898 192.756,68.88277477477479 192.756,69.65457057057056 192.756,70.42636636636638 192.756,71.19816216216215 192.756,71.96995795795794 192.756,72.74175375375377 192.756,73.51354954954955 192.756,74.28534534534536 192.756,75.05714114114114 192.756,75.82893693693691 192.756,76.60073273273274 192.756,77.3725285285285 192.756,78.14432432432433 192.756,78.91612012012013 192.756,79.6879159159159 192.756,80.4597117117117 192.756,81.23150750750749 192.756,82.00330330330331 192.756,82.7750990990991 192.756,83.54689489489489 192.756,84.3186906906907 192.756,85.09048648648647 192.756,85.8622822822823 192.756,86.63407807807806 192.756,87.40587387387384 192.756,88.17766966966968 192.756,88.94946546546547 192.756,89.72126126126126 192.756,90.49305705705706 192.756,91.26485285285287 192.756,92.03664864864865 192.756,92.80844444444442 192.756,93.58024024024024 192.756,94.35203603603604 192.756,95.12383183183185 192.756,95.89562762762762 192.756,96.6674234234234 192.756,97.43921921921923 192.756,98.21101501501501 192.756,98.98281081081085 192.756,99.75460660660661 192.756,100.52640240240238 192.756,101.29819819819821 192.756,102.06999399399398 192.756,102.8417897897898 192.756,103.61358558558558 192.756,104.38538138138136 192.756,105.15717717717719 192.756,105.92897297297297 192.756,106.70076876876878 192.756,107.47256456456456 192.756,108.24436036036033 192.756,109.01615615615616 192.756,109.78795195195195 192.756,110.55974774774776 192.756,111.33154354354353 192.756,112.10333933933931 192.756,112.87513513513514 192.756,113.6469309309309 192.756,114.41872672672673 192.756,115.19052252252251 192.756,115.96231831831831 192.756,116.73411411411412 192.756,117.50590990990989 192.756,118.27770570570571 192.756,119.04950150150148 192.756,119.8212972972973 192.756,120.5930930930931 192.756,121.36488888888888 192.756,122.13668468468468 192.756,122.90848048048048 192.756,123.68027627627629 192.756,124.45207207207207 192.756,125.22386786786784 192.756,125.99566366366366 192.756,126.76745945945946 192.756,127.53925525525527 192.756,128.31105105105107 192.756,129.08284684684682 192.756,129.85464264264263 192.756,130.6264384384384 192.756,131.39823423423425 192.756,132.17003003003 192.756,132.9418258258258 192.756,133.71362162162163 192.756,134.48541741741744 192.756,135.25721321321325 192.756,136.029009009009 192.756,136.80080480480478 192.756,137.5726006006006 192.756,138.34439639639638 192.756,139.11619219219222 192.756,139.88798798798797 192.756,140.6597837837838 192.756,141.43157957957956 192.756,142.20337537537534 192.756,142.97517117117118 192.756,143.74696696696697 192.756,144.51876276276278 192.756,145.29055855855856 192.756,146.06235435435434 192.756,146.83415015015015 192.756,147.60594594594593 192.756,148.37774174174174 192.756,149.14953753753753 192.756,149.92133333333334 192.756,150.69312912912915 192.756,151.4649249249249 192.756,152.23672072072074 192.756,153.00851651651652 192.756,153.7803123123123 192.756,154.55210810810811 192.756,155.3239039039039 192.756,156.0956996996997 192.756,156.8674954954955 192.75600000000003,157.63929129129127 192.75599999999997,158.41108708708705 192.75599999999994,159.1828828828828 192.75600000000009,159.95467867867876 192.75600000000014,160.72647447447466 192.75599999999963,161.4982702702699 192.75599999999943,162.2700660660655 192.7560000000013,163.04186186186317 192.7560000000021,163.8136576576598 192.75599999999514,164.5854534534486 192.7559999999921,165.3572492492413 192.75600000001813,166.12904504506318 192.75600000002962,166.90084084087044 192.7559999999326,167.67263663656925 192.75599999988927,168.4444324323217 192.75600000025045,169.2162282284787 192.75600000041413,169.98802402443815 192.75599999906893,170.75981981888873 192.75599999845127,171.5316156140669 192.75600000346077,172.3034114148722 192.75600000579166,173.07520721299892 192.7559999871364,173.84700299013937 192.7559999783417,174.61879877714048 192.75600004781305,175.39059464240765 192.7560000809909,176.1623904713813 192.75599982228619,176.93418600847238 192.75599969714173,177.7059816791237 192.75600066052266,178.4777784383004 192.75600113248873,179.2495747060623 192.75599754503173,180.02136691440106 192.75599576532812,180.79316093049331 192.7560091242173,181.56497008517826 192.75601583423622,182.33677259099292 192.75596608929067,183.10851864184323 192.7559407939601,183.88028914230844 192.7561260287391,184.65227017288325 192.75622137394552,185.42416131388543 192.75553162498824,186.19526736072393 192.75517228914293,186.96670382067444 192.757740640955,187.74106796828232 192.75909472817398,188.5142178512971 192.7495313153704,189.27645023428934 192.74442934002388,190.04314405473863 192.7800388674834,190.85054937799393 192.79925990628175,191.64156621258803 192.6545611104773,192.2686632125794 192.2686632125794,192.65456111047735 191.64156621258806,192.79925990628175 190.85054937799393,192.7800388674834 190.0431440547386,192.74442934002386 189.27645023428937,192.7495313153704 188.51421785129708,192.75909472817398 187.7410679682823,192.757740640955 186.96670382067447,192.75517228914296 186.19526736072396,192.75553162498824 185.4241613138855,192.75622137394552 184.6522701728832,192.7561260287391 183.88028914230844,192.75594079396012 183.10851864184323,192.75596608929067 182.33677259099298,192.7560158342362 181.56497008517832,192.75600912421731 180.79316093049326,192.75599576532812 180.02136691440109,192.75599754503173 179.24957470606233,192.75600113248873 178.47777843830048,192.75600066052266 177.70598167912374,192.75599969714173 176.93418600847235,192.75599982228619 176.1623904713813,192.75600008099093 175.39059464240762,192.75600004781302 174.6187987771405,192.7559999783417 173.84700299013943,192.75599998713636 173.07520721299883,192.75600000579166 172.30341141487216,192.75600000346077 171.5316156140669,192.7559999984513 170.7598198188888,192.75599999906896 169.98802402443818,192.7560000004141 169.21622822847868,192.75600000025048 168.44443243232166,192.75599999988924 167.67263663656928,192.75599999993264 166.90084084087047,192.7560000000296 166.1290450450632,192.7560000000181 165.3572492492413,192.7559999999921 164.58545345344857,192.75599999999514 163.81365765765977,192.75600000000213 163.04186186186317,192.75600000000134 162.27006606606554,192.75599999999943 161.49827027026993,192.75599999999966 160.72647447447463,192.75600000000014 159.9546786786788,192.75600000000009 159.1828828828829,192.75599999999997 158.4110870870871,192.75599999999997 157.6392912912913,192.75600000000003 156.86749549549552,192.75600000000003 156.0956996996997,192.756 155.32390390390393,192.756 154.55210810810806,192.756 153.78031231231228,192.756 153.0085165165165,192.756 152.23672072072074,192.756 151.46492492492496,192.756 150.6931291291291,192.756 149.9213333333333,192.756 149.14953753753753,192.756 148.37774174174177,192.756 147.605945945946,192.756 146.83415015015012,192.756 146.06235435435434,192.756 145.29055855855856,192.756 144.51876276276275,192.756 143.746966966967,192.756 142.97517117117116,192.756 142.20337537537534,192.756 141.4315795795796,192.756 140.6597837837838,192.756 139.88798798798803,192.756 139.11619219219216,192.756 138.34439639639638,192.756 137.5726006006006,192.756 136.80080480480484,192.756 136.02900900900906,192.756 135.25721321321313,192.756 134.48541741741738,192.756 133.71362162162163,192.756 132.94182582582587,192.756 132.17003003003006,192.756 131.3982342342342,192.756 130.62643843843844,192.756 129.85464264264266,192.756 129.08284684684688,192.756 128.3110510510511,192.756 127.53925525525523,192.756 126.76745945945945,192.756 125.99566366366366,192.756 125.22386786786788,192.756 124.45207207207211,192.756 123.68027627627625,192.756 122.90848048048048,192.756 122.1366846846847,192.756 121.36488888888891,192.756 120.59309309309315,192.756 119.82129729729726,192.756 119.04950150150148,192.756 118.27770570570573,192.756 117.50590990990993,192.756 116.73411411411416,192.756 115.9623183183183,192.756 115.19052252252251,192.756 114.41872672672673,192.756 113.64693093093096,192.756 112.87513513513518,192.756 112.10333933933931,192.756 111.33154354354355,192.756 110.55974774774776,192.756 109.78795195195198,192.756 109.0161561561561,192.756 108.24436036036033,192.756 107.47256456456456,192.756 106.70076876876878,192.756 105.92897297297301,192.756 105.15717717717715,192.756 104.38538138138136,192.756 103.61358558558558,192.756 102.84178978978981,192.756 102.06999399399403,192.756 101.29819819819816,192.756 100.52640240240238,192.756 99.75460660660661,192.756 98.98281081081083,192.756 98.21101501501504,192.756 97.43921921921918,192.756 96.6674234234234,192.756 95.89562762762763,192.756 95.12383183183185,192.756 94.35203603603607,192.756 93.5802402402402,192.756 92.80844444444442,192.756 92.03664864864865,192.756 91.26485285285287,192.756 90.4930570570571,192.756 89.72126126126123,192.756 88.94946546546545,192.756 88.17766966966968,192.756 87.4058738738739,192.756 86.6340780780781,192.756 85.86228228228225,192.756 85.09048648648647,192.756 84.3186906906907,192.756 83.54689489489492,192.756 82.77509909909914,192.756 82.00330330330327,192.756 81.2315075075075,192.756 80.45971171171172,192.756 79.68791591591594,192.756 78.91612012012017,192.756 78.1443243243243,192.756 77.37252852852852,192.756 76.60073273273274,192.756 75.82893693693696,192.756 75.05714114114117,192.756 74.28534534534532,192.756 73.51354954954955,192.756 72.74175375375377,192.756 71.96995795795799,192.756 71.1981621621622,192.756 70.42636636636634,192.756 69.65457057057057,192.756 68.88277477477479,192.756 68.110978978979,192.756 67.33918318318322,192.756 66.56738738738736,192.756 65.79559159159157,192.756 65.0237957957958,192.756 64.25200000000002,192.756 63.48020420420425,192.756 62.70840840840839,192.756 61.93661261261261,192.756 61.16481681681684,192.756 60.39302102102106,192.756 59.62122522522529,192.756 58.84942942942942,192.756 58.077633633633624,192.756 57.305837837837835,192.756 56.53404204204206,192.756 55.76224624624621,192.756 54.990450450450425,192.756 54.21865465465465,192.756 53.446858858858874,192.756 52.6750630630631,192.756 51.90326726726724,192.756 51.13147147147146,192.756 50.35967567567568,192.756 49.58787987987991,192.756 48.81608408408413,192.756 48.044288288288264,192.756 47.272492492492475,192.756 46.500696696696686,192.756 45.7289009009009,192.756 44.957105105105136,192.756 44.185309309309275,192.756 43.41351351351349,192.756 42.64171771771772,192.756 41.86992192192194,192.756 41.09812612612617,192.756 40.32633033033031,192.756 39.554534534534525,192.756 38.78273873873875,192.756 38.010942942942975,192.756 37.2391471471472,192.756 36.467351351351326,192.756 35.69555555555552,192.756 34.923759759759726,192.75600000000003 34.15196396396401,192.75599999999997 33.3801681681683,192.75599999999991 32.60837237237225,192.7560000000001 31.836576576576242,192.75600000000034 31.06478078078112,192.7559999999997 30.29298498498623,192.75599999999875 29.521189189188004,192.75600000000122 28.749393393388843,192.75600000000452 27.97759759760216,192.75599999999545 27.20580180181873,192.75599999998306 26.434006005989115,192.75600000001688 25.662210210147045,192.7560000000632 24.890414414476954,192.75599999993744 24.1186186188545,192.7559999997641 23.34682282259113,192.7560000002317 22.575027026146476,192.75600000088056 21.80323123208911,192.75599999914218 21.031435438722465,192.75599999671294 20.25963963646379,192.75600000317584 19.487843831573937,192.75600001226994 18.716048059804894,192.7559999882432 17.944252298052962,192.75599995419935 17.172456412935922,192.7560000435205 16.400660489699746,192.7560001709609 15.628865025956438,192.75599983890842 14.857069707210798,192.7559993618583 14.08527267702733,192.75600059624597 13.313475095527151,192.7560023819503 12.541683888423803,192.75599779325788 11.769894776740218,192.75599110914567 10.998081923310593,192.75600816677954 10.226261108704083,192.75603318559016 9.454528720471874,192.7559697780266 8.682826568345824,192.7558761343569 7.910795074631468,192.75611183227545 7.138648786028139,192.756462325083 6.367729108623275,192.755586206692 5.59724511637908,192.7542744031404 4.822192737380459,192.75753098634323 4.045487324916,192.76244060301192 3.285796224251559,192.7503359078806 2.5323749288728354,192.73196140746344 1.7155868747987322,192.77695366574181 0.8750252395187554,192.84571950522596 0.27272954143826517,192.6762194075107 0.03842446686851145,192.13872868628468 -0.0037445367827038723,191.40910189414004 -0.004832770641388168,190.63839433220292 0.000997194657898118,189.86076857110788 0.0012980447265278595,189.0886719252435 -0.00026554139399640185,188.3184397155682 -0.0003486407637074426,187.54672701914205 7.070571085000852e-05,186.7745118768717 9.364006799255463e-05,186.0026931467188 -1.8825488169962262e-05,185.23100981647917 -2.5150136125447104e-05,184.45922034533135 5.011953095897581e-06,183.68739438744626 6.754823996482261e-06,182.91559684877961 -1.3342470124937183e-06,182.14380914205483 -1.8141902438182794e-06,181.37201382620228 3.5516768916099905e-07,180.60021586104855 4.872442500833117e-07,179.82841993317615 -9.453619013126024e-08,179.05662471916082 -1.3085964517698134e-07,178.2848289596885 2.5161100383476503e-08,177.51303300787197 3.5144703824041405e-08,176.74123720209258 -6.69618572719362e-09,175.9694414481376 -9.438634836954812e-09,175.19764565508427 1.7819318906028066e-09,174.4258498480679 2.5348580358603647e-09,173.6540540515192 -4.74154488796845e-10,172.88225825873243 -6.807588144181842e-10,172.1104624631432 1.261575308941851e-10,171.3386666665405 1.828218469060822e-10,170.56687087068806 -3.356374539034394e-11,169.79507507510868 -4.909735666373762e-11,169.02327927932842 8.928755616484072e-12,168.25148348347454 1.3185097420165331e-11,167.47968768767447 -2.3750572123430528e-12,166.7078918918943 -3.540819602768772e-12,165.93609609609965 6.317120449517396e-13,165.16430030029974 9.508663912493897e-13,164.39250450450353 -1.6800626798959968e-13,163.62070870870886 -2.553468147302927e-13,162.84891291291316 4.46778575589842e-14,162.0771171171171 6.857039564721166e-14,161.3053213213213 -1.1880069545156046e-14,160.5335255255255 -1.841357611636989e-14,159.76172972972975 3.158672915643426e-15,158.98993393393394 4.944642700534829e-15,158.2181381381382 -8.397472260569013e-16,157.4463423423424 -1.3277826455456545e-15,156.6745465465465 2.232286547681329e-16,155.90275075075073 3.5654501786263483e-16,155.13095495495497 -5.933458647553031e-17,154.35915915915922 -9.5740806026311e-17,153.5873633633634 1.5769635577881914e-17,152.81556756756754 2.5708404289283995e-17,152.0437717717718 -4.190735720188276e-18,151.27197597597598 -6.90316904263759e-18,150.50018018018022 1.113558051011599e-18,149.72838438438436 1.853605258683074e-18,148.95658858858857 -2.9586152177480023e-19,148.1847927927928 -4.9771572889998615e-19,147.41299699699704 7.859884827553655e-20,146.64120120120123 1.336413510823539e-19,145.86940540540533 -2.0878291317452577e-20,145.09760960960958 -3.588357792750054e-20,144.32581381381382 5.545283718095134e-21,143.55401801801804 9.634873628465453e-21,142.78222222222226 -1.4726568966616003e-21,142.0104264264264 -2.5869719359079442e-21,141.2386306306306 3.9104547976253573e-22,140.46683483483483 6.94596889421953e-22,139.69503903903907 -1.0382446986163823e-22,138.9232432432433 -1.8649594067197364e-22,138.15144744744742 2.75624463570307e-23,137.37965165165164 5.0072742115924085e-23,136.60785585585586 -7.316109179243356e-24,135.83606006006008 -1.3444009787406548e-23,135.06426426426427 1.9417160452873923e-24,134.29246846846843 3.6095389094530916e-24,133.52067267267267 -5.152679037026279e-25,132.7488768768769 -9.691033799854914e-25,131.9770810810811 1.3671650624509797e-25,131.20528528528533 2.601860281654189e-25,130.43348948948946 -3.6270029854681404e-26,129.66169369369368 -6.985432927706155e-26,128.8898978978979 9.620829916819001e-27,128.1181021021021 1.8754184510038557e-26,127.34630630630635 -2.551604342610768e-27,126.57451051051049 -5.034989313785409e-27,125.80271471471471 6.766261126897088e-28,125.03091891891891 1.3517439749878897e-27,124.25912312312315 -1.7939783543580438e-28,123.48732732732736 -3.6289907541918687e-28,122.71553153153151 4.755727937742892e-29,121.94373573573573 9.742553960836927e-29,121.17193993993996 -1.2605104088811166e-29,120.40014414414418 -2.615503623219233e-29,119.6283483483484 3.340440246036685e-30,118.85655255255253 7.021556404217716e-30,118.08475675675675 -8.850890146038356e-31,117.31296096096098 -1.8849811750738735e-30,116.5411651651652 2.3447374833114225e-31,115.76936936936941 5.060299478730449e-31,114.99757357357355 -6.210456401804244e-32,114.22577777777776 -1.3584417025734965e-31,113.45398198198198 1.6446471024465864e-32,112.68218618618621 3.6467112935420477e-32,111.91039039039045 -4.354513690140433e-33,111.13859459459458 -9.789428936051943e-33,110.3667987987988 1.152715271845868e-33,109.59500300300301 2.6279006469581433e-33,108.82320720720723 -3.0508264916996648e-34,108.05141141141145 -7.054335999399417e-34,107.2796156156156 8.072788378118525e-35,106.50781981981982 1.8936467404883684e-34,105.73602402402405 -2.1356871636673774e-35,104.96422822822827 -5.083202599798827e-35,104.1924324324324 5.648810626628807e-36,103.42063663663662 1.364493634475543e-35,102.64884084084083 -1.4937533028166854e-36,101.87704504504507 -3.6626992155394825e-36,101.10524924924928 3.949119480145461e-37,100.33345345345342 9.83165547814751e-37,99.56165765765763 -1.043801963940896e-37,98.78986186186185 -2.6390505544577267e-37,98.01806606606607 2.7582215702655293e-38,97.2462702702703 7.083769765768161e-38,96.47447447447443 -7.286685138625855e-39,95.70267867867867 -1.9014146767507363e-38,94.93088288288288 1.924496440113972e-39,94.15908708708712 5.1036975536268035e-39,93.38729129129133 -5.081439287507856e-40,92.61549549549545 -1.3698995064299381e-39,91.84369969969967 1.341327931053777e-40,91.0719039039039 3.676953910385802e-40,90.30010810810813 -3.539628389784815e-41,89.52831231231235 -9.869232216148536e-41,88.75651651651648 9.337927691374397e-42,87.9847207207207 2.648953048723063e-41,87.21292492492492 -2.4626852507267182e-42,86.44112912912915 -7.109857095756106e-42,85.66933333333337 6.492740736331686e-43,84.8975375375375 1.9082848714212284e-42,84.12574174174173 -1.7112083094928075e-43,83.35394594594595 -5.121784173657052e-43,82.58215015015017 4.508457706861723e-44,81.81035435435439 1.3746593098517917e-43,81.03855855855852 -1.1874019177989033e-44,80.26676276276275 -3.6894754515074953e-44,79.49496696696698 3.126123377782135e-45,78.7231711711712 9.902159604784033e-45,77.95137537537542 -8.227099375934187e-46,77.17957957957955 -2.6576083206163755e-45,76.40778378378377 2.1642772094235207e-46,75.63598798798799 7.13259868542583e-46,74.86419219219222 -5.69111522620936e-47,74.09239639639644 -1.9142575604094893e-46,73.32060060060059 1.4958656991634721e-47,72.5488048048048 5.137463224168887e-47,71.77700900900902 -3.92998101699022e-48,71.00521321321324 -1.3787732848863935e-47,70.23341741741746 1.0320061416882976e-48,69.4616216216216 3.7002645769635864e-48,68.68982582582582 -2.708687260672545e-49,67.91803003003004 -9.930439874738604e-49,67.14623423423426 7.105756806110094e-50,66.37443843843847 2.6650170355508223e-49,65.6026426426426 -1.863057016547277e-50,64.83084684684684 -7.151996498870965e-50,64.05905105105107 4.8819683733963656e-51,63.28725525525529 1.919333318448876e-50,62.51545945945951 -1.2785114573669015e-51,61.743663663663646 -5.150736374789559e-51,60.97186786786787 3.346124134295836e-52,60.200072072072096 1.3822419135897043e-51,59.4282762762763 -8.751714224707782e-53,58.65648048048051 -3.709322671201161e-52,57.88468468468465 2.287402694425807e-53,57.112888888888875 9.954076983844143e-53,56.3410930930931 -5.974121657259956e-54,55.569297297297325 -2.671180320428897e-53,54.79750150150154 1.5590841230203406e-54,54.02570570570568 7.168053733267513e-54,53.25390990990991 -4.065459618099795e-55,52.48211411411413 -1.92351304974601e-54,51.71031831831836 1.0591883438570875e-55,50.9385225225225 5.161606175479345e-55,50.16672672672672 -2.7570017342671304e-56,49.39493093093094 -1.3850659132362046e-55,48.62313513513515 7.169285143232448e-57,47.85133933933936 3.716651747148561e-56,47.079543543543494 -1.8623521565690016e-57,46.30774774774772 -9.973076569166639e-57,45.53595195195195 4.8324151192657605e-58,44.76415615615617 2.6760997508237226e-57,43.992360360360394 -1.252417847731504e-58,43.22056456456453 -7.180774784580377e-58,42.44876876876876 3.241748041512096e-59,41.676972972972976 1.9267979788063978e-58,40.9051771771772 -8.379390207855582e-60,40.133381381381426 -5.170076031983013e-59,39.361585585585566 2.1627282271220363e-60,38.58978978978978 1.3872462297504908e-59,37.817993993993994 -5.5730809933654886e-61,37.046198198198205 -3.722254428643383e-60,36.27440240240243 1.4336179287995444e-61,35.50260660660657 9.987445899992947e-61,34.730810810810794 -3.680857850108928e-62,33.95901501501501 -2.6797773384018775e-61,33.18721921921924 9.431173651200935e-63,32.41542342342346 7.190165213909956e-62,31.643627627627602 -2.4109923326366644e-63,30.871831831831823 -1.9291896414299377e-62,30.100036036036048 6.14806043845669e-64,29.328240240240273 5.176150181740791e-63,28.556444444444498 -1.5634177341278267e-64,27.784648648648634 -1.3887840312623945e-63,27.012852852852845 3.963407811930536e-65,26.241057057057052 3.72613393318804e-64,25.46926126126127 -1.0012820800762998e-65,24.6974654654655 -9.997193831697187e-65,23.925669669669638 2.5196699306922394e-66,23.15387387387386 2.6822155185797317e-65,22.382078078078084 -6.312416931166762e-67,21.61028228228231 -7.196231714470325e-66,20.83848648648653 1.5733507560415473e-67,20.06669069069067 1.9306898758760725e-66,19.29489489489489 -3.898318536486243e-68,18.523099099099117 -5.1798336702544155e-67,17.751303303303345 9.591840645849437e-69,16.979507507507563 1.389680701802226e-67,16.20771171171169 -2.340570790285433e-69,15.435915915915897 -3.728294055752827e-68,14.664120120120119 5.654264506153117e-70,13.892324324324345 1.0002330787353747e-68,13.120528528528569 -1.3490708345809885e-70,12.348732732732707 -2.6834172386201985e-69,11.57693693693693 3.168497258590012e-71,10.805141141141155 7.198985814902347e-70,10.033345345345378 -7.289825403044715e-72,9.261549549549601 -1.9313147407559494e-70,8.489753753753739 1.630631754974271e-72,7.717957957957963 5.181651498042344e-71,6.94616216216219 -3.502720818781645e-73,6.17436636636641 -1.3918732385470184e-71,5.402570570570534 7.085455638577864e-74,4.630774774774744 3.800887975975168e-72,3.858978978978964 -1.3525144570100774e-74,3.087183183183191 -1.269243926732169e-72,2.3153873873874153 3.391460524285519e-75,1.5435915915915523 1.2709498313759308e-72,0.7717957957957754 -5.026911708464872e-88,6.941675023723872e-17" stroke="black" fill="none" stroke-width="0.5"/>
<path d="M 42.741,71.477 42.47577835220792,71.78925712240074 42.21079094804982,72.1028258284688 41.946076389809775,72.4176784959724 41.68167327977183,72.73378750267973 41.41762022022003,73.05112522635903 41.15395581343844,73.36966404477852 40.8907186617111,73.68937633570638 40.62794736732206,74.01023447691085 40.36568053255539,74.3322108461601 40.103956759695116,74.65527782122237 39.84281465102531,74.97940777986587 39.58229280883001,75.3045730998588 39.32242983539327,75.63074615896937 39.06326433299917,75.9578993349658 38.80483490393172,76.2860050056163 38.547180150475,76.6150355486891 38.290338674913045,76.94496334195236 38.03434907952991,77.27576076317433 37.77924996660966,77.6074001901232 37.52507993843633,77.9398540005672 37.27187759729399,78.27309457227453 37.019681545466675,78.60709428301342 36.76853038523844,78.94182551055206 36.518462718893346,79.27726063265865 36.269517148715444,79.61337202710143 36.021732276988764,79.95013207164858 35.775146705997386,80.28751314406836 35.529799038025345,80.62548762212893 35.2857278753567,80.96402788359852 35.042971820275504,81.30310630624533 34.801569475065804,81.6426952678376 34.56155944201165,81.9827671461435 34.3229803233971,82.32329431893127 34.08587072150621,82.66424916396912 33.850269238623014,83.00560405902526 33.61621447703159,83.34733138186786 33.383745039015956,83.6894035102652 33.15289952686019,84.03179282198545 32.92371654284834,84.37447169479682 32.69623468926445,84.71741250646751 32.47049256839258,85.06058763476577 32.246528782516776,85.40396945745981 32.02438193392109,85.74753035231778 31.804090624889582,86.09124269710796 31.58569345770629,86.43507886959853 31.369229034655273,86.77901124755769 31.15473595802059,87.12301220875366 30.942252830086282,87.46705413095466 30.731818253136407,87.81110939192891 30.523470829455015,88.15515036944457 30.317249161326153,88.4991494412699 30.113191851033875,88.84307898517312 29.911337500862242,89.1869113789224 29.7117247130953,89.53061900028598 29.514392090017093,89.87417422703206 29.319378233911678,90.21754943692883 29.126721747063115,90.56071700774454 28.936461231755455,90.90364931724737 28.748635290272734,91.24631874320555 28.563282524899016,91.5886976633873 28.38044153791835,91.93075845556079 28.20015093161479,92.27247349749425 28.022449308272385,92.61381516695592 27.847375270175192,92.95475584171399 27.674967419607256,93.29526789953664 27.50526435885263,93.63532371819211 27.338304690195372,93.97489567544862 27.17412701591953,94.31395614907439 27.012769938309155,94.65247751683758 26.854272059648295,94.99043215650646 26.698671982221008,95.32779244584917 26.54600830831135,95.664530762634 26.396319640203366,96.00061948462913 26.2496445801811,96.33603098960273 26.10602173052859,96.67073765532301 25.965489693529957,97.0047118595583 25.82808707146928,97.33792598007693 25.693852466630375,97.67035239464651 25.56282448129717,98.00196348103496 25.435041717754604,98.33273161701263 25.31054277828721,98.66262918034887 25.1893662651757,98.99162854880389 25.071550780702353,99.3197021001417 24.95713492716364,99.64682221216016 24.8461573068503,99.97296126264344 24.738656522000113,100.29809162924926 24.63467117487194,100.62218568968568 24.53423986792217,100.94521582213243 24.437401203529816,101.26715440458445 24.344193783337023,101.58797381327723 24.25465620927002,101.9076464251246 24.168827086003617,102.2261446236033 24.086745017170102,102.54344078970084 24.008448596149318,102.85950727992432 23.933976420145875,103.1743164599134 23.863367124606707,103.48784078662138 23.79665933095002,103.80005268350423 23.733891517948955,104.11092423341562 23.675102215819017,104.42042764204123 23.62033048684004,104.72853638550947 23.569615204707528,105.03522348965431 23.522993258545128,105.34045724162573 23.480502228621294,105.64420757886258 23.442187097472786,105.946462113654 23.4080903153816,106.24720241186901 23.378226723158132,106.54634411454708 23.352620436661624,106.84382500933083 23.33139855027469,107.13982877200272 23.314654196561833,107.43445798562789 23.302096420278673,107.72689812324015 23.29354845724425,108.02036900205084 23.290209591609663,108.34236802066185 23.293687505530375,108.7193080735282 23.305204162706406,109.12425437905648 23.32570206851009,109.51834393115296 23.355305739356005,109.90043785181199 23.393891306273414,110.28086011747438 23.441553591620288,110.65984226165165 23.49845444176328,111.03452268321074 23.56469714463856,111.40474205916273 23.64036690410514,111.77117568428184 23.725564614859955,112.13377533267534 23.82039604761139,112.49226758002428 23.92496272770355,112.84657267438202 24.039364877296123,113.19667163718489 24.163704020084694,113.54249381183914 24.29808198611617,113.88395209694923 24.442599642085817,114.22097257004738 24.59735793706722,114.55348592164604 24.762460371182158,114.88142176503447 24.9380098206647,115.20470782588471 25.12409992689715,115.52326297676564 25.320826692047824,115.83700894311444 25.52832048319579,116.14590391207275 25.74670304525503,116.44989676528398 25.975967987271375,116.74879948651221 26.216140311979313,117.0424576417781 26.467722864274,117.33122756710709 26.731104269425874,117.61534349695246 27.004891192068282,117.89313484353725 27.2881056089159,118.16337496882619 27.586414687431997,118.43194061241913 27.905635303368403,118.70539155163195 28.237022912960633,118.97794402906557 28.568157917088097,119.24050033547748 28.898182481722518,119.49253457544967 29.230191091194417,119.73645405843669 29.564317444469566,119.97248685478405 29.899678942262234,120.20011298790915 30.2361856817585,120.41939594593264 30.574021831048743,120.63060094702662 30.913159357737843,120.83383701908085 31.253496321776186,121.02915879021036 31.59498758726529,121.21666269922075 31.937607947999222,121.39645985418703 32.28131699185893,121.56865017100577 32.626068932767375,121.73332961004219 32.971822055696435,121.89059712762602 33.31853609452058,122.04055274664853 33.666169690836114,122.18329568801767 34.01468109601361,122.3189248850697 34.364028863279536,122.44753948590683 34.71417164948569,122.56923871615045 35.065067995338524,122.68412174358278 35.41667641931738,122.79228771514293 35.768955602787784,122.8938357945659 36.1218642125833,122.98886515100139 36.4753603805129,123.07747494420327 36.8294023159575,123.15976433320014 37.18395020383031,123.23583249780604 37.53896394420955,123.30577861539885 37.894396076474216,123.36970178967032 38.250200160976185,123.42770113438354 38.60635720116128,123.47987603702121 38.9628445532925,123.52632584872845 39.3195372530808,123.56714890036675 39.6763233387359,123.60244365244064 40.033472344104695,123.632312369445 40.39120754401611,123.656856854617 40.74832984579524,123.67616472842418 41.10380436046113,123.690325248648 41.46189929536864,123.69948055151806 41.828653062730034,123.7037335610633 42.206760956980084,123.70275661644048 42.59662499598416,123.69610187509693 42.992567732225076,123.683767250252 43.387243948407246,123.66593558714364 43.779932367604346,123.64274407181358 44.17252392078082,123.61431162249909 44.56514506081285,123.58076949686135 44.9572182481893,123.5422538757514 45.348638147091656,123.4988976377851 45.73948914265274,123.45083233481365 46.12972925235636,123.39819040240786 46.51926536674289,123.34110463368168 46.90803819341059,123.27970758525821 47.2960022174974,123.2141317174109 47.68310287454745,123.144509553699 48.069281887481225,123.07097364364523 48.454483400892755,122.99365651983706 48.83865255978535,122.91269070786592 49.221733861133735,122.8282087378541 49.60367153234848,122.74034314180912 49.98440997423965,122.64922645052918 50.36389366025069,122.55499119430438 50.74206701745441,122.45776990373675 51.11887445335222,122.35769510956567 51.494260387745676,122.25489934249056 51.86816924571317,122.14951513317229 52.24054544944394,122.04167501212048 52.611333419694105,121.93151150985969 52.980477576493804,121.81915715755886 53.347922340293316,121.70474448636914 53.71361213732513,121.58840602501839 54.07749139361383,121.47027430227735 54.439504512806494,121.35048185595602 54.79959589884008,121.22916122375852 55.15771003928748,121.10644490969264 55.51379142121602,120.98246541796681 55.86778421987139,120.85735537839716 56.21963261057334,120.73124742077077 56.569281930996816,120.60427370666225 56.916677525196945,120.47656639507593 57.261760404499796,120.3482593902968 57.60447153167424,120.21948661616939 57.944768019739314,120.090375491004 58.282607255011634,119.96105332302295 58.617886424374426,119.83167166957615 58.95050135210305,119.70238263688995 59.28057225118683,119.5732479444507 59.60822569499347,119.44432674970034 59.932751874133494,119.31601511611053 60.25341249725938,119.18872058006207 60.57258675956701,119.06159491314988 60.892777808089896,118.9337399575303 61.20486896563277,118.80893817414716 61.49191499672942,118.69410311355645 61.719529723529085,118.60298771750321 61.85336673173787,118.54926337345177 61.931659430686075,118.51758883326576 62.021953394661075,118.48091147933341 62.13368131616663,118.43545451528715 62.24883426226379,118.38843217684285 62.36480608008655,118.34088951523026 62.486380775250076,118.29091164517179 62.61422210472177,118.23823394023378 62.747003669621485,118.1833888793442 62.884501219905346,118.12646750427031 63.02702643780045,118.06734620299376 63.1745961905608,118.00601944399531 63.327083026846886,117.94253949882913 63.484438354317525,117.8769270541208 63.646652442555016,117.80918723135937 63.81369446780119,117.73933360042486 63.98552314185789,117.66738392245757 64.16210281851048,117.59335369884761 64.34340066926181,117.51725730242114 64.52938235654075,117.43910971042503 64.72001278407836,117.35892620398276 64.9152572592341,117.27672190255497 65.11508129364925,117.1925118437825 65.31945029100966,117.1063111085449 65.5283295999988,117.01813479975156 65.74168459817368,116.92799800874728 65.95948067790026,116.83591582094556 66.1816832238221,116.74190332485283 66.40825761659576,116.64597561057248 66.6391692389431,116.5481477673807 66.87438347465935,116.4484348841237 67.11386570698753,116.34685204986897 67.35758131888146,116.2434143537997 67.6054956934429,116.13813688503994 67.8575742138513,116.03103473268261 68.11378226324652,115.92212298583638 68.37408522474767,115.81141673361837 68.6384484814843,115.69893106514142 68.90683741659161,115.58468106951618 69.17921741320197,115.46868183585437 69.45555385444626,115.35094845326833 69.73581212345614,115.23149601087009 70.01995760336358,115.11033959777158 70.30795567730048,114.98749430308474 70.59977172839854,114.8629752159216 70.89537113978948,114.73679742539409 71.19471929460518,114.60897602061421 71.49778157597737,114.47952609069395 71.80452336703787,114.34846272474527 72.11491005091847,114.21580101188019 72.42890701075092,114.08155604121067 72.74647962966706,113.94574290184867 73.06759329079864,113.80837668290621 73.39221337727746,113.66947247349525 73.7203052722353,113.52904536272776 74.05183435880394,113.38711043971573 74.38676602011519,113.24368279357114 74.72506563930081,113.09877751340598 75.06669859949264,112.95240968833221 75.4116302838224,112.80459440746182 75.7598260754219,112.6553467599068 76.11125135742296,112.50468183477912 76.46587151295732,112.35261472119079 76.8236519251568,112.19916050825373 77.18455797715316,112.04433428507997 77.54855505207823,111.88815114078147 77.91560853306375,111.73062616447022 78.28568380324151,111.57177444525821 78.65874624574336,111.4116110722574 79.03476124370101,111.25015113457977 79.41369418024631,111.08740972133732 79.79551043851099,110.92340192164203 80.18017540162685,110.75814282460584 80.56765445272572,110.59164751934078 80.95791297493933,110.42393109495883 81.35091635139953,110.25500864057192 81.74662996523804,110.08489524529207 82.14501919958668,109.91360599823128 82.54604943757727,109.74115598850146 82.94968606234153,109.56756030521467 83.3558944570113,109.39283403748284 83.76464000471833,109.21699227441798 84.17588808859443,109.04005010513205 84.5896040917714,108.86202261873703 85.005753397381,108.68292490434493 85.42430138855501,108.50277205106767 85.84521344842524,108.32157914801729 86.26845496012346,108.13936128430576 86.69399130678153,107.95613354904503 87.12178787153111,107.77191103134712 87.55181003750408,107.58670882032398 87.9840231878322,107.40054200508763 88.41839270564724,107.21342567475 88.85488397408102,107.02537491842307 89.2934623762653,106.83640482521886 89.73409329533189,106.64653048424934 90.17674211441256,106.45576698462651 90.6213742166391,106.26412941546229 91.0679549851433,106.07163286586871 91.51644980305696,105.87829242495773 91.96682405351186,105.68412318184134 92.41904311963975,105.48914022563153 92.8730723845725,105.29335864544025 93.32887723144177,105.09679353037953 93.78642304337946,104.89945996956129 94.24567520351735,104.70137305209755 94.70659909498717,104.50254786710028 95.16916010092076,104.30299950368146 95.63332360444984,104.10274305095307 96.09905498870623,103.90179359802711 96.56631963682179,103.70016623401553 97.03508293192819,103.49787604803032 97.5053102571573,103.29493812918346 97.97696699564086,103.09136756658697 98.45001853051069,102.88717944935277 98.92443024489856,102.68238886659286 99.40016752193624,102.47701090741926 99.87719574475558,102.27106066094389 100.35548029648828,102.06455321627875 100.83498656026617,101.85750366253586 101.31567991922108,101.64992708882714 101.79752575648472,101.44183858426462 102.28048945518893,101.23325323796024 102.76453639846547,101.02418613902603 103.24963196944613,100.81465237657393 103.73574155126272,100.6046670397159 104.222830527047,100.394245217564 104.71086427993079,100.18340199923014 105.19980819304583,99.97215247382636 105.68962764952394,99.76051173046454 106.1802880324969,99.54849485825679 106.67175472509649,99.33611694631499 107.16399311045456,99.12339308375117 107.65696857170276,98.91033835967731 108.150646491973,98.69696786320534 108.64499225439701,98.48329668344729 109.1399712421066,98.26933990951517 109.63554883823357,98.05511263052088 110.13169042590967,97.84062993557646 110.62836138826673,97.62590691379386 111.12552710843646,97.41095865428507 111.62315296955073,97.1958002461621 112.12120435474131,96.98044677853686 112.61964664713994,96.76491334052139 113.11844522987847,96.54921502122767 113.61756548608864,96.33336690976765 114.11697279890225,96.11738409525333 114.61663255145112,95.90128166679668 115.116510126867,95.68507471350969 115.61657090828167,95.46877832450433 116.11678027882694,95.25240758889261 116.61710362163458,95.03597759578648 117.11750631983642,94.81950343429793 117.61795375656418,94.60300019353893 118.11841131494973,94.38648296262147 118.61884437812478,94.16996683065754 119.11921832922113,93.95346688675912 119.61949855137061,93.73699822003815 120.11965042770495,93.52057591960666 120.619639341356,93.3042150745766 121.11943067545552,93.08793077406 121.61898981313527,92.8717381071688 122.11828213752707,92.65565216301498 122.61727303176269,92.4396880307105 123.11592787897396,92.22386079936737 123.61421206229261,92.00818555809758 124.11209096485045,91.7926773960131 124.60952996977925,91.5773514022259 125.10649446021078,91.36222266584798 125.60294981927696,91.1473062759913 126.09886143010941,90.93261732176785 126.59419467584001,90.7181708922896 127.08891493960049,90.50398207666858 127.58298760452267,90.2900659640167 128.07637805373832,90.07643764344598 128.56905167037928,89.86311220406837 129.06097383757734,89.65010473499589 129.5521099384642,89.43743032534053 130.04242535617166,89.22510406421424 130.5318854738316,89.01314104072898 131.02045567457571,88.80155634399678 131.50810134153588,88.59036506312955 131.9947878578438,88.37958228723936 132.48048060663126,88.16922310543816 132.96514497103013,87.95930260683788 133.44874633417209,87.74983588055055 133.93125007918903,87.54083801568814 134.41262158921268,87.33232410136264 134.89282624737478,87.12430922668604 135.37182943680722,86.91680848077024 135.84959654064173,86.70983695272734 136.32609294201015,86.50340973166925 136.80128402404418,86.29754190670798 137.2751351698757,86.09224856695545 137.7476117626364,85.8875448015237 138.21867918545817,85.68344569952471 138.6883028214727,85.47996635007043 139.1564480538118,85.27712184227286 139.6230802656073,85.07492726524397 140.08816483999098,84.87339770809577 140.55166716009464,84.6725482599402 141.01355260905,84.47239400988927 141.47378656998893,84.27295004705493 141.93233442604316,84.0742314605492 142.38916156034443,83.87625333948405 142.8442333560246,83.67903077297144 143.2975151962155,83.48257885012335 143.74897246404888,83.28691266005178 144.19857054265648,83.09204729186868 144.6462748151701,82.8979978346861 145.0920506647215,82.70477937761595 145.53586347444266,82.51240700977023 145.9776786274651,82.32089582026094 146.41746150692074,82.13026089820002 146.85517749594138,81.94051733269951 147.29079197765876,81.75168021287134 147.72427033520472,81.56376462782751 148.15557795171097,81.37678566668 148.5846802103094,81.19075841854077 149.01154249413167,81.00569797252183 149.43613018630967,80.82161941773518 149.85840866997518,80.63853784329275 150.27834332825992,80.45646833830654 150.69589954429577,80.27542599188853 151.1110427012144,80.0954258931507 151.5237381821477,79.91648313120503 151.93395137022745,79.7386127951635 152.34164764858537,79.56182997413812 152.74679240035329,79.38614975724083 153.149351008663,79.21158723358361 153.54928885664626,79.03815749227849 153.94657132743487,78.8658756224374 154.34116380416063,78.69475671317234 154.73303166995535,78.52481585359529 155.12214030795076,78.35606813281824 155.50845510127868,78.18852863995312 155.8919414330709,78.02221246411197 156.27256468645922,77.85713469440677 156.65029024457533,77.69331041994947 157.0250834905511,77.53075472985205 157.3969098075184,77.36948271322652 157.7657345786089,77.20950945918484 158.1315231869544,77.05085005683897 158.4942410156867,76.89351959530094 158.85385344793755,76.73753316368268 159.21032586683884,76.58290585109621 159.5636236555223,76.4296527466535 159.91371219711962,76.27778893946655 160.26055687476276,76.12732951864729 160.6041230715834,75.97828957330773 160.94437617071338,75.83068419255984 161.28128155528444,75.68452846551561 161.61480460842833,75.53983748128705 161.94491071327695,75.39662632898607 162.271565252962,75.25491009772472 162.59473361061535,75.11470387661493 162.9143811693687,74.9760227547687 163.23047331235392,74.83888182129802 163.54297542270274,74.70329616531488 163.85185288354688,74.56928087593126 164.1570710780183,74.43685104225908 164.45859538924861,74.30602175341039 164.75639120036973,74.17680809849713 165.05042389451341,74.0492251666313 165.34065885481135,73.92328804692488 165.62706146439547,73.79901182848987 165.9095971063975,73.67641160043819 166.1882311639492,73.55550245188186 166.4629290201824,73.43629947193288 166.73365605822886,73.31881774970323 167.00037766122037,73.20307237430484 167.26305921228877,73.08907843484971 167.52166609456572,72.97685102044984 167.77616369118311,72.86640522021723 168.0265173852727,72.75775612326382 168.27269255996637,72.65091881870161 168.51465459839574,72.54590839564254 168.75236888369267,72.44273994319867 168.98580079898898,72.34142855048191 169.21491572741644,72.24198930660425 169.4396790521068,72.14443730067768 169.66005615619193,72.04878762181421 169.87601242280348,71.95505535912588 170.08751323507332,71.86325560172455 170.29452397613343,71.77340343872196 170.49701002911533,71.68551395923048 170.6949367771503,71.5996022523629 170.88826960337087,71.51568340723004 171.07697389091095,71.43377251294051 171.2610150228993,71.35388465861101 171.4403583824601,71.27603493336578 171.61496935273604,71.20023842629932 171.78481331688772,71.12651022647796 171.94985565800616,71.05486542307834 172.1100617591155,70.98531910538321 172.26539700349892,70.91788636226447 172.4158267746903,70.85258228219624 172.5613164552596,70.78942195518157 172.7018314268369,70.72842047271459 172.83733707463855,70.66959292060073 172.96779878740512,70.6129543790554 173.0931819405334,70.5585199494597 173.21345189620783,70.50630475415177 173.3285740662608,70.45632383671939 173.4385139120555,70.40859216218595 173.54323671023414,70.3631249885743 173.6427075517647,70.31993786841934 173.7368922148792,70.27904526413506 173.82575717381496,70.24046053415051 173.90926634583914,70.20420109269382 173.98738103933331,70.17028849213915 174.06007207576062,70.13872919545943 174.1273200552709,70.10951415493096 174.18907018556607,70.08269046140455 174.24523102307884,70.05836334101546 174.29584279633715,70.03642916506662 174.34108310033088,70.01656641777342 174.38063967155787,69.99923058407369 174.41368542606705,69.98569374363062 174.44121566964486,69.97433734919034 174.46615507322835,69.96048254498056 174.48464868417284,69.95020413675928 174.4868248157378,69.96040144938699 174.52594541340676,69.94784976533836 174.72401727918282,69.80170750169502 175.02259033924094,69.52579496003786 175.15061700188213,69.26208349579954 174.9911638537318,69.10114052631609 174.62687534061683,69.06152231586117 174.2175177365872,69.10834713148968 173.99502137018453,69.14976233132084 173.99728916581677,69.15046299014054 174.02787566410368,69.14632537629042 173.99401274853795,69.1550278810664 173.94373958577276,69.16741031394155 173.9020799157407,69.17869934137077 173.8562400325452,69.19132982665388 173.7995438006243,69.20657059317932 173.73547181924897,69.223754539199 173.6658787755401,69.2425244700613 173.58989156686678,69.26304312166651 173.50706917893308,69.28539087168834 173.41770319006915,69.30950846193291 173.32197036204317,69.33535851882503 173.2198507091905,69.36294116984739 173.11135475233414,69.39225072779146 172.99654585079972,69.4232714341624 172.875479259255,69.45598907525415 172.74819604222284,69.49039214207423 172.6147394171617,69.52646871526971 172.47515641234685,69.56420614912668 172.329493484206,69.60359190692824 172.17779606576957,69.64461364702223 172.0201097419413,69.68725899880863 171.8564803724557,69.73151553930335 171.68695377671673,69.77737085320942 171.5115757003243,69.82481253929738 171.33039189958674,69.87382819429664 171.143448150632,69.92440541115887 170.95079022674497,69.97653178337774 170.75246389588816,70.03019490546127 170.54851492677895,70.08538237177366 170.33898908956377,70.14208177640673 170.12393215418882,70.20028071349044 169.90338989021654,70.25996677722793 169.67740806726243,70.3211275618122 169.44603245504518,70.38375066141658 169.20930882326928,70.44782367021715 168.9672829416116,70.51333418239517 168.7200005797526,70.58026979213129 168.46750750738042,70.64861809360467 168.20984949418207,70.7183666809947 167.94707230984253,70.78950314848112 167.67922172404707,70.86201509024364 167.40634350648156,70.93589010046188 167.12848342683182,71.01111577331542 166.84568725478334,71.08767970298395 166.55800076002177,71.16556948364708 166.26546971223277,71.24477270948442 165.9681398811021,71.32527697467569 165.66605703631535,71.40706987340043 165.35926694755818,71.49013899983832 165.0478153845162,71.574471948169 164.73174811687514,71.66005631257208 164.4111109143206,71.74687968722722 164.0859495465383,71.83492966631403 163.75630978321385,71.92419384401218 163.42223739403286,72.01465981450126 163.0837781486811,72.10631517196096 162.74097781684407,72.19914751057087 162.39388216820757,72.29314442451063 162.04253697245727,72.38829350795989 161.6869879992787,72.4845823550983 161.3272810183576,72.58199856010545 160.96346179937956,72.68052971716102 160.59557611203033,72.78016342044461 160.2236697259955,72.8808872641359 159.84778841096073,72.98268884241446 159.4679779366117,73.08555574945997 159.084284072634,73.18947557945208 158.69675258871342,73.29443592657037 158.30542925453548,73.40042438499452 157.91035983978597,73.50742854890416 157.5115901141504,73.61543601247891 157.1091658473145,73.72443436989842 156.70313280896391,73.8344112153423 156.29353676878435,73.94535414299021 155.8804234964614,74.05725074702178 155.46383876168073,74.17008862161664 155.04382833412797,74.28385536095445 154.62043798348884,74.39853855921478 154.19371347944897,74.51412581057734 153.76370059169406,74.63060470922174 153.33044508990966,74.74796284932759 152.89399274378147,74.86618782507455 152.45438932299518,74.98526723064224 152.01168059723645,75.1051886602103 151.5659123361909,75.22593970795837 151.11713030954422,75.34750796806608 150.66538028698199,75.46988103471311 150.21070803818998,75.59304650207903 149.75315933285373,75.71699196434349 149.29277994065902,75.84170501568614 148.8296156312914,75.9671732502866 148.36371217443656,76.09338426232453 147.89511533978012,76.22032564597956 147.42387089700784,76.34798499543129 146.95002461580532,76.47634990485939 146.4736222658582,76.60540796844349 145.9947096168521,76.73514678036321 145.51333243847276,76.86555393479821 145.0295365004058,76.9966170259281 144.54336757233688,77.12832364793253 144.05487142395165,77.26066139499113 143.56409382493572,77.39361786128354 143.07108054497485,77.52718064098939 142.57587735375463,77.66133732828831 142.07853002096073,77.79607551735995 141.5790843162787,77.93138280238395 141.0775860093944,78.0672467775399 140.57408086999334,78.20365503700748 140.06861466776127,78.34059517496631 139.56123317238377,78.47805478559604 139.05198215354648,78.6160214630763 138.54090738093512,78.75448280158669 138.02805462423535,78.89342639530689 137.51346965313283,79.03283983841649 136.9971982373131,79.17271072509517 136.4792861464619,79.31302664952258 135.95977915026492,79.45377520587829 135.4387230184078,79.59494398834197 134.9161635205762,79.73652059109325 134.3921464264557,79.87849260831177 133.86671750573197,80.0208476341772 133.33992252809077,80.16357326286911 132.81180726321773,80.30665708856716 132.28241748079844,80.45008670545099 131.75179895051858,80.59384970770023 131.21999744206374,80.73793368949455 130.68705872511973,80.88232624501352 130.15302856937208,81.02701496843683 129.61795274450657,81.17198745394407 129.08187702020874,81.31723129571493 128.5448471661642,81.46273408792901 128.00690895205878,81.60848342476594 127.46810814757802,81.75446690040536 126.9284905224076,81.90067210902691 126.38810184623317,82.04708664481024 125.84698788874033,82.19369810193497 125.30519441961486,82.34049407458075 124.76276720854239,82.48746215692717 124.21975202520849,82.63458994315391 123.6761946392989,82.78186502744059 123.13214082049916,82.92927500396685 122.58763633849509,83.07680746691231 122.04272696297225,83.22445001045664 121.49745846361631,83.37219022877942 120.95187661011293,83.52001571606034 120.40602717214769,83.66791406647901 119.85995591940639,83.81587287421506 119.31370862157462,83.96387973344814 118.76733104833804,84.11192223835786 118.2208689693823,84.2599879831239 117.67436815439295,84.40806456192585 117.12787437305583,84.5561395689434 116.58143339505651,84.70420059835611 116.03509099008065,84.85223524434365 115.48889292781391,85.00023110108566 114.9428849779419,85.1481757627618 114.39711291015037,85.29605682355165 113.85162249412491,85.44386187763489 113.30645949955121,85.59157851919113 112.76166969611488,85.7391943424 112.21729885350157,85.88669694144119 111.67339274139704,86.03407391049427 111.12999712948685,86.18131284373888 110.58715778745668,86.3284013353547 110.04492048499213,86.47532697952136 109.50333099177898,86.62207737041845 108.96243507750283,86.76864010222563 108.42227851184933,86.91500276912252 107.8829070645041,87.0611529652888 107.34436650515278,87.20707828490407 106.80670260348114,87.35276632214797 106.26996112917476,87.4982046712001 105.7341878519193,87.64338092624017 105.19942854140044,87.78828268144775 104.66572896730375,87.93289753100255 104.13313489931502,88.07721306908412 103.60169210711985,88.22121688987211 103.07144636040385,88.36489658754621 102.54244342885272,88.50823975628602 102.01472908215206,88.65123399027118 101.48834908998762,88.7938668836813 100.96334922204507,88.93612603069604 100.43977524800995,89.07799902549503 99.91767293756799,89.21947346225794 99.39708806040476,89.36053693516436 98.87806638620603,89.50117703839393 98.36065368465744,89.6413813661263 97.84489572544459,89.78113751254108 97.33083827825318,89.92043307181794 96.81852711276879,90.05925563813649 96.3080079986772,90.19759280567636 95.79932670566397,90.3354321686172 95.29252900341481,90.47276132113866 94.78766066161535,90.60956785742037 94.2847674499512,90.74583937164196 93.78389513810812,90.88156345798303 93.2850894957717,91.01672771062324 92.7883962926276,91.15131972374225 92.29386129836149,91.28532709151965 91.80153028265897,91.41873740813514 91.31144901520582,91.5515382677683 90.8236632656876,91.68371726459876 90.33821880378999,91.81526199280617 89.85516139919864,91.9461600465702 89.37453682159914,92.07639902007044 88.89639084067728,92.20596650748654 88.42076922611867,92.33485010299813 87.94771774760892,92.46303740078486 87.47728217483375,92.59051599502635 87.0095082774787,92.71727347990226 86.54444182522955,92.84329744959219 86.08212858777192,92.9685754982758 85.62261433479148,93.0930952201327 85.16594483597385,93.21684420934254 84.71216586100465,93.33981006008497 84.26132317956963,93.46198036653963 83.8134625613544,93.5833427228861 83.36862977604463,93.70388472330407 82.92687059332594,93.82359396197316 82.48823078288399,93.94245803307302 82.05275611440449,94.06046453078324 81.62049235757306,94.17760104928347 81.19148528207536,94.29385518275338 80.76578065759703,94.40921452537256 80.34342425382371,94.5236666713207 79.92446184044115,94.63719921477738 79.50893918713493,94.74979974992227 79.09690206359072,94.86145587093499 78.68839623949418,94.97215517199518 78.2834674845309,95.08188524728249 77.88216156838664,95.19063369097651 77.48452426074702,95.29838809725692 77.0906013312977,95.40513606030333 76.70043854972427,95.5108651742954 76.31408168571248,95.61556303341273 75.93157650894794,95.71921723183499 75.55296878911633,95.82181536374179 75.1783042959033,95.92334502331278 74.80762879899446,96.02379380472759 74.44098806807551,96.12314930216584 74.0784278728321,96.22139910980721 73.71999398294989,96.31853082183127 73.36573216811455,96.41453203241771 73.01568819801166,96.50939033574616 72.66990784232696,96.60309332599623 72.3284368707461,96.69562859734755 71.9913210529547,96.78698374397979 71.65860615863842,96.87714636007254 71.3303379574829,96.9661040398055 71.00656221917384,97.05384437735825 70.6873247133969,97.14035496691042 70.37267120983772,97.22562340264169 70.06264747818193,97.30963727873167 69.75729928811518,97.39238418936 69.45667240932319,97.47385172870631 69.16081261149156,97.55402749095022 68.86976566430599,97.63289907027139 68.5835773374521,97.71045406084944 68.30229340061551,97.78668005686404 68.02595962348198,97.86156465249479 67.75462177573709,97.93509544192132 67.48832562706653,98.00726001932327 67.22711694715595,98.07804597888033 66.97104150569093,98.14744091477205 66.72014507235721,98.21543242117812 66.4744734168405,98.28200809227812 66.23407230882646,98.34715552225171 65.99898751800036,98.41086230527864 65.76926481404792,98.47311603553855 65.54494996665623,98.53390430721052 65.32608874551057,98.59321471447436 65.11272692029145,98.65103485151154 64.90491026068574,98.70735231250129 64.70268453639844,98.76215469161616 64.5060955171107,98.81542958303743 64.31518897243602,98.86716458097112 64.13001067207654,98.91734727959084 63.95060638598679,98.96596527297787 63.77702188379288,99.01300615533366 63.609302934177755,99.05845752120456 63.44749530704253,99.10230696469144 63.29164477581153,99.1445420786064 63.141797109392016,99.18515045741383 62.99799806352983,99.22411970039215 62.86029341072042,99.26143740069328 62.72872897262361,99.29709113348592 62.60335050879345,99.33106849665558 62.48420359513332,99.36335715526305 62.37133403781971,99.39394469014044 62.26478832903671,99.42281843119389 62.164612107202046,99.44996602061782 62.070848448260264,99.47537603790131 61.98354359348546,99.49903590472766 61.902753355734376,99.5209295417121 61.8285218128744,99.5410451618631 61.76085729061709,99.55938405551733 61.69981161877615,99.57593160019691 61.645570168213645,99.59062432713527 61.59815703692404,99.60345775752552 61.55709752868354,99.61460986018037 61.52251477469959,99.6240399321882 61.4963949460163,99.63102581289172 61.47850819384009,99.63565591146326 61.46162258164437,99.64057604770854 61.41461984723731,99.65437335654195 61.24361162299466,99.70086089213957 60.900325825005076,99.79113719546719 60.49351697373143,99.89361880059047 60.1189082728461,99.98086325016487 59.75974491311147,100.05767899392282 59.390431236819275,100.13141068750191 59.0155344112231,100.2007579334404 58.64203715138086,100.26372719474656 58.2688212964338,100.3206444541478 57.894123725361915,100.3720272213459 57.51840535528105,100.41777572056333 57.14224553986641,100.45773625101782 56.76543464723494,100.4919138088887 56.38794607879003,100.5203393874306 56.01068556708228,100.54303740191006 55.63371114164002,100.55998898737468 55.254137542006795,100.57105304868436 54.86960916453584,100.57597825475716 54.4808651596289,100.57425603054337 54.08958863474307,100.56550826825693 53.69858499158202,100.5498767750173 53.310055996693286,100.52752870627398 52.92381638360354,100.49842587630219 52.53945801016894,100.46251092680943 52.15721270545777,100.41978155213098 51.777373111917676,100.37024067798802 51.400060295526096,100.31387647047593 51.02537873347693,100.25067566866328 50.65347890216551,100.18062896863556 50.2845158018849,100.1037274556402 49.918632100797474,100.01996115407034 49.55596923368362,99.9293199822192 49.196671941463414,99.831794142786 48.840885301237556,99.72737386738947 48.488753503768315,99.61604931140229 48.140420648208355,99.49781062231655 47.79603107132498,99.3726479680648 47.45572913484323,99.24055151872655 47.119659136787874,99.10151143890162 46.787965368385734,98.95551789260504 46.46079213794047,98.80256104532074 46.13828375560687,98.64263106269198 45.82058452696179,98.47571810996841 45.50783875707822,98.30181235235614 45.20019075225623,98.12090395516611 44.897784818933175,97.93298308372177 44.60076526321731,97.73803990332097 44.30927639117964,97.53606457925571 44.023462508979534,97.32704727681558 43.743467922786316,97.11097816130065 43.46943693874511,96.88784739804665 43.20151386299882,96.65764515235301 42.93984300169895,96.42036158937931 42.68456866099566,96.17598687441864 42.435835147028904,95.92451117328791 42.193786765946406,95.66592465131048 41.95856782392787,95.40021747185297 41.73032262712367,95.1273798001093 41.509195481566245,94.84740180857871 41.29533069339704,94.56027366299732 41.088872569197115,94.26598550182575 40.88996541514407,93.9645274885579 40.69875353577442,93.65588988852014 40.51538123711783,93.34006287438685 40.33999283133098,93.01703623864724 40.172732625044425,92.68680011669029 40.01374490201406,92.34934606328626 39.86317396644665,92.00466436422224 39.72116420794793,91.65274000624186 39.5878599404447,91.29356267199913 39.463405159043575,90.92714182707296 39.347944138887264,90.55346956068495 39.241622345355495,90.17246410735589 39.14458420766591,89.78410799589336 39.05696971163323,89.3886594701128 38.97892267675081,88.98613889246879 38.91060351045725,88.57553733648979 38.85215843687455,88.15672595642053 38.80367175539407,87.73341836189213 38.76528023571544,87.30607235800323 38.73735181691787,86.86080159334489 38.720060339293326,86.3957636272884 38.712716609264334,85.96266515676568 38.71407548319026,85.60448154572299 38.72159410501531,85.29135846027518 38.733113207882596,84.98540856050126 38.748869074979794,84.6776878111578 38.769460379148015,84.36629081694525 38.79486897933298,84.0514107622984 38.82498412652441,83.73355591077247 38.859860380565536,83.41267209726725 38.899577418142904,83.08861970189815 38.944170612950295,82.76140983640902 38.9936685273643,82.43107678661973 39.04811159688522,82.09761444254052 39.10754210393083,81.76101041043265 39.17199914897971,81.42126312243734 39.24152133176695,81.07837271437036 39.31614810476194,80.732336420798 39.39591905618272,80.38315101443044 39.48087354572399,80.03081404548044 39.571050896283744,79.67532318935376 39.66649049200097,79.31667591309669 39.76723172698792,78.95486964982348 39.87331397894531,78.5899018884852 39.98477662287103,78.22177012722874 40.10165903816093,77.85047184923788 40.22400060494324,77.47600453520455 40.351840702167685,77.0983656698304 40.485218708585506,76.71755273849222 40.624174003263796,76.33356322549238 40.768745965323404,75.94639461495024 40.918973973800504,75.55604439127322 41.07489740771676,75.16251003891819 41.23655564611651,74.76578904226486 41.40398806804801,74.3658788856795 41.57723405255345,73.96277705354923 41.756332978673946,73.55648103026459 41.94132422545227,73.1469883002107 42.132247171931446,72.73429634777168 42.32914119715413,72.31840265733295 42.5320456801628,71.89930471328046 42.741,71.477" stroke="black" fill="none" stroke-width="0.5"/>
</svg>