<svg xmlns="http://www.w3.org/2000/svg" version="1.1" fill="none" stroke="black" stroke-width="0.5"><path d="M 11.5376,3.9477 11.628392274934223,3.8857176825072846 11.727689571336864,3.8459293991632384 11.83177012324705,3.8283017185203776 11.93691216470391,3.832801209131218 12.03939392974657,3.8593944395482755 12.135493652414157,3.9080479783240665 12.220994237638186,3.9765580699713854 12.301311417525314,4.047950678901614 12.38162859741244,4.119343287831843 12.461945777299569,4.190735896762071 12.542262957186697,4.262128505692299 12.622580137073824,4.3335211146225285 12.702897316960952,4.404913723552757 12.78321449684808,4.476306332482985 12.863531676735207,4.547698941413214 12.943848856622335,4.619091550343442 13.024166036509461,4.69048415927367 13.10448321639659,4.7618767682039 13.184800396283718,4.833269377134128 13.265117576170844,4.904661986064356 13.345434756057973,4.976054594994585 13.425751935945101,5.047447203924813 13.506069115832227,5.118839812855042 13.586386295719356,5.190232421785271 13.666703475606482,5.261625030715499 13.74702065549361,5.333017639645727 13.827337835380739,5.404410248575957 13.907655015267865,5.475802857506184 13.987972195154994,5.547195466436413 14.06828937504212,5.618588075366642 14.148606554929248,5.68998068429687 14.228923734816377,5.7613732932270985 14.309240914703503,5.832765902157327 14.38955809459063,5.904158511087555 14.469875274477758,5.975551120017784 14.550192454364886,6.046943728948013 14.630509634252014,6.118336337878241 14.710826814139143,6.18972894680847 14.79114399402627,6.261121555738699 14.871461173913396,6.332514164668927 14.951778353800524,6.4039067735991555 15.032095533687652,6.475299382529384 15.112412713574779,6.546691991459612 15.192729893461907,6.618084600389841 15.273047073349034,6.689477209320069 15.353364253236162,6.760869818250298 15.43368143312329,6.832262427180527 15.513998613010417,6.903655036110755 15.594315792897545,6.975047645040983 15.674632972784671,7.046440253971212 15.7549501526718,7.117832862901441 15.835267332558928,7.189225471831669 15.915584512446054,7.260618080761898 15.995901692333183,7.332010689692126 16.07621887222031,7.403403298622355 16.156536052107437,7.474795907552584 16.236853231994566,7.546188516482811 16.31717041188169,7.6175811254130394 16.397487591768822,7.688973734343269 16.477804771655947,7.760366343273497 16.558121951543075,7.831758952203726 16.638439131430204,7.903151561133955 16.71875631131733,7.974544170064183 16.79907349120446,8.045936778994411 16.879390671091585,8.11732938792464 16.959707850978713,8.188721996854868 17.04002503086584,8.260114605785096 17.120342210752966,8.331507214715325 17.200659390640098,8.402899823645553 17.280976570527223,8.474292432575782 17.36129375041435,8.54568504150601 17.44161093030148,8.61707765043624 17.521928110188608,8.688470259366468 17.602245290075736,8.759862868296697 17.68256246996286,8.831255477226925 17.76287964984999,8.902648086157154 17.843196829737117,8.974040695087382 17.923514009624245,9.04543330401761 18.003831189511374,9.116825912947839 18.0841483693985,9.188218521878067 18.164465549285627,9.259611130808297 18.244782729172755,9.331003739738524 18.325099909059883,9.402396348668754 18.40541708894701,9.47378895759898 18.485734268834136,9.54518156652921 18.566051448721264,9.616574175459439 18.646368628608393,9.687966784389667 18.72668580849552,9.759359393319896 18.80700298838265,9.830752002250126 18.887320168269774,9.902144611180352 18.967637348156902,9.973537220110583 19.04795452804403,10.04492982904081 19.12827170793116,10.116322437971037 19.208588887818287,10.187715046901268 19.288906067705412,10.259107655831494 19.36922324759254,10.330500264761724 19.44954042747967,10.401892873691953 19.529857607366797,10.473285482622181 19.610174787253925,10.54467809155241 19.69049196714105,10.616070700482638 19.770861767822367,10.700227430793637 19.82775559894377,10.795139018254881 19.86061830634814,10.896007030801858 19.870779344773233,10.999335603904294 19.859568168956798,11.101628873031908 19.828314233636593,11.199390973654424 19.778346993550368,11.289126041241563 19.71099590343588,11.36733821126305 19.62759041803088,11.430531619188601 19.52945999207312,11.475210400487946 19.41793408030036,11.497878690630802 19.3053858001342,11.5 19.197925323702695,11.5 19.090464847271193,11.5 18.983004370839687,11.5 18.875543894408185,11.5 18.768083417976683,11.5 18.660622941545178,11.5 18.553162465113676,11.5 18.442992872795045,11.501063397429588 18.331791025221477,11.509326993145965 18.222986470624246,11.5255292145962 18.116872113747018,11.549377157036618 18.01374085933346,11.580577915723552 17.91388561212725,11.618838585913329 17.817599276872055,11.66386626286228 17.725174758311542,11.715368041826734 17.63690496118939,11.77305101806302 17.553082790249263,11.836622286827469 17.474001150234837,11.905788943376407 17.39995294588978,11.980258082966163 17.33123108195776,12.059736800853072 17.26812846318245,12.143932192293457 17.21093799430752,12.232551352543652 17.159952580076645,12.325301376859983 17.115465125233495,12.421889360498778 17.077768534521734,12.522022398716372 17.047155712685036,12.62540758676909 17.023919564467075,12.731752019913262 17.00835299461152,12.840762793405219 17.00074890786204,12.952147002501286 17.0,13.061915223956039 17.0,13.169375700387542 17.0,13.276836176819046 17.0,13.384296653250551 17.0,13.491757129682055 17.0,13.599217606113557 17.0,13.70667808254506 17.0,13.814138558976564 17.0,13.92159903540807 17.0,14.029059511839574 17.0,14.136519988271077 17.0,14.24398046470258 17.0,14.351440941134083 17.0,14.458901417565587 17.0,14.566361893997092 17.0,14.673822370428596 17.0,14.781282846860098 17.0,14.888743323291601 17.0,14.996203799723105 17.0,15.103664276154609 17.0,15.211124752586112 17.0,15.318585229017614 17.0,15.42604570544912 17.0,15.533506181880623 17.0,15.640966658312127 17.0,15.748427134743633 17.0,15.855887611175133 17.0,15.963348087606636 17.0,16.070808564038142 17.0,16.178269040469644 17.0,16.28572951690115 17.0,16.393189993332655 17.0,16.500650469764153 17.0,16.60811094619566 17.0,16.715571422627164 17.0,16.82303189905867 17.0,16.93049237549017 17.0,17.037952851921673 17.0,17.14541332835318 17.0,17.25287380478468 17.0,17.360334281216186 17.0,17.467794757647688 17.0,17.575255234079194 17.0,17.682715710510696 17.0,17.790176186942197 17.0,17.897636663373703 17.0,18.00509713980521 17.0,18.112557616236714 17.0,18.220018092668212 17.0,18.327478569099718 17.0,18.434939045531223 17.0,18.542399521962725 17.0,18.64985999839423 17.0,18.757320474825733 17.0,18.864780951257234 17.0,18.97224142768874 17.0,19.079701904120242 17.0,19.187162380551747 17.0,19.29462285698325 17.0,19.402083333414755 17.0,19.509543809846257 17.0,19.617004286277762 17.0,19.724464762709268 17.0,19.83192523914077 17.0,19.93938571557227 16.99764727673045,20.048805932455842 16.975379975186648,20.155371494069264 16.93175716758616,20.252287406113997 16.869416678645823,20.336915843873207 16.79099633308249,20.40661898263004 16.699133955612993,20.458758997667665 16.596467370954183,20.490698064269232 16.486420422309408,20.5 16.378959945877902,20.5 16.271499469446397,20.5 16.1640389930149,20.5 16.056578516583393,20.5 15.949118040151887,20.5 15.841657563720384,20.5 15.73419708728888,20.5 15.626736610857378,20.5 15.519276134425875,20.5 15.41181565799437,20.5 15.304355181562865,20.5 15.196894705131362,20.5 15.089434228699862,20.5 14.981973752268356,20.5 14.874513275836852,20.5 14.767052799405349,20.5 14.659592322973843,20.5 14.552131846542343,20.5 14.44467137011084,20.5 14.337210893679334,20.5 14.22975041724783,20.5 14.122289940816326,20.5 14.014829464384821,20.5 13.907368987953319,20.5 13.799908511521815,20.5 13.692448035090312,20.5 13.584987558658808,20.5 13.477527082227304,20.5 13.370066605795802,20.5 13.262606129364297,20.5 13.155145652932793,20.5 13.04768517650129,20.5 12.940224700069784,20.5 12.83276422363828,20.5 12.72530374720678,20.5 12.617843270775271,20.5 12.510382794343771,20.5 12.402922317912271,20.5 12.295461841480762,20.5 12.188001365049262,20.5 12.080540888617755,20.5 11.973080412186253,20.5 11.865619935754752,20.5 11.758159459323245,20.5 11.650698982891743,20.5 11.543238506460236,20.5 11.435778030028736,20.5 11.328317553597234,20.5 11.220857077165727,20.5 11.113396600734227,20.5 11.005936124302718,20.5 10.898475647871216,20.5 10.791015171439716,20.5 10.683554695008208,20.5 10.576094218576706,20.5 10.468633742145201,20.5 10.361173265713699,20.5 10.253712789282197,20.5 10.14625231285069,20.5 10.03879183641919,20.5 9.93133135998768,20.5 9.82387088355618,20.5 9.716410407124673,20.5 9.608949930693171,20.5 9.50148945426167,20.5 9.394028977830164,20.5 9.286568501398662,20.5 9.179108024967155,20.5 9.071647548535655,20.5 8.964187072104153,20.5 8.856726595672644,20.5 8.749266119241144,20.5 8.641805642809636,20.5 8.534345166378134,20.5 8.426884689946634,20.5 8.319424213515127,20.5 8.211963737083627,20.5 8.104503260652118,20.5 7.997042784220618,20.5 7.889582307789116,20.5 7.782121831357609,20.5 7.6746613549261085,20.5 7.567200878494601,20.5 7.459740402063099,20.5 7.352279925631597,20.5 7.244543763696634,20.499970944608556 7.134935042631362,20.486695964507717 7.033959792155905,20.451042933581803 6.9442539060023725,20.3956495890601 6.868453277902853,20.323153668171898 6.809193801589457,20.236192908146485 6.769111370794275,20.137405046213157 6.750841879249408,20.02942781960119 6.74999,19.92064427127183 6.74999,19.813183794840324 6.74999,19.705723318408822 6.74999,19.59826284197732 6.74999,19.49080236554581 6.74999,19.383341889114313 6.74999,19.275881412682804 6.74999,19.1684209362513 6.74999,19.060960459819803 6.74999,18.953499983388294 6.74999,18.846039506956792 6.74999,18.738579030525287 6.74999,18.631118554093785 6.74999,18.523658077662283 6.74999,18.416197601230778 6.74999,18.308737124799276 6.74999,18.201276648367767 6.74999,18.093816171936265 6.74999,17.986355695504766 6.74999,17.878895219073257 6.74999,17.771434742641755 6.74999,17.66397426621025 6.74999,17.556513789778748 6.74999,17.449053313347246 6.74999,17.34159283691574 6.74999,17.23413236048424 6.74999,17.12667188405273 6.74999,17.019211407621228 6.74999,16.91175093118973 6.74999,16.80429045475822 6.74999,16.69682997832672 6.74999,16.589369501895213 6.74999,16.48190902546371 6.74999,16.374448549032202 6.74999,16.266988072600704 6.74999,16.1595275961692 6.74999,16.052067119737693 6.74999,15.944606643306194 6.74999,15.837146166874685 6.74999,15.729685690443183 6.74999,15.622225214011683 6.74999,15.514764737580176 6.74999,15.407304261148674 6.74999,15.299843784717169 6.74999,15.192383308285667 6.74999,15.084922831854165 6.74999,14.977462355422658 6.74999,14.870001878991156 6.74999,14.762541402559648 6.74999,14.655080926128147 6.74999,14.547620449696646 6.74999,14.44015997326514 6.74999,14.332699496833637 6.74999,14.22523902040213 6.74999,14.11777854397063 6.74999,14.010318067539128 6.74999,13.90285759110762 6.74999,13.79539711467612 6.74999,13.687936638244611 6.74999,13.580476161813111 6.74999,13.473015685381604 6.74999,13.365555208950102 6.74999,13.2580947325186 6.74999,13.150634256087095 6.742896234870959,13.04060857180215 6.713392566279438,12.936895560806116 6.663393690293223,12.84369056794256 6.59553550064441,12.763631330440761 6.512453891065094,12.699355585530009 6.416784755287384,12.653501070439596 6.311163987043367,12.62870552239881 6.199425850048126,12.627525590666572 6.092985085587652,12.650151776502724 5.996241867104716,12.694091193580833 5.911832088331429,12.756706104671608 5.842391642999878,12.83535877254576 5.790556424842173,12.927411459973998 5.758962327590406,13.030226429727032 5.74999,13.140275623337926 5.74999,13.247736099769428 5.74999,13.355196576200935 5.74999,13.462657052632435 5.74999,13.570117529063937 5.74999,13.677578005495445 5.74999,13.785038481926946 5.74999,13.892498958358452 5.74999,13.999959434789954 5.74999,14.107419911221456 5.74999,14.214880387652963 5.74999,14.322340864084463 5.74999,14.42980134051597 5.74999,14.537261816947472 5.74999,14.644722293378972 5.74999,14.75218276981048 5.74999,14.859643246241982 5.74999,14.967103722673489 5.74999,15.074564199104989 5.74999,15.182024675536496 5.74999,15.289485151967998 5.74999,15.3969456283995 5.74999,15.504406104831006 5.74999,15.611866581262507 5.74999,15.719327057694015 5.74999,15.826787534125515 5.74999,15.934248010557017 5.74999,16.041708486988526 5.74999,16.149168963420024 5.74999,16.256629439851533 5.74999,16.364089916283035 5.74999,16.471550392714533 5.74999,16.579010869146042 5.74999,16.686471345577544 5.74999,16.79393182200905 5.74999,16.901392298440552 5.74999,17.008852774872054 5.74999,17.11631325130356 5.74999,17.22377372773506 5.74999,17.33123420416657 5.74999,17.43869468059807 5.74999,17.54615515702957 5.74999,17.65361563346108 5.74999,17.761076109892578 5.74999,17.868536586324087 5.74999,17.97599706275559 5.74999,18.083457539187094 5.74999,18.190918015618596 5.74999,18.298378492050098 5.74999,18.405838968481604 5.74999,18.513299444913105 5.74999,18.620759921344614 5.74999,18.728220397776113 5.74999,18.835680874207615 5.74999,18.943141350639124 5.74999,19.050601827070622 5.74999,19.15806230350213 5.74999,19.265522779933633 5.74999,19.37298325636513 5.74999,19.48044373279664 5.74999,19.587904209228142 5.74999,19.695364685659648 5.74999,19.80282516209115 5.74999,19.91028563852265 5.750104035638787,20.018688263518982 5.755600341290037,20.130638468573014 5.769134543949095,20.240291023705105 5.7904137925077315,20.347353026600317 5.819145235857719,20.451531574943726 5.8550360228908325,20.552533766420417 5.897793302498841,20.65006669871545 5.947124223573521,20.74383746951391 6.002735935006641,20.83355317650086 6.064335585689975,20.918920917361383 6.1316303245153,20.999647789780557 6.204327300374381,21.075440891443442 6.282133662158998,21.146007320035125 6.364756558760916,21.211054173240672 6.45190313907191,21.270288548745157 6.543280551983759,21.323417544233664 6.638595946388225,21.370148257391257 6.737556471177092,21.410187785903016 6.839869275242121,21.44324322745401 6.945241507475094,21.469021679729316 7.053380316767775,21.487230240414007 7.1639928520119405,21.49757600719316 7.275346814210809,21.5 7.38280729064231,21.5 7.490267767073817,21.5 7.597728243505318,21.5 7.705188719936819,21.5 7.812649196368326,21.5 7.9201096727998275,21.5 8.027570149231336,21.5 8.135030625662836,21.5 8.242491102094338,21.5 8.349951578525845,21.5 8.457412054957347,21.5 8.564872531388854,21.5 8.672333007820354,21.5 8.779793484251856,21.5 8.887253960683363,21.5 8.994714437114864,21.5 9.10217491354637,21.5 9.209635389977873,21.5 9.317095866409375,21.5 9.42455634284088,21.5 9.532016819272382,21.5 9.63947729570389,21.5 9.746937772135391,21.5 9.854398248566898,21.5 9.9618587249984,21.5 10.0693192014299,21.5 10.176779677861408,21.5 10.284240154292915,21.5 10.391700630724415,21.5 10.499161107155917,21.5 10.606621583587419,21.5 10.714082060018919,21.5 10.821542536450433,21.5 10.929003012881934,21.5 11.036463489313435,21.5 11.143923965744936,21.5 11.251384442176438,21.5 11.35884491860795,21.5 11.466305395039452,21.5 11.573765871470954,21.5 11.681226347902456,21.5 11.788686824333956,21.5 11.896147300765469,21.5 12.00360777719697,21.5 12.11106825362847,21.5 12.218528730059973,21.5 12.325989206491474,21.5 12.433449682922987,21.5 12.540910159354489,21.5 12.64837063578599,21.5 12.755831112217491,21.5 12.863291588648991,21.5 12.970752065080505,21.5 13.078212541512006,21.5 13.185673017943508,21.5 13.29313349437501,21.5 13.400593970806511,21.5 13.508054447238024,21.5 13.615514923669526,21.5 13.722975400101026,21.5 13.830435876532526,21.5 13.937896352964028,21.5 14.04535682939554,21.5 14.152817305827043,21.5 14.260277782258544,21.5 14.367738258690046,21.5 14.475198735121547,21.5 14.58265921155306,21.5 14.690119687984561,21.5 14.797580164416063,21.5 14.905040640847563,21.5 15.012501117279065,21.5 15.119961593710578,21.5 15.22742207014208,21.5 15.33488254657358,21.5 15.442343023005082,21.5 15.549803499436596,21.5 15.657263975868096,21.5 15.764724452299598,21.5 15.872184928731098,21.5 15.9796454051626,21.5 16.087105881594113,21.5 16.194566358025615,21.5 16.302026834457116,21.5 16.409487310888615,21.5 16.51784876616437,21.499895979393283 16.629815249965784,21.494460220624948 16.739486246200148,21.48098403071346 16.846568850123806,21.459760314402494 16.950770156993084,21.43108197643572 17.05179726206431,21.395241921556806 17.149357260593828,21.352533054509422 17.243157247837942,21.303248280037245 17.332904319052993,21.247680502883938 17.418305569495313,21.18612262779318 17.49906809442123,21.118867559508633 17.57489898908708,21.046208202773965 17.645505348749175,20.96843746233286 17.710594268663858,20.885848242928986 17.769872844087452,20.798733449306006 17.82304817027629,20.707385986207598 17.869827342486705,20.612098758377417 17.909917455975016,20.513164670559156 17.943025605997555,20.410876627496478 17.968858887810658,20.30552753393305 17.987124396670648,20.197410294612542 17.99752922783386,20.086817814278614 18.0,19.97543500004166 18.0,19.867974523610158 18.0,19.760514047178656 18.0,19.653053570747154 18.0,19.54559309431564 18.0,19.43813261788414 18.0,19.33067214145264 18.0,19.22321166502114 18.0,19.115751188589638 18.0,19.008290712158125 18.0,18.900830235726623 18.0,18.79336975929512 18.0,18.68590928286362 18.0,18.57844880643212 18.0,18.47098833000061 18.0,18.363527853569106 18.0,18.256067377137605 18.0,18.148606900706103 18.0,18.0411464242746 18.0,17.933685947843088 18.0,17.826225471411586 18.0,17.718764994980084 18.0,17.611304518548586 18.0,17.503844042117084 18.0,17.39638356568557 18.0,17.28892308925407 18.0,17.181462612822568 18.0,17.074002136391066 18.0,16.966541659959553 18.0,16.85908118352805 18.0,16.75162070709655 18.0,16.64416023066505 18.0,16.53669975423355 18.0,16.429239277802036 18.0,16.321778801370534 18.0,16.214318324939033 18.0,16.10685784850753 18.0,15.999397372076032 18.0,15.891936895644518 18.0,15.784476419213018 18.0,15.677015942781516 18.0,15.569555466350014 18.0,15.462094989918512 18.0,15.354634513487 18.0,15.247174037055498 18.0,15.139713560623997 18.0,15.032253084192496 18.0,14.924792607760995 18.0,14.817332131329481 18.0,14.70987165489798 18.0,14.602411178466479 18.0,14.494950702034977 18.0,14.387490225603477 18.0,14.280029749171963 18.0,14.172569272740462 18.0,14.06510879630896 18.0,13.95764831987746 18.0,13.850187843445958 18.0,13.742727367014446 18.0,13.635266890582944 18.0,13.527806414151442 18.0,13.420345937719942 18.0,13.312885461288442 18.0,13.205424984856927 18.0,13.097964508425427 18.000097816514135,12.990009957335047 18.01431841057775,12.880711094085896 18.050803978847362,12.78014448500643 18.106921523842246,12.690947736091049 18.18003804808165,12.615758453334193 18.267520554084836,12.557214242730263 18.366736044371073,12.517952710273672 18.475051521459623,12.500611461958835 18.583668118577272,12.5 18.69112859500877,12.5 18.798589071440272,12.5 18.906049547871774,12.5 19.013510024303272,12.5 19.120970500734785,12.5 19.228430977166287,12.5 19.33589145359779,12.5 19.452751235180155,12.497920144201037 19.570606566530167,12.487586801881154 19.684366892930374,12.468939828508887 19.79388459002381,12.442367565857717 19.899012033453563,12.408258355701124 19.99960159886269,12.367000539812583 20.095505661894258,12.318982459965572 20.18657659819134,12.264592457933563 20.27266678339699,12.204218875490048 20.35362859315427,12.138250054408497 20.429314403106254,12.067074336462388 20.499576588896005,11.991080063425201 20.564267526166596,11.910655577070402 20.623239590561074,11.82618921917149 20.676345157722512,11.73806933150193 20.72343660329398,11.646684255835202 20.764366302918543,11.552422333944776 20.79898663223926,11.455671907604147 20.827149966899196,11.356821318586785 20.84870868254142,11.256258908666165 20.863515154808994,11.15437301961577 20.871421759344987,11.051551993209062 20.872280871792462,10.948184171219543 20.865944867794482,10.84465789542068 20.852266122994116,10.741361507585951 20.831097013034427,10.638683349488835 20.802289913558475,10.537011762902797 20.76569720020933,10.436735089601337 20.721171248630064,10.338241671357922 20.66856443446373,10.241919849946031 20.6077291333534,10.148157967139142 20.538517720942128,10.057344364710723 20.460782572872997,9.969867384434272 20.37437606478906,9.886115368083255 20.293096998261838,9.813820199207619 20.212780290619786,9.742427059001951 20.132463582977724,9.671033918796274 20.052146875335673,9.599640778590604 19.97183016769362,9.528247638384936 19.891513460051566,9.456854498179267 19.811196752409515,9.385461357973599 19.730880044767453,9.314068217767922 19.6505633371254,9.242675077562252 19.57024662948335,9.171281937356584 19.489929921841295,9.099888797150914 19.409613214199243,9.028495656945246 19.32929650655718,8.95710251673957 19.24897979891513,8.8857093765339 19.16866309127308,8.814316236328231 19.088346383631023,8.742923096122562 19.008029675988972,8.671529955916894 18.92771296834691,8.600136815711217 18.84739626070486,8.528743675505547 18.767079553062807,8.457350535299879 18.686762845420752,8.38595739509421 18.6064461377787,8.314564254888541 18.52612943013664,8.243171114682864 18.445812722494587,8.171777974477195 18.365496014852532,8.100384834271527 18.28517930721048,8.028991694065857 18.20486259956843,7.957598553860188 18.124545891926367,7.886205413654511 18.044229184284315,7.814812273448842 17.963912476642264,7.743419133243173 17.88359576900021,7.672025993037504 17.803279061358158,7.600632852831835 17.722962353716095,7.5292397126261585 17.642645646074044,7.45784657242049 17.56232893843199,7.386453432214821 17.482012230789937,7.315060292009152 17.401695523147886,7.243667151803483 17.321378815505824,7.172274011597806 17.241062107863772,7.100880871392137 17.160745400221717,7.029487731186468 17.080428692579666,6.958094590980799 17.000111984937604,6.8867014507751225 16.919795277295552,6.815308310569454 16.8394785696535,6.743915170363785 16.759161862011446,6.672522030158115 16.678845154369395,6.601128889952447 16.598528446727332,6.52973574974677 16.51821173908528,6.458342609541101 16.437895031443226,6.386949469335432 16.357578323801174,6.3155563291297625 16.277261616159123,6.2441631889240945 16.19694490851706,6.172770048718418 16.11662820087501,6.101376908512748 16.036311493232958,6.02998376830708 15.955994785590903,5.958590628101411 15.875678077948852,5.887197487895742 15.79536137030679,5.815804347690065 15.715044662664738,5.744411207484396 15.634727955022685,5.6730180672787265 15.554411247380632,5.6016249270730585 15.47409453973858,5.53023178686739 15.393777832096518,5.458838646661713 15.313461124454466,5.387445506456043 15.233144416812413,5.316052366250375 15.15282770917036,5.244659226044705 15.072511001528309,5.173266085839036 14.992194293886246,5.10187294563336 14.911877586244195,5.030479805427691 14.83156087860214,4.959086665222022 14.751244170960089,4.887693525016353 14.670927463318037,4.816300384810685 14.590610755675975,4.744907244605007 14.510294048033924,4.673514104399338 14.42997734039187,4.60212096419367 14.349660632749817,4.530727823988 14.269343925107766,4.459334683782331 14.189027217465704,4.3879415435766544 14.108710509823652,4.316548403370986 14.028393802181597,4.245155263165317 13.948077094539546,4.173762122959648 13.867760386897492,4.102368982753979 13.787443679255432,4.030975842548302 13.707126971613379,3.959582702342633 13.626810263971326,3.888189562136964 13.546493556329274,3.8167964219312953 13.466176848687223,3.7454032817256264 13.38586014104516,3.6740101415199495 13.305543433403107,3.6026170013142806 13.225226725761054,3.5312238611086118 13.144910018119003,3.459830720902943 13.06459331047695,3.388437580697274 12.984276602834889,3.317044440491597 12.903959895192836,3.245651300285928 12.821600027389279,3.1735509662815837 12.73386019432062,3.1058887513945415 12.642507751823743,3.0455662396148413 12.547956452588194,2.9925871828372466 12.450620049303547,2.9469553329565388 12.350912294659347,2.9086744418674813 12.249246941345147,2.877748261464842 12.146037742050503,2.854180543643391 12.041698449464956,2.837975040297896 11.936642816278084,2.8291355033231294 11.831284595179431,2.827665684613858 11.726037538858552,2.8335693360648517 11.621315400004999,2.846850209570879 11.517531931308316,2.8675120570267127 11.41510088545808,2.895558630327116 11.314436015143835,2.930993681366861 11.215951073055134,2.9738209620407168 11.120059811881521,3.0240442242434584 11.027175984312573,3.081667219869843 10.937713343037831,3.1466937008146463 10.853255005260923,3.217203018745618 10.771665128673956,3.2871376027038326 10.690075252086979,3.357072186662055 10.60848537550001,3.42700677062027 10.526895498913042,3.4969413545784844 10.445305622326075,3.566875938536699 10.363715745739107,3.6368105224949137 10.282125869152129,3.706745106453136 10.200535992565161,3.776679690411351 10.118946115978193,3.8466142743695655 10.037356239391226,3.91654885832778 9.955766362804257,3.9864834422859947 9.87417648621728,4.056418026244217 9.792586609630312,4.1263526102024315 9.710996733043345,4.1962871941606465 9.629406856456376,4.266221778118862 9.547816979869408,4.336156362077076 9.466227103282431,4.406090946035298 9.384637226695464,4.476025529993513 9.303047350108494,4.545960113951727 9.221457473521527,4.615894697909942 9.13986759693456,4.685829281868157 9.058277720347583,4.755763865826379 8.976687843760613,4.8256984497845945 8.895097967173646,4.895633033742809 8.813508090586678,4.965567617701024 8.73191821399971,5.035502201659238 8.650328337412732,5.10543678561746 8.568738460825765,5.175371369575675 8.487148584238797,5.24530595353389 8.405558707651828,5.315240537492104 8.32396883106486,5.385175121450319 8.242378954477884,5.455109705408542 8.160789077890914,5.525044289366756 8.079199201303947,5.594978873324971 7.997609324716979,5.664913457283186 7.916019448130012,5.7348480412414 7.834429571543035,5.804782625199623 7.752839694956067,5.874717209157837 7.671249818369098,5.944651793116051 7.589659941782131,6.0145863770742665 7.508070065195163,6.0845209610324815 7.426480188608185,6.154455544990704 7.344890312021217,6.224390128948919 7.26330043543425,6.294324712907133 7.18171055884728,6.364259296865348 7.100120682260313,6.434193880823562 7.018530805673336,6.504128464781785 6.936940929086369,6.574063048739999 6.8553510524994,6.643997632698214 6.773761175912432,6.7139322166564295 6.692171299325464,6.783866800614643 6.610581422738487,6.853801384572867 6.528991546151519,6.92373596853108 6.447401669564551,6.993670552489295 6.365811792977583,7.06360513644751 6.284221916390606,7.133539720405732 6.202632039803638,7.203474304363947 6.1210421632166705,7.273408888322161 6.039452286629701,7.343343472280377 5.9578624100427335,7.413278056238591 5.876272533455756,7.483212640196813 5.794682656868789,7.553147224155028 5.71309278028182,7.623081808113243 5.6315029036948525,7.693016392071458 5.549913027107885,7.762950976029671 5.468323150520908,7.832885559987895 5.38673327393394,7.9028201439461085 5.3051433973469715,7.972754727904324 5.223553520760004,8.042689311862539 5.141963644173035,8.112623895820754 5.060373767586058,8.182558479778976 4.9787838909990905,8.25249306373719 4.897194014412122,8.322427647695404 4.815604137825154,8.39236223165362 4.734014261238186,8.462296815611834 4.652424384651209,8.532231399570056 4.570834508064241,8.602165983528272 4.489244631477273,8.672100567486487 4.407654754890306,8.7420351514447 4.326064878303337,8.811969735402915 4.244475001716361,8.881904319361137 4.162885125129392,8.951838903319352 4.081295248542424,9.021773487277567 3.9997053719554554,9.091708071235782 3.918115495368488,9.161642655193997 3.8365256187815104,9.23157723915222 3.754935742194543,9.301511823110433 3.673280315060667,9.37150644315026 3.5980086662003434,9.452479062190049 3.543844154752283,9.544943547001774 3.51107267147368,9.645183317741886 3.4999801071217402,9.749481794566796 3.5108523524536546,9.854122397632953 3.543975298226621,9.955388547096796 3.5996348351978362,10.049563663114757 3.6759799027650746,10.130920897430537 3.7652815920495453,10.191654979456384 3.863509442667371,10.231077068262191 3.9669469961767536,10.248904508388408 4.071877794135896,10.244854644375481 4.1745853781030124,10.21864482076386 4.2713532896362825,10.169992382093996 4.357671886849826,10.101921252635535 4.439261979044713,10.031986920219223 4.5208520712396,9.962052587802912 4.602442163434495,9.892118255386594 4.684032255629382,9.822183922970282 4.7656223478242685,9.752249590553971 4.847212440019154,9.68231525813766 4.928802532214041,9.612380925721347 5.0103926244089365,9.542446593305028 5.091982716603823,9.472512260888717 5.17357280879871,9.402577928472406 5.2551629009935965,9.332643596056094 5.336752993188483,9.262709263639783 5.418343085383379,9.192774931223463 5.499933177578265,9.122840598807151 5.581523269773152,9.05290626639084 5.663113361968039,8.982971933974529 5.744703454162925,8.913037601558218 5.826293546357821,8.8431032691419 5.907883638552708,8.773168936725588 5.989473730747594,8.703234604309277 6.071063822942481,8.633300271892965 6.1526539151373765,8.563365939476645 6.234244007332263,8.493431607060334 6.31583409952715,8.423497274644022 6.3974241917220365,8.353562942227711 6.479014283916923,8.2836286098114 6.560604376111819,8.213694277395081 6.642194468306705,8.14375994497877 6.723784560501592,8.073825612562459 6.805374652696478,8.003891280146146 6.8869647448913645,7.933956947729835 6.96855483708626,7.864022615313516 7.0501449292811476,7.794088282897205 7.131735021476033,7.724153950480893 7.21332511367092,7.654219618064582 7.294915205865806,7.584285285648271 7.376505298060702,7.514350953231951 7.458095390255589,7.44441662081564 7.5396854824504755,7.374482288399328 7.621275574645361,7.304547955983017 7.702865666840248,7.234613623566705 7.7844557590351435,7.164679291150387 7.866045851230031,7.094744958734076 7.947635943424917,7.024810626317764 8.029226035619804,6.954876293901453 8.11081612781469,6.884941961485141 8.192406220009586,6.8150076290688215 8.273996312204474,6.74507329665251 8.355586404399359,6.675138964236199 8.437176496594246,6.605204631819888 8.518766588789132,6.535270299403576 8.600356680984028,6.465335966987257 8.681946773178915,6.395401634570946 8.763536865373801,6.3254673021546335 8.845126957568688,6.255532969738322 8.926717049763575,6.185598637322012 9.00830714195847,6.1156643049056925 9.089897234153357,6.045729972489381 9.171487326348243,5.97579564007307 9.25307741854313,5.905861307656758 9.334667510738017,5.835926975240446 9.416257602932912,5.765992642824128 9.497847695127799,5.696058310407816 9.579437787322686,5.626123977991504 9.661027879517572,5.556189645575193 9.742617971712459,5.486255313158882 9.824208063907353,5.4163209807425625 9.90579815610224,5.346386648326252 9.987388248297126,5.27645231590994 10.068978340492013,5.206517983493629 10.1505684326869,5.136583651077317 10.232158524881797,5.066649318660998 10.313748617076683,4.996714986244687 10.39533870927157,4.926780653828375 10.476928801466457,4.856846321412064 10.558518893661343,4.786911988995753 10.640108985856237,4.7169776565794335 10.721699078051124,4.647043324163122 10.80328917024601,4.577108991746811 10.884879262440897,4.5071746593304995 10.966469354635795,4.43724032691418 11.04805944683068,4.367305994497869 11.129649539025568,4.297371662081557 11.211239631220453,4.227437329665245 11.29282972341534,4.157502997248934 11.374419815610235,4.087568664832615 11.456009907805122,4.0176343324163035 11.5376,3.9477 "/></svg>