<svg xmlns="http://www.w3.org/2000/svg" version="1.1" fill="none" stroke="black" stroke-width="0.5"><path d="M 11.5376,3.9477 11.626337196616593,3.887120648969443 11.725817423577963,3.846679566067995 11.831636116304765,3.828324414706545 11.938915327468717,3.833321014473614 12.042639012803972,3.861037365979085 12.138121106953957,3.910153310712718 12.221926929696876,3.977387124471207 12.302231567784288,4.048768585203706 12.382536205871698,4.120150045936206 12.462840843959109,4.191531506668704 12.543145482046521,4.262912967401203 12.62345012013393,4.334294428133703 12.703754758221342,4.4056758888662015 12.784059396308754,4.4770573495987005 12.864364034396164,4.5484388103311995 12.944668672483575,4.619820271063698 13.024973310570985,4.691201731796198 13.105277948658397,4.762583192528697 13.185582586745808,4.833964653261196 13.265887224833218,4.905346113993696 13.34619186292063,4.976727574726194 13.42649650100804,5.048109035458693 13.506801139095451,5.119490496191194 13.587105777182863,5.190871956923692 13.667410415270274,5.262253417656192 13.747715053357686,5.333634878388691 13.828019691445096,5.40501633912119 13.908324329532507,5.476397799853689 13.988628967619919,5.5477792605861875 14.068933605707329,5.619160721318687 14.14923824379474,5.690542182051186 14.229542881882152,5.761923642783685 14.309847519969562,5.833305103516184 14.390152158056972,5.904686564248684 14.470456796144385,5.976068024981184 14.550761434231795,6.047449485713682 14.631066072319205,6.118830946446181 14.711370710406618,6.19021240717868 14.791675348494028,6.26159386791118 14.871979986581438,6.33297532864368 14.95228462466885,6.404356789376178 15.032589262756261,6.475738250108677 15.112893900843671,6.5471197108411765 15.193198538931084,6.618501171573675 15.273503177018494,6.689882632306174 15.353807815105904,6.761264093038674 15.434112453193316,6.832645553771172 15.514417091280727,6.904027014503672 15.594721729368137,6.97540847523617 15.675026367455548,7.04678993596867 15.75533100554296,7.11817139670117 15.83563564363037,7.189552857433668 15.91594028171778,7.260934318166168 15.996244919805193,7.332315778898667 16.0765495578926,7.403697239631167 16.156854195980014,7.475078700363665 16.237158834067426,7.546460161096164 16.317463472154834,7.6178416218286635 16.39776811024225,7.689223082561162 16.47807274832966,7.760604543293662 16.55837738641707,7.831986004026161 16.63868202450448,7.90336746475866 16.71898666259189,7.97474892549116 16.799291300679304,8.046130386223657 16.879595938766712,8.117511846956157 16.959900576854125,8.188893307688657 17.040205214941537,8.260274768421157 17.120509853028945,8.331656229153655 17.200814491116358,8.403037689886153 17.28111912920377,8.474419150618653 17.361423767291182,8.545800611351153 17.44172840537859,8.617182072083652 17.522033043466003,8.688563532816152 17.602337681553415,8.75994499354865 17.682642319640824,8.83132645428115 17.762946957728236,8.90270791501365 17.843251595815648,8.97408937574615 17.92355623390306,9.045470836478648 18.003860871990472,9.116852297211148 18.08416551007788,9.188233757943648 18.164470148165293,9.259615218676148 18.244774786252705,9.330996679408646 18.325079424340114,9.402378140141145 18.405384062427526,9.473759600873642 18.485688700514938,9.545141061606145 18.56599333860235,9.616522522338643 18.64629797668976,9.687903983071143 18.72660261477717,9.759285443803641 18.806907252864583,9.830666904536143 18.887211890951992,9.90204836526864 18.967516529039404,9.97342982600114 19.047821167126816,10.04481128673364 19.12812580521423,10.116192747466137 19.20843044330164,10.187574208198638 19.28873508138905,10.258955668931137 19.36903971947646,10.330337129663636 19.449344357563874,10.401718590396136 19.529648995651282,10.473100051128634 19.609953633738698,10.544481511861134 19.690258271826107,10.615862972593634 19.764481824373675,10.693546871981006 19.821353710378556,10.784459241651719 19.857181610788654,10.885458519185056 19.87004755739211,10.991893987925437 19.859888428030192,11.098706757803182 19.827405631527384,11.201022712200299 19.77403864539324,11.29412915638052 19.702362721179927,11.373879270347437 19.61518262625603,11.436180886576425 19.51647143702904,11.477850399835143 19.41104379889532,11.498008558617052 19.303618868452922,11.5 19.196175172338837,11.5 19.088731476224755,11.5 18.981287780110673,11.5 18.87384408399659,11.5 18.766400387882506,11.5 18.658956691768424,11.5 18.551513072488024,11.500015920544332 18.444074381192372,11.501052958312718 18.336923202552725,11.508945612444695 18.23060933607023,11.52439408422874 18.125676843511204,11.547398398508564 18.022669435932325,11.577876713595613 17.922120663018582,11.615683232790035 17.824546920299838,11.660617242708033 17.73044325436294,11.712432274096049 17.640281563359117,11.770844459658381 17.554510579195416,11.835539442589281 17.47358502217505,11.906207436962383 17.397980410646078,11.982539374002029 17.327998400879775,12.064050042586068 17.263998763099014,12.150331345171178 17.206318842321778,12.2409542745452 17.155270159465488,12.335467513964813 17.11113310495641,12.433396458190497 17.074149846598058,12.53424338028707 17.044515837818036,12.637489451356515 17.022370602146207,12.74259921247234 17.007788745885005,12.849027875091824 17.00072104116308,12.95623145419123 17.0,13.063672690635721 17.0,13.171116386749805 17.0,13.278560082863889 17.0,13.386003778977972 17.0,13.493447475092056 17.0,13.600891171206138 17.0,13.708334867320222 17.0,13.815778563434305 17.0,13.923222259548387 17.0,14.03066595566247 17.0,14.138109651776555 17.0,14.245553347890636 17.0,14.35299704400472 17.0,14.460440740118804 17.0,14.567884436232886 17.0,14.67532813234697 17.0,14.782771828461051 17.0,14.890215524575135 17.0,14.997659220689219 17.0,15.105102916803302 17.0,15.212546612917386 17.0,15.319990309031468 17.0,15.427434005145551 17.0,15.534877701259635 17.0,15.642321397373719 17.0,15.7497650934878 17.0,15.85720878960188 17.0,15.964652485715964 17.0,16.072096181830048 17.0,16.179539877944134 17.0,16.286983574058215 17.0,16.394427270172297 17.0,16.50187096628638 17.0,16.60931466240046 17.0,16.716758358514543 17.0,16.824202054628625 17.0,16.93164575074271 17.0,17.039089446856792 17.0,17.146533142970874 17.0,17.25397683908496 17.0,17.36142053519904 17.0,17.468864231313127 17.0,17.57630792742721 17.0,17.68375162354129 17.0,17.791195319655376 17.0,17.898639015769458 17.0,18.00608271188354 17.0,18.113526407997625 17.0,18.220970104111704 17.0,18.32841380022579 17.0,18.43585749633987 17.0,18.543301192453956 17.0,18.65074488856804 17.0,18.75818858468212 17.0,18.865632280796206 17.0,18.973075976910287 17.0,19.080519673024373 17.0,19.187963369138455 17.0,19.295407065252537 17.0,19.40285076136662 17.0,19.510294457480704 17.0,19.617738153594786 17.0,19.725181849708868 17.0,19.832625545822953 16.99998530640118,19.940069083986437 16.997675615586278,20.047487951803017 16.97594075650043,20.152687739348096 16.932405259054224,20.25084755436738 16.8688532874993,20.337416608451306 16.78814628656944,20.408236635821062 16.69427103035265,20.460271829659543 16.591468604237154,20.491120594901 16.484399514819213,20.5 16.37695581870513,20.5 16.26951212259105,20.5 16.162068426476967,20.5 16.054624730362885,20.5 15.947181034248803,20.5 15.83973733813472,20.5 15.732293642020636,20.5 15.624849945906554,20.5 15.51740624979247,20.5 15.409962553678387,20.5 15.302518857564305,20.5 15.195075161450221,20.5 15.087631465336141,20.5 14.980187769222058,20.5 14.872744073107974,20.5 14.76530037699389,20.5 14.657856680879808,20.5 14.550412984765728,20.5 14.442969288651645,20.5 14.33552559253756,20.5 14.228081896423477,20.5 14.120638200309394,20.5 14.013194504195312,20.5 13.90575080808123,20.5 13.798307111967146,20.5 13.690863415853062,20.5 13.583419719738979,20.5 13.475976023624895,20.5 13.368532327510813,20.5 13.261088631396731,20.5 13.153644935282648,20.5 13.046201239168564,20.5 12.93875754305448,20.5 12.831313846940397,20.5 12.723870150826317,20.5 12.616426454712231,20.5 12.508982758598151,20.5 12.401539062484071,20.5 12.294095366369982,20.5 12.186651670255902,20.5 12.079207974141815,20.5 11.971764278027733,20.5 11.864320581913653,20.5 11.756876885799565,20.5 11.649433189685483,20.5 11.541989493571396,20.5 11.434545797457316,20.5 11.327102101343234,20.5 11.219658405229147,20.5 11.112214709115067,20.5 11.004771013000978,20.5 10.897327316886896,20.5 10.789883620772816,20.5 10.682439924658729,20.5 10.574996228544647,20.5 10.467552532430561,20.5 10.36010883631648,20.5 10.252665140202398,20.5 10.14522144408831,20.5 10.03777774797423,20.5 9.930334051860141,20.5 9.822890355746061,20.5 9.715446659631974,20.5 9.608002963517892,20.5 9.50055926740381,20.5 9.393115571289725,20.5 9.285671875175643,20.5 9.178228179061556,20.5 9.070784482947476,20.5 8.963340786833394,20.5 8.855897090719305,20.5 8.748453394605225,20.5 8.641009698491137,20.5 8.533566002377055,20.5 8.426122306262975,20.5 8.318678610148888,20.5 8.211234914034808,20.5 8.103791217920719,20.5 7.996347521806638,20.5 7.888903825692556,20.5 7.781460129578469,20.5 7.674016433464389,20.5 7.566572737350302,20.5 7.45912904123622,20.5 7.3516853451437605,20.499999839647444 7.2442438445590085,20.49993462066877 7.13757958820923,20.487016251886136 7.036133197079446,20.451810334232842 6.944502021178332,20.395802800070125 6.867178037389182,20.321282306979004 6.8075110014393525,20.232045449382337 6.768225559135319,20.132169679591172 6.750816495397316,20.026186344353796 6.74999,19.918745884314912 6.74999,19.811302188200827 6.74999,19.703858492086745 6.74999,19.596414795972663 6.74999,19.488971099858574 6.74999,19.381527403744496 6.74999,19.274083707630407 6.74999,19.166640011516325 6.74999,19.059196315402247 6.74999,18.951752619288158 6.74999,18.844308923174076 6.74999,18.73686522705999 6.74999,18.62942153094591 6.74999,18.521977834831826 6.74999,18.41453413871774 6.74999,18.30709044260366 6.74999,18.19964674648957 6.74999,18.09220305037549 6.74999,17.98475935426141 6.74999,17.87731565814732 6.74999,17.76987196203324 6.74999,17.662428265919154 6.74999,17.55498456980507 6.74999,17.44754087369099 6.74999,17.340097177576904 6.74999,17.232653481462822 6.74999,17.125209785348734 6.74999,17.01776608923465 6.74999,16.910322393120573 6.74999,16.802878697006484 6.74999,16.695435000892402 6.74999,16.587991304778317 6.74999,16.480547608664235 6.74999,16.373103912550146 6.74999,16.265660216436068 6.74999,16.158216520321986 6.74999,16.050772824207897 6.74999,15.943329128093817 6.74999,15.835885431979728 6.74999,15.728441735865646 6.74999,15.620998039751566 6.74999,15.513554343637479 6.74999,15.406110647523397 6.74999,15.298666951409311 6.74999,15.19122325529523 6.74999,15.083779559181147 6.74999,14.97633586306706 6.74999,14.868892166952978 6.74999,14.761448470838891 6.74999,14.65400477472481 6.74999,14.54656107861073 6.74999,14.439117382496642 6.74999,14.33167368638256 6.74999,14.224229990268473 6.74999,14.116786294154393 6.74999,14.00934259804031 6.74999,13.901898901926224 6.74999,13.794455205812143 6.74999,13.687011509698054 6.74999,13.579567813583974 6.74999,13.472124117469887 6.74999,13.364680421355805 6.74999,13.257236725241723 6.749935875346462,13.149794772127036 6.743022933765485,13.042573696431289 6.714036500432343,12.939159155574805 6.663714476502499,12.844288558912488 6.594098798249523,12.762519831552932 6.508650532568064,12.697532623942882 6.4113614542557205,12.652227895442804 6.306642039675782,12.628657771565173 6.199209162752933,12.627571652032575 6.094113670978093,12.649911872337196 5.996213077151387,12.694112549878579 5.910256036663594,12.758491241097373 5.8399849733273825,12.839632708664467 5.788586938280604,12.93382065405994 5.758426910622484,13.036793533410181 5.74999,13.143893867867801 5.74999,13.251337563981883 5.74999,13.35878126009597 5.74999,13.46622495621005 5.74999,13.573668652324132 5.74999,13.68111234843822 5.74999,13.788556044552301 5.74999,13.895999740666387 5.74999,14.003443436780469 5.74999,14.11088713289455 5.74999,14.218330829008638 5.74999,14.325774525122718 5.74999,14.433218221236805 5.74999,14.540661917350887 5.74999,14.648105613464967 5.74999,14.755549309579054 5.74999,14.862993005693136 5.74999,14.970436701807223 5.74999,15.077880397921303 5.74999,15.18532409403539 5.74999,15.292767790149473 5.74999,15.400211486263554 5.74999,15.50765518237764 5.74999,15.615098878491722 5.74999,15.722542574605809 5.74999,15.829986270719889 5.74999,15.937429966833971 5.74999,16.04487366294806 5.74999,16.15231735906214 5.74999,16.259761055176227 5.74999,16.36720475129031 5.74999,16.474648447404387 5.74999,16.582092143518476 5.74999,16.68953583963256 5.74999,16.796979535746644 5.74999,16.904423231860726 5.74999,17.011866927974808 5.74999,17.119310624088893 5.74999,17.226754320202975 5.74999,17.334198016317064 5.74999,17.441641712431142 5.74999,17.549085408545224 5.74999,17.656529104659313 5.74999,17.76397280077339 5.74999,17.87141649688748 5.74999,17.978860193001562 5.74999,18.086303889115648 5.74999,18.19374758522973 5.74999,18.30119128134381 5.74999,18.408634977457897 5.74999,18.51607867357198 5.74999,18.623522369686068 5.74999,18.730966065800146 5.74999,18.838409761914228 5.74999,18.945853458028317 5.74999,19.053297154142395 5.74999,19.160740850256484 5.74999,19.268184546370566 5.74999,19.375628242484645 5.74999,19.483071938598734 5.74999,19.590515634712816 5.74999,19.6979593308269 5.74999,19.805403026940983 5.749992694166761,19.912846721637983 5.750182597478288,20.02028843181376 5.755451305564935,20.127602869564477 5.768389727716075,20.234256608149796 5.788894654776599,20.339709808950005 5.816907477377713,20.443417592393306 5.852302859823747,20.544842225435705 5.894897478615919,20.643461082144405 5.9444592467371455,20.738771743460898 6.000716017147212,20.830294539890975 6.063363022522949,20.917573092828416 6.132104124310797,21.000141768459088 6.206628749607253,21.077528189309888 6.2864633609805844,21.149415979078256 6.371206519823538,21.215438274305903 6.460436292202861,21.275249926395826 6.553708866559629,21.328530281585348 6.650557358333446,21.37498785677337 6.75049151737781,21.414366868546235 6.852999059793995,21.446455321544484 6.957549271277401,21.47109407784016 7.063599346422548,21.488186042550574 7.170603303536241,21.49771990586213 7.27802218563794,21.5 7.385465881752021,21.5 7.492909577866108,21.5 7.600353273980189,21.5 7.70779697009427,21.5 7.815240666208357,21.5 7.922684362322439,21.5 8.030128058436526,21.5 8.137571754550606,21.5 8.245015450664688,21.5 8.352459146778775,21.5 8.459902842892857,21.5 8.567346539006945,21.5 8.674790235121025,21.5 8.782233931235107,21.5 8.889677627349194,21.5 8.997121323463274,21.5 9.104565019577361,21.5 9.212008715691443,21.5 9.319452411805525,21.5 9.42689610791961,21.5 9.534339804033692,21.5 9.64178350014778,21.5 9.749227196261861,21.5 9.856670892375949,21.5 9.96411458849003,21.5 10.07155828460411,21.5 10.179001980718198,21.5 10.28644567683228,21.5 10.39388937294636,21.5 10.501333069060442,21.5 10.608776765174524,21.5 10.716220461288604,21.5 10.823664157402698,21.5 10.931107853516778,21.5 11.03855154963086,21.5 11.14599524574494,21.5 11.253438941859022,21.5 11.360882637973114,21.5 11.468326334087196,21.5 11.575770030201278,21.5 11.68321372631536,21.5 11.79065742242944,21.5 11.898101118543533,21.5 12.005544814657615,21.5 12.112988510771695,21.5 12.220432206885777,21.5 12.327875902999859,21.5 12.435319599113951,21.5 12.542763295228033,21.5 12.650206991342115,21.5 12.757650687456195,21.5 12.865094383570275,21.5 12.97253807968437,21.5 13.07998177579845,21.5 13.187425471912531,21.5 13.294869168026613,21.5 13.402312864140695,21.5 13.509756560254788,21.5 13.61720025636887,21.5 13.72464395248295,21.5 13.83208764859703,21.5 13.939531344711112,21.5 14.046975040825204,21.5 14.154418736939286,21.5 14.261862433053368,21.5 14.36930612916745,21.5 14.47674982528153,21.5 14.584193521395624,21.5 14.691637217509705,21.5 14.799080913623786,21.5 14.906524609737867,21.5 15.013968305851948,21.5 15.121412001966041,21.5 15.228855698080123,21.5 15.336299394194203,21.5 15.443743090308285,21.5 15.55118678642238,21.5 15.658630482536461,21.5 15.766074178650541,21.5 15.873517874764623,21.5 15.980961570878705,21.5 16.088405266992797,21.5 16.19584896310688,21.5 16.30329265922096,21.5 16.41073635475955,21.499998800991545 16.51817961186386,21.499879917466973 16.625496913428613,21.49466986760947 16.732165719220934,21.481883564913126 16.83764494137457,21.461529028467513 16.941389435342312,21.43366374353592 17.042861088852217,21.39841208997946 17.141536832663224,21.355956605368135 17.236913784233934,21.30652874632183 17.328511824310695,21.250400158976138 17.41587416024515,21.187875206193855 17.498566564864536,21.119285208716768 17.576087826901613,21.04489873436994 17.648087514108695,20.9651610364574 17.71422874962177,20.880507071075364 17.774166050435607,20.7913583462917 17.82757835209922,20.6981581942849 17.874173647582,20.601372978563685 17.91369548232774,20.501492410949474 17.945931016006647,20.39902825634866 17.970720077419337,20.294510776399232 17.98796435233111,20.188482443847448 17.99764743509283,20.081489011668683 18.0,19.974071405472714 18.0,19.86662770935863 18.0,19.75918401324455 18.0,19.651740317130468 18.0,19.544296621016375 18.0,19.436852924902293 18.0,19.329409228788215 18.0,19.221965532674133 18.0,19.11452183656005 18.0,19.00707814044596 18.0,18.899634444331877 18.0,18.792190748217795 18.0,18.684747052103713 18.0,18.577303355989635 18.0,18.469859659875542 18.0,18.36241596376146 18.0,18.25497226764738 18.0,18.147528571533297 18.0,18.040084875419215 18.0,17.932641179305122 18.0,17.82519748319104 18.0,17.71775378707696 18.0,17.61031009096288 18.0,17.502866394848798 18.0,17.395422698734706 18.0,17.287979002620624 18.0,17.180535306506542 18.0,17.07309161039246 18.0,16.965647914278367 18.0,16.858204218164285 18.0,16.750760522050204 18.0,16.643316825936125 18.0,16.535873129822043 18.0,16.42842943370795 18.0,16.32098573759387 18.0,16.213542041479787 18.0,16.106098345365705 18.0,15.998654649251629 18.0,15.891210953137534 18.0,15.783767257023454 18.0,15.676323560909372 18.0,15.56887986479529 18.0,15.461436168681209 18.0,15.353992472567116 18.0,15.246548776453034 18.0,15.139105080338954 18.0,15.031661384224872 18.0,14.924217688110792 18.0,14.816773991996698 18.0,14.709330295882618 18.0,14.601886599768536 18.0,14.494442903654454 18.0,14.386999207540372 18.0,14.279555511426278 18.0,14.172111815312197 18.0,14.064668119198116 18.0,13.957224423084035 18.0,13.849780726969954 18.0,13.742337030855861 18.0,13.63489333474178 18.0,13.527449638627697 18.0,13.420005942513617 18.0,13.312562246399537 18.0,13.205118550285443 18.000000262452648,13.097674854290267 18.000097616046354,12.99023120228173 18.013931656074746,12.88368367225991 18.049939593514782,12.782527024348925 18.10667007165549,12.691347409982136 18.181777665863173,12.61459428286829 18.271493234284364,12.555642174576958 18.371687737405193,12.517159946942044 18.477815069611996,12.500595904441738 18.58525708840412,12.5 18.6927007845182,12.5 18.80014448063228,12.5 18.907588176746362,12.5 19.01503187286044,12.5 19.122475568974533,12.5 19.229919265088615,12.5 19.33736272819747,12.49997381443841 19.44478941118655,12.49806184775019 19.551851660119905,12.489231198158308 19.65805639211561,12.473252502563442 19.762871271579115,12.44989232272595 19.865728215045017,12.419057484072106 19.966044421830457,12.380764351457499 20.063243576981577,12.335135721051687 20.156774317486466,12.28239117807419 20.246124251380188,12.222832701690423 20.330828705913866,12.15682772314578 20.41047425647744,12.084791805078588 20.484697765418815,12.007172722101963 20.553182054817007,11.924437157256238 20.615649461522658,11.837060647235617 20.671854447923497,11.745520920180814 20.721576257402088,11.650294420017547 20.764574465693176,11.551840599524876 20.80043982066488,11.450571356353361 20.82923838038283,11.34707974138384 20.85080250092381,11.241850983297828 20.86497548338667,11.135382252774688 20.87161595215444,11.028186847216647 20.87060473473265,10.920797157640319 20.861854039897253,10.813765605871865 20.84531845965666,10.707662723086868 20.82100697168738,10.60307162421501 20.788994732306193,10.500578374260689 20.749433107715284,10.400758181583685 20.702556211293423,10.30415798219465 20.648682323187376,10.211276717530755 20.588209049385988,10.122545296005486 20.52160191637082,10.038308657703015 20.449377149148212,9.958812346388289 20.37213994633499,9.884126411170113 20.291858283541742,9.812719111572394 20.211554117625663,9.741337119647415 20.131249951709574,9.669955127722428 20.0509457857935,9.598573135797448 19.97064161987742,9.527191143872468 19.890337453961337,9.455809151947488 19.810033288045258,9.38442716002251 19.72972912212917,9.313045168097522 19.649424956213092,9.241663176172542 19.569120790297013,9.170281184247562 19.48881662438093,9.098899192322582 19.408512458464855,9.027517200397604 19.328208292548766,8.956135208472617 19.247904126632687,8.884753216547635 19.167599960716608,8.813371224622657 19.08729579480053,8.741989232697676 19.00699162888445,8.670607240772698 18.92668746296836,8.59922524884771 18.84638329705228,8.52784325692273 18.766079131136205,8.45646126499775 18.685774965220123,8.38507927307277 18.605470799304044,8.31369728114779 18.525166633387954,8.242315289222804 18.44486246747188,8.170933297297823 18.364558301555796,8.099551305372845 18.284254135639717,8.028169313447863 18.203949969723638,7.956787321522884 18.123645803807552,7.885405329597897 18.043341637891473,7.814023337672918 17.963037471975394,7.742641345747938 17.88273330605931,7.6712593538229585 17.802429140143236,7.5998773618979785 17.722124974227146,7.528495369972991 17.641820808311067,7.457113378048011 17.561516642394984,7.385731386123032 17.48121247647891,7.314349394198052 17.40090831056283,7.242967402273073 17.32060414464674,7.171585410348085 17.24029997873066,7.1002034184231055 17.15999581281458,7.0288214264981255 17.079691646898503,6.957439434573146 16.999387480982413,6.886057442648158 16.919083315066334,6.814675450723179 16.838779149150255,6.743293458798199 16.758474983234176,6.671911466873219 16.678170817318097,6.60052947494824 16.597866651402008,6.5291474830232525 16.51756248548593,6.4577654910982725 16.43725831956985,6.386383499173293 16.35695415365377,6.315001507248312 16.27664998773769,6.243619515323334 16.196345821821602,6.172237523398346 16.116041655905526,6.100855531473366 16.035737489989447,6.029473539548388 15.955433324073365,5.9580915476234075 15.875129158157288,5.886709555698428 15.794824992241198,5.81532756377344 15.71452082632512,5.743945571848461 15.63421666040904,5.67256357992348 15.55391249449296,5.601181587998502 15.473608328576882,5.529799596073522 15.393304162660794,5.458417604148535 15.312999996744715,5.387035612223554 15.232695830828636,5.315653620298575 15.152391664912555,5.244271628373594 15.072087498996478,5.172889636448615 14.991783333080388,5.101507644523628 14.91147916716431,5.030125652598649 14.831175001248228,4.958743660673668 14.750870835332151,4.887361668748689 14.670566669416072,4.8159796768237095 14.590262503499984,4.7445976848987215 14.509958337583905,4.673215692973741 14.429654171667826,4.601833701048763 14.349350005751745,4.530451709123782 14.269045839835668,4.459069717198803 14.188741673919578,4.387687725273816 14.108437508003501,4.316305733348837 14.028133342087418,4.2449237414238565 13.947829176171341,4.1735417494988765 13.86752501025526,4.102159757573897 13.787220844339174,4.030777765648909 13.706916678423093,3.9593957737239296 13.626612512507014,3.88801378179895 13.546308346590935,3.8166317898739703 13.466004180674858,3.7452497979489907 13.385700014758768,3.6738678060240035 13.30539584884269,3.602485814099024 13.225091682926609,3.5311038221740443 13.144787517010531,3.4597218302490647 13.06448335109445,3.388339838324085 12.984179185178364,3.3169578463990974 12.903874450412633,3.245576499325754 12.823032075414156,3.1748046246914075 12.73802448568485,3.109100122641604 12.648588492608509,3.0495815187643935 12.555132233585796,2.9966079219700688 12.458120332490838,2.9504715076344175 12.35804817978328,2.911414128888096 12.255432241643412,2.8796298042582604 12.150802390844632,2.855268546448042 12.044696377680838,2.838440664843818 11.937656274209905,2.829220777178409 11.830228072134084,2.827724948445339 11.722972710716416,2.8339580179168364 11.616438949049067,2.847821043240659 11.51117046496969,2.86925388569285 11.407707611933775,2.8981611372778207 11.30658417984624,2.934408139932437 11.20832223071042,2.9778165852569787 11.113424795270339,3.0281604363244403 11.02236648998647,3.0851630309334794 10.935570797351133,3.1484823866801452 10.853093258190947,3.2173416598922695 10.771516122139598,3.2872653233282936 10.689938986088238,3.357188986764326 10.608361850036886,3.42711265020035 10.526784713985535,3.4970363136363747 10.445207577934184,3.5669599770723988 10.363630441882833,3.636883640508423 10.282053305831472,3.706807303944455 10.20047616978012,3.7767309673804794 10.118899033728772,3.846654630816504 10.03732189767742,3.916578294252528 9.955744761626068,3.9865019576885525 9.874167625574708,4.056425621124585 9.792590489523358,4.126349284560608 9.711013353472007,4.196272947996633 9.629436217420654,4.266196611432658 9.547859081369303,4.336120274868682 9.466281945317945,4.406043938304713 9.384704809266594,4.475967601740738 9.303127673215242,4.5458912651767625 9.22155053716389,4.615814928612787 9.13997340111254,4.6857385920488115 9.05839626506118,4.755662255484843 8.976819129009828,4.825585918920868 8.895241992958477,4.895509582356892 8.813664856907126,4.965433245792917 8.732087720855777,5.03535690922894 8.650510584804415,5.105280572664972 8.568933448753064,5.1752042361009964 8.487356312701714,5.245127899537022 8.405779176650361,5.3150515629730455 8.32420204059901,5.38497522640907 8.24262490454765,5.454898889845102 8.161047768496298,5.524822553281126 8.079470632444949,5.594746216717151 7.997893496393597,5.664669880153175 7.916316360342247,5.734593543589199 7.834739224290887,5.804517207025231 7.753162088239535,5.874440870461256 7.671584952188184,5.9443645338972795 7.590007816136834,6.014288197333304 7.508430680085483,6.0842118607693285 7.426853544034121,6.15413552420536 7.34527640798277,6.2240591876413855 7.26369927193142,6.293982851077409 7.182122135880068,6.363906514513434 7.100544999828717,6.433830177949457 7.018967863777357,6.503753841385491 6.937390727726006,6.573677504821514 6.855813591674655,6.643601168257539 6.774236455623304,6.713524831693563 6.692659319571953,6.783448495129586 6.611082183520592,6.85337215856562 6.529505047469242,6.923295822001643 6.4479279114178905,6.993219485437668 6.36635077536654,7.063143148873692 6.284773639315179,7.133066812309725 6.203196503263829,7.202990475745749 6.121619367212478,7.272914139181772 6.0400422311611255,7.342837802617798 5.958465095109775,7.412761466053821 5.876887959058415,7.4826851294898535 5.795310823007064,7.552608792925878 5.713733686955712,7.622532456361903 5.632156550904361,7.692456119797927 5.550579414853011,7.76237978323395 5.469002278801651,7.832303446669984 5.3874251427503,7.902227110106007 5.305848006698948,7.972150773542031 5.224270870647598,8.042074436978057 5.1426937345962465,8.11199810041408 5.061116598544886,8.181921763850113 4.979539462493535,8.251845427286135 4.897962326442183,8.32176909072216 4.816385190390833,8.391692754158186 4.7348080543394815,8.46161641759421 4.653230918288122,8.531540081030242 4.57165378223677,8.601463744466267 4.49007664618542,8.67138740790229 4.408499510134069,8.741311071338314 4.326922374082717,8.811234734774338 4.245345238031358,8.88115839821037 4.163768101980007,8.951082061646396 4.082190965928655,9.02100572508242 4.000613829877303,9.090929388518445 3.919036693825953,9.160853051954469 3.8374595577745922,9.230776715390501 3.755882421723242,9.300700378826525 3.6743071639255658,9.370626233485579 3.6010477763763604,9.449209774028722 3.545957421658848,9.54133597941626 3.511755712811498,9.643094065127752 3.500017201195977,9.749838808797051 3.5116602462120445,9.856592355789719 3.545754491774703,9.958398916351138 3.6006934533843786,10.050691781152999 3.674215849757966,10.129041031731049 3.762692141461032,10.189893894019987 3.8620884124514747,10.230506761785826 3.9678961955933736,10.248867873495382 4.075157372945288,10.244017732642243 4.178900042501257,10.216475517513532 4.274464981847802,10.167538491389063 4.358793056946477,10.100960250139703 4.440370408572079,10.031036838206303 4.521947760197681,9.961113426272902 4.603525111823291,9.891190014339497 4.685102463448893,9.821266602406096 4.766679815074495,9.751343190472696 4.848257166700096,9.681419778539295 4.9298345183256975,9.611496366605895 5.011411869951308,9.541572954672487 5.09298922157691,9.471649542739087 5.174566573202512,9.401726130805686 5.256143924828113,9.331802718872286 5.337721276453715,9.261879306938887 5.419298628079326,9.191955895005478 5.500875979704928,9.122032483072077 5.58245333133053,9.052109071138677 5.664030682956132,8.982185659205276 5.745608034581734,8.912262247271878 5.827185386207344,8.84233883533847 5.908762737832946,8.77241542340507 5.990340089458548,8.70249201147167 6.07191744108415,8.63256859953827 6.15349479270976,8.562645187604861 6.235072144335362,8.49272177567146 6.316649495960964,8.42279836373806 6.398226847586566,8.35287495180466 6.479804199212167,8.282951539871261 6.561381550837778,8.213028127937854 6.64295890246338,8.143104716004453 6.7245362540889815,8.073181304071053 6.806113605714583,8.00325789213765 6.887690957340185,7.933334480204252 6.969268308965796,7.863411068270844 7.050845660591398,7.793487656337444 7.132423012216999,7.723564244404044 7.214000363842601,7.653640832470644 7.295577715468202,7.583717420537243 7.377155067093813,7.513794008603835 7.458732418719415,7.443870596670435 7.540309770345017,7.373947184737035 7.621887121970618,7.304023772803634 7.703464473596219,7.234100360870235 7.78504182522183,7.164176948936827 7.866619176847433,7.094253537003427 7.948196528473034,7.024330125070027 8.029773880098636,6.954406713136627 8.111351231724237,6.884483301203226 8.192928583349849,6.814559889269818 8.274505934975451,6.744636477336418 8.356083286601052,6.674713065403018 8.437660638226653,6.604789653469617 8.519237989852256,6.534866241536218 8.600815341477865,6.464942829602809 8.682392693103468,6.39501941766941 8.76397004472907,6.325096005736008 8.845547396354672,6.255172593802609 8.927124747980274,6.185249181869209 9.008702099605884,6.115325769935801 9.090279451231487,6.045402358002401 9.171856802857087,5.975478946069001 9.25343415448269,5.9055555341356 9.335011506108291,5.8356321222022 9.416588857733903,5.765708710268793 9.498166209359503,5.695785298335392 9.579743560985106,5.625861886401991 9.661320912610707,5.555938474468592 9.74289826423631,5.486015062535191 9.824475615861918,5.416091650601784 9.90605296748752,5.346168238668384 9.987630319113123,5.276244826734984 10.069207670738724,5.206321414801583 10.150785022364326,5.136398002868183 10.232362373989938,5.066474590934775 10.31393972561554,4.996551179001375 10.395517077241141,4.926627767067975 10.477094428866744,4.856704355134575 10.558671780492345,4.786780943201175 10.640249132117955,4.716857531267767 10.721826483743556,4.646934119334366 10.803403835369158,4.577010707400967 10.884981186994759,4.507087295467566 10.966558538620372,4.437163883534159 11.048135890245973,4.367240471600758 11.129713241871576,4.297317059667358 11.211290593497177,4.227393647733957 11.292867945122778,4.157470235800557 11.374445296748389,4.087546823867149 11.45602264837399,4.017623411933749 11.5376,3.9477 "/></svg>