<svg xmlns="http://www.w3.org/2000/svg" version="1.1" fill="none" stroke="black" stroke-width="0.5"><path d="M 4287.0,12671.0 4281.823456208197,12629.44084088398 4271.805311420312,12532.959853021008 4258.334397957149,12396.338180396764 4242.749589765429,12233.83735081147 4227.203083311212,12069.81581934022 4214.835891346049,11939.733210822566 4207.016161544915,11859.66526043949 4200.4621639193065,11844.35871366632 4140.519610243446,11881.013015871844 4027.4836587191257,11952.073986016234 3885.446065681817,12042.67023220392 3757.913671987064,12123.96127387712 3666.3012416830925,12182.072866521741 3629.102499276481,12205.474305291486 3625.9797098017957,12203.24642094556 3666.216982838064,12157.486369557353 3783.0117668603607,12031.27858842258 3938.1004821244496,11863.93367274761 4028.6111045320217,11762.75029219783 4067.7607525183093,11714.948358463858 4045.795708843305,11710.818178331807 3975.7154006700043,11702.566545262773 3865.9552317002335,11690.289964424745 3724.8883824984896,11674.937971758027 3560.8880336292696,11657.46010320292 3338.5005599184146,11634.237620244427 3161.819479301505,11614.97132528051 3053.51702456787,11601.69253398185 3003.6602725401644,11593.226384467256 3002.316300041043,11588.398014855535 3038.5860209170073,11585.14195474048 3120.3254187444163,11580.12804749982 3236.8160181584417,11573.792649184583 3376.013713813417,11566.709652997388 3525.8744003636757,11559.452952140855 3674.3539724635493,11552.596439817607 3809.4083247673725,11546.714009230263 3918.993351929478,11542.379553581446 3991.0649486041993,11540.166966073773 4059.355803555498,11529.228942483016 4040.6114523817146,11482.916215552636 3966.221591747611,11360.290026902354 3870.243271820638,11210.027263912445 3802.549734814544,11102.833400145104 3769.480323006054,11048.871627806797 3808.6538253161057,11067.163531636215 3915.893732414866,11159.28296900139 4000.3288419517535,11229.04546225003 3991.780785070325,11196.3398706866 3954.4556138496105,11091.685443011487 3898.4905312508026,10940.031505560173 3842.516500974866,10789.64092395039 3800.8578029231126,10672.356692065301 3780.781936537818,10609.446553098334 3790.5414179608442,10567.034786200347 3835.7414679593453,10516.348063625735 3916.944230600114,10463.628604093534 4034.5809427858017,10408.541001123902 4189.082841419061,10350.749848237 4249.554514138931,10312.430758647459 4161.770044852468,10283.417827368561 4017.372225051139,10235.784471609471 3864.843292582595,10182.970835710632 3743.4592199141593,10135.550004126238 3653.1307467588867,10093.49126263543 3593.6510709808963,10056.725677192917 3563.769433103691,10023.044400437264 3528.355502259647,9949.512958652549 3475.1556656171524,9819.074296017741 3417.457914583017,9668.263972169523 3371.122270993833,9544.703593976132 3337.6312559446997,9453.544544239527 3313.4151998404764,9382.24559952143 3347.5337202410788,9318.621421280415 3394.8624187254463,9288.904312773278 3464.2107486174027,9259.107183602144 3557.3633527117895,9228.650604288167 3676.104873803451,9196.955145352504 3822.219954687227,9163.44137731631 3996.293929270484,9127.741347276864 4143.392469347265,9098.378191498578 4244.743814849674,9078.132246972236 4268.272647899284,9070.079845545533 4194.284279547589,9051.643364429414 4033.528902524702,9020.008305766629 3858.9364668354756,8987.605957455076 3708.4707489842103,8958.295924347585 3576.9291320447014,8930.975024464336 3463.1410255921446,8905.3678247642 3365.9358392017352,8881.198892206045 3284.142982448663,8858.19279374874 3216.591864908123,8836.074096351153 3162.1118961553093,8814.567366972155 3118.0293877491954,8793.874279707641 3086.1913094727292,8763.016329760247 3049.1322266083885,8686.205702594656 2987.437019432432,8526.398349777974 2909.6386976528465,8319.382869625224 2864.357543401181,8190.842583529849 2845.3364594393825,8122.292263419933 2851.118503511912,8099.860563401999 2874.36724973232,8079.87450105843 2914.2337850064155,8059.426139295936 2970.8479173152305,8038.493843451013 3044.339454639795,8017.055978860156 3134.838204961138,7995.09091085986 3242.473976260293,7972.577004786617 3367.3765765182898,7949.492625976926 3509.675813716156,7925.81613976728 3669.501495834926,7901.525911494174 3846.9834308556265,7876.600306494102 4042.2514267592933,7851.017690103561 4206.568281363658,7830.263811647922 4294.952327122672,7820.249060097173 4274.263800423983,7808.923265951212 4143.60951011304,7791.133595010331 3942.619985890446,7766.194845519365 3744.731451416822,7740.902284346422 3565.506354472746,7717.0508737975815 3404.203469738732,7694.498491023976 3260.0815718953017,7673.103013176738 3132.399435622976,7652.7223174069995 3020.415835602269,7633.214280865892 2923.389546513702,7614.436780704547 2840.5793430377944,7596.247694074098 2771.2439998550653,7578.504898125676 2714.6422916460306,7561.066270010412 2670.0329930912117,7543.789686879439 2636.6748788711266,7526.5330258838885 2613.826723666294,7509.154164174893 2596.064755204276,7476.768213496891 2557.5163193376793,7382.276028080827 2505.100557094223,7247.9829264764185 2449.731330255222,7102.442616832454 2402.3225006019907,6974.208807297722 2373.7879299158444,6891.835206021014 2372.6774893097663,6865.774605525139 2392.87099043703,6844.390451276782 2433.1888518902724,6823.049444062853 2494.022504109353,6801.662622419745 2575.7633775341315,6780.1410248838565 2678.8029026044637,6758.395689991582 2803.5325097602154,6736.337656279316 2950.3436294412427,6713.877962283455 3119.627692087405,6690.927646540395 3311.776128138563,6667.39774758653 3461.809890586325,6650.426323310619 3567.9164252673145,6639.1971754667475 3692.2193987986225,6626.40369624355 3824.5984576032406,6613.05232964316 3954.933248104161,6600.149519667711 4073.1034167243747,6588.701710319336 4168.988609886872,6579.715345600169 4232.468474014649,6574.196869512343 4305.236090780289,6563.100950874249 4235.890286271954,6548.663769073391 4043.6198398983724,6530.474556902864 3882.2263118872156,6515.896176455695 3726.3883692289664,6501.261090203196 3576.381376309617,6486.603718693615 3432.480697515155,6471.9584824752 3294.961697231569,6457.359802096201 3164.09973984485,6442.842098104865 3040.1701897409785,6428.439791049441 2923.448411305947,6414.187301478178 2814.2097689257425,6400.119049939324 2712.7296269863537,6386.269456981127 2619.28334987377,6372.672943151838 2534.146301973975,6359.363928999702 2457.593847672959,6346.376835072969 2389.9013513567097,6333.746081919888 2331.3441774112152,6321.5060900887065 2282.1976902224637,6309.691280127674 2235.898061553952,6296.272170195948 2174.573764047928,6273.4985914963345 2132.1077086114215,6231.033296896498 2086.7836068780903,6136.025464722259 2016.8851704815895,5955.62427329944 1973.7051782591325,5842.276315765517 1935.0798212346608,5740.802920192753 1896.454464210189,5639.329524619988 1925.0205278859112,5595.893748569143 1947.4759497507896,5583.156348078651 1978.1450990337673,5570.5492513846775 2017.4189518106302,5558.021828491796 2065.688484157168,5545.523449404582 2123.3446721491678,5533.003484127607 2190.7784918624156,5520.411302665449 2268.3809193726993,5507.696275022679 2356.5429307558034,5494.807771203875 2455.6555020875207,5481.695161213607 2566.109609443636,5468.3078150564525 2688.296228899936,5454.595102736985 2822.606336532209,5440.506394259778 2969.4309084162373,5425.991059629407 3129.1609206278167,5410.9984688504455 3302.1873492427308,5395.477991927467 3488.901170336767,5379.378998865048 3689.693359985711,5362.65085966776 3904.9548942653464,5345.242944340182 4072.299612261846,5331.94308675715 4209.168528642423,5320.419975456957 4301.8579100596,5311.973031187507 4336.022602372008,5307.914406886369 4275.08616278847,5300.59054215447 4126.574080729966,5287.899339039515 3987.9792233091757,5277.5391024960745 3855.330848559466,5267.45178113392 3722.757715495327,5257.118151416954 3590.876415557198,5246.594734227215 3460.3035401855213,5235.938050446744 3331.6556808207292,5225.20462095758 3205.5494289032654,5214.450966641766 3082.601375873568,5203.733608381341 2963.428113172078,5193.1090670583435 2848.646232239233,5182.633863554816 2738.872324515476,5172.364518752798 2634.7229814412403,5162.357553534331 2536.8147944569687,5152.669488781453 2445.7643550031,5143.356845376205 2362.1882545200733,5134.476144200628 2286.7030844483306,5126.083906136762 2219.9254362283073,5118.236652066647 2162.4719013004433,5110.990902872324 2016.2165540449032,5089.432830836324 1876.2156472499153,5063.895223625853 1765.8185337800464,5038.154185777037 1691.0603020348333,5013.704120131667 1658.522086381265,4992.684883124687 1632.7121682733007,4932.255527640027 1587.1658180764457,4814.829622241784 1532.7464410504024,4669.688982016337 1480.3174424548686,4526.115422050053 1440.742227549547,4413.390757429312 1424.8842015941384,4360.79680324049 1480.4733984417614,4332.611999459031 1607.7053372941002,4298.933479500883 1715.5284807135477,4279.480950821564 1808.9633253769377,4265.241523432707 1909.7540173843363,4251.712249402607 2021.8172520938892,4238.457940358138 2149.069724863742,4225.043407926172 2244.274075073059,4215.435318845212 2319.7477415925428,4207.991045362756 2399.5379062456586,4200.536309390569 2490.312390489627,4192.484342640417 2598.73901578167,4183.2483768240645 2731.4856035790094,4172.241643653275 2895.2199753388613,4158.8773748398135 2990.7626890534116,4151.348275501691 3078.470526913718,4144.89038995918 3188.2807710033508,4136.992043473586 3314.916247133346,4128.018515013416 3453.099781114719,4118.335083547178 3597.554198758513,4108.30702804338 3743.00232587574,4098.29962747053 3884.1669882774368,4088.678160797136 4015.77101177464,4079.807906991704 4132.537222178364,4072.054145022744 4229.188445299647,4065.7821538587614 4300.447506949511,4061.3572124682655 4341.0372329389875,4059.1445998197637 4367.286261561129,4057.61906964148 4353.940390928684,4054.1450416722155 4288.1172712105135,4048.146750077589 4162.600646555079,4039.0014722714263 3970.174261110832,4026.086485667553 3732.8263931666306,4010.668859297516 3535.267460705272,3997.762930836622 3347.316559014632,3985.2187100385245 3168.7705766560525,3973.0165704046553 2999.4264021908452,3961.136885436445 2839.0809241803227,3949.5600286353247 2687.5310311858248,3938.266373502726 2544.573611768655,3927.236293540079 2410.005554490152,3916.4501622488156 2283.6237479116216,3905.8883531303663 2165.2250805944,3895.531239686163 2054.6064410998006,3885.359195417637 1951.5647179891405,3875.3525938262173 1855.8967998237524,3865.4918084133374 1767.3995751649463,3855.757212680426 1685.869932574055,3846.1291801289167 1611.1047606123939,3836.588084260239 1542.9009478412813,3827.1142985758243 1481.0553828220463,3817.6881965771036 1425.364954116004,3808.2901517655077 1375.6265502844813,3798.9005376424684 1331.637059888797,3789.4997277094167 1293.1933714902702,3780.0680954677828 1260.0923736502277,3770.5860144189987 1214.5749531626143,3756.2436861730034 1179.9152611889153,3721.3149801836094 1131.9860150674886,3607.574525771639 1039.6910174333257,3364.2130045838103 974.3360285084718,3189.3365188564044 954.4435251393645,3121.9375761054152 962.2841794482453,3105.4387623679963 980.8059070238369,3094.2613833888277 1008.2415271038075,3083.054646392031 1045.2646973887422,3071.8575680943586 1092.0119210208657,3060.655093002182 1148.6197011423928,3049.432165621875 1215.224540895551,3038.173730459809 1291.9629434225526,3026.8647320223586 1378.971411865622,3015.4901148158956 1476.3864493669848,3004.0348233467917 1584.344559068851,2992.483802121421 1702.982244113453,2980.8219956461558 1832.4360076429975,2969.034348427369 1972.842352799712,2957.1058049714334 2124.3377827258255,2945.021309784721 2287.0588005635404,2932.765807373606 2461.141909455097,2920.324242244459 2646.7236125426957,2907.6815589036555 2843.9404129685654,2894.8227018575662 3006.6181340301227,2884.5842688740067 3147.3092229701588,2875.887203779738 3289.8142640774886,2867.1908967491377 3431.885660380333,2858.6267541825046 3571.275814906937,2850.3261824801366 3705.7371306855453,2842.4205880423315 3833.02201074438,2835.0413772693873 3950.8828581116923,2828.3199565616014 4057.072075815706,2822.3877323192733 4149.342066884665,2817.376110942699 4225.44523434681,2813.416498832178 4283.13398123037,2810.6403023880075 4320.160710563589,2809.178928010486 4365.822246106685,2807.1294995553403 4362.408172271835,2801.7375168550384 4286.950149518085,2793.763261570202 4144.214688526206,2783.694217747727 3938.9682999769443,2772.0178694345095 3733.4856148170097,2761.289580131316 3540.7320014879056,2750.9814518280923 3354.596152193277,2740.773379801667 3175.049424498718,2730.6627384955514 3002.063175969783,2720.646902353256 2835.6087641720637,2710.723245818292 2675.6575466711156,2700.88914333417 2522.180881032529,2691.1419693444013 2375.150124821869,2681.479098292497 2234.5366356047016,2671.897904621967 2100.311770946616,2662.3957627763234 1972.446888413169,2652.9700471990755 1850.9133455699498,2643.618132333736 1735.682499982524,2634.337392623815 1626.725709216459,2625.125202512823 1524.0143308373408,2615.9789364442713 1427.5197224107305,2606.8959688616706 1337.2132415022138,2597.8736742085325 1253.066245677357,2588.909426928367 1175.0500925017304,2580.000601464685 1103.1361395409153,2571.1445722609983 1037.2957443604773,2562.338713760817 977.5002645259974,2553.580400407652 923.7210576030452,2544.8670066450154 875.9294811571908,2536.195906916416 834.0968927540143,2527.5644756653664 798.1946499590831,2518.9700873353763 768.1941103379754,2510.410116369958 744.0666314562623,2501.8819372126213 725.5195539317233,2493.079743519719 707.5496261315232,2469.206529457692 676.4179735630727,2397.3233971795926 617.413906884005,2243.4575945024962 543.6032937101354,2047.594419091072 505.17907203281777,1946.0446903724471 488.9786742719128,1853.5099964350409 523.1260857143309,1838.330793279157 549.6909910924725,1829.3163411275198 581.9056442904847,1820.435842211624 620.0919432285534,1811.660672955477 664.5717858268694,1802.9622097830843 715.6670700056249,1794.3118291184526 773.6996936850036,1785.6809073855889 838.9915547852013,1777.0408210084988 911.8645512264,1768.36294641119 992.6405809287924,1759.6186600176684 1081.6415418125732,1750.7793382519399 1179.189331797921,1741.8163575380117 1285.605848805037,1732.70109429989 1401.2129907540984,1723.4049249615819 1526.3326555652993,1713.8992259470933 1661.2867411588377,1704.1553736804303 1806.3971454548878,1694.1447445856002 1961.9857663736543,1683.8387150866088 2128.37450183531,1673.2086616074637 2305.885249760052,1662.2259605721704 2494.839908068081,1650.8619884047353 2695.560374679565,1639.0881215291656 2908.3685475147154,1626.8757363694667 3058.3175808449228,1618.597440452833 3141.3136490752668,1614.4161310537447 3246.4274660045603,1609.0885439442854 3366.2204083357365,1603.0397433128592 3493.2538527717525,1596.6947933478682 3620.089176015539,1590.4787582377166 3833.8104897287853,1579.9070454913672 4014.677738994276,1570.7428963498528 4156.338309163691,1563.2945255297961 4262.021658329564,1557.391961552643 4334.957244584404,1552.8652329398403 4378.374526020738,1549.5443682128337 4395.502960731081,1547.2593958930702 4337.923017779765,1541.4544879145626 4212.616581163777,1535.1527052464428 4143.690256789958,1532.1492711447017 4061.4451656232936,1528.3984124814162 3967.3754138625545,1523.9775615291678 3862.9751077064984,1518.9641505605373 3749.7383533538805,1513.4356118481057 3629.1592570034754,1507.469377664455 3502.7319248540316,1501.1428802821654 3371.9504631043255,1494.533551973819 3238.308977953112,1487.7188250119964 3103.3015755991455,1480.7761316692784 2968.422362241203,1473.7829042182473 2835.1654440780303,1466.816574931483 2705.0249273084064,1459.9545760815677 2579.494918131085,1453.2743399410824 2460.0695227448205,1446.8532987826075 2348.2428473483888,1440.7688848787252 2245.50899814054,1435.0985305020158 2153.3620813200464,1429.9196679250613 2073.2962030856647,1425.3097294204424 2006.8054696361532,1421.34614726074 1860.7724791951148,1412.167913978628 1670.1757554963576,1399.8129356147908 1494.3190422561102,1387.950213612706 1332.6339565821665,1376.52429598289 1184.552115582359,1365.4797307358626 1049.5051363644916,1354.761065882142 926.9246360363713,1344.3128494322457 816.242231705826,1334.0796293966932 716.8895404806576,1324.005953786002 628.2981794686903,1314.0363706106916 549.8997657777322,1304.1154278812796 481.12591651559364,1294.1876736082843 421.4082487900962,1284.197655802225 370.17837970904634,1274.089922473619 326.86792638026463,1263.8090216329858 290.90850591156095,1253.2995012908434 221.41539294747568,1196.0605151510274 183.332303447124,1094.3823635724184 145.24921394677017,992.7042119938039 96.26906476356814,862.6336826704439 49.84853498644753,739.5765078594895 20.20924028227661,661.4242973908547 28.804982867312788,596.0975172357209 58.26871505343291,584.1855588215276 100.68163801933518,572.3875684654746 156.2205285744913,560.6199925536247 224.8993200763802,548.8800444144823 306.73194588246895,537.1649373765538 401.7323393502415,525.4718847683428 509.914433837162,513.7980999183558 631.2921627007102,502.140796155097 765.8794592983685,490.49718680707105 913.690256987597,478.86448520278407 1074.7384891258864,467.23990467074 1249.038089070694,455.6206585394451 1431.6741198273285,444.33205541149897 1566.4915644718567,436.5027051391854 1682.1853252565668,429.5895956171461 1754.7791817131847,425.01504500875296 1806.506455093008,421.9628406132851 1878.1352800305594,417.98126184435023 1966.7942296327521,413.2142528922093 2069.601474164495,407.807729186487 2183.6751838907003,401.90760615680813 2306.1335290762595,395.6597992327984 2434.0946799860926,389.2102238440821 2564.6768068850893,382.7047954202851 2694.9980800381627,376.28942939103206 2822.176669710224,370.1100411859477 2943.330746166165,364.3125462346578 3062.3105653546613,358.75972371264396 3203.948977747062,352.35501815205254 3336.358132488101,346.3886352737649 3450.6106779362913,341.2287132898013 3537.7792624501258,337.2433904121825 3588.1895542663,334.84454403684174 3632.2105954564777,332.7985351384278 3704.404527148984,329.5499572397172 3800.6461839969224,325.2896542891428 3916.8104006533804,320.2084702351383 4048.772011771468,314.4972490261364 4192.405852004268,308.3468346105709 4343.5867560048855,301.9480709368747 4485.838832703551,295.96894022796215 4622.830665597139,290.1511398953496 4756.6857954085945,284.40450113088076 4884.152448620713,278.8712890259334 5001.978851716315,273.6937686718839 5106.913231178199,269.01420516010995 5195.703813489179,264.9748635819885 5265.09882513207,261.7180090288963 5319.6407782010665,259.155411425266 5400.014987395935,255.55908757125016 5501.266091500503,250.89722896386573 5617.010535389837,245.5043450419737 5740.864763939008,239.7149452444351 5866.445222023099,233.86353901011032 5997.624000467809,227.80371221668383 6143.286246702247,221.02266932759065 6273.736824843008,214.83164864590614 6378.834967787926,209.6788608722785 6448.439908434841,206.01251670735562 6506.744622386592,202.5754146126537 6589.510042177388,197.99679803862955 6690.957663195579,192.55623127437022 6819.178351449691,185.70384963968468 6984.993690055358,176.7269599219586 7163.918456826048,166.60530726785356 7333.872423158821,156.43286166977123 7494.715062122768,146.2219021799269 7646.305846786981,135.98470785053576 7788.504250220569,125.73355773381189 7921.169745492591,115.48073088197285 8044.161805672155,105.23850634723271 8157.339903828357,95.01916318180672 8260.563513030285,84.83498043791012 8353.692106347044,74.69823716775699 8436.585156847705,64.62121242356487 8509.10213760137,54.616185257547826 8571.102521677132,44.69543472192109 8622.445782144085,34.87123986889992 8662.99139207132,25.15587975069849 8692.598824527926,15.56163341953416 8706.833945267084,12.60361736485382 8693.3657612613,62.54034095086397 8632.2454040627,227.7734025059847 8567.085966890083,401.0327050123981 8528.923271761758,502.68100512055037 8490.760576633435,604.3293052287027 8426.196397159923,644.2238852203396 8401.31532916657,651.3828350902066 8371.867478808997,658.5321213479587 8337.773081082212,665.6772688424257 8298.952370981202,672.8238024224403 8255.32558350096,679.9772469368338 8206.812953636483,687.143127234438 8153.334716382757,694.3269681640852 8094.811106734785,701.5342945746054 8031.162359687559,708.7706313148311 7962.3087102360705,716.0415032335939 7888.170393375305,723.3524351797261 7808.667644100274,730.7089520020577 7723.720697405962,738.1165785494211 7633.249788287363,745.580839670648 7537.175151739471,753.1072602145699 7435.417022757269,760.7013650300194 7327.895636335771,768.3686789658262 7214.531227469963,776.114726870823 7095.244031154835,783.9450335938411 6969.9542823853835,791.8651239837122 6838.582216156587,799.8805228892691 6701.048067463468,807.9967551593411 6557.272071301006,816.2193456427611 6407.174462664194,824.5538191883605 6250.675476548027,833.0057006449711 6087.695347947481,841.5805148614251 5918.154311857584,850.2837866865525 5741.972603273312,859.1210409691857 5559.07045718966,868.0978025581564 5369.368108601622,877.2195963022962 5172.78579250417,886.4919470504377 4969.243743892339,895.9203796514104 4786.953417048427,904.7215206202109 4640.177636698166,912.6303653402997 4534.263266426427,919.1566987855088 4484.049400839334,923.476126811054 4562.124165448275,930.0231649549304 4653.147966993427,932.2963076054639 4778.298949123004,937.7002862117994 4882.200472557432,943.0561852724653 4992.667499683309,948.5034159240375 5110.363020366586,954.3217116909364 5219.045718550057,959.7047661022368 5416.591045684744,969.3443922042173 5612.866658013352,979.1278945195783 5801.282416080847,988.7486762866276 5981.933144775426,998.2148255105369 6154.913668985355,1007.5344301964807 6320.318813598874,1016.7155783496324 6478.243403504226,1025.7663579751659 6628.782263589669,1034.6948570782556 6772.030218743412,1043.5091636640732 6908.0820938537145,1052.217365737793 7037.032713808816,1060.8275513045887 7158.976903496961,1069.347808369634 7274.009487806403,1077.7862249381035 7382.225291625358,1086.1508890151688 7483.719139842082,1094.4498886060042 7578.585857344815,1102.6913117157835 7666.920269021802,1110.8832463496801 7748.81719976129,1119.0337805128688 7824.371474451506,1127.151002210521 7893.6779179807,1135.2429994478114 7956.831355237114,1143.3178602299135 8013.926611108989,1151.383672562001 8065.058510484574,1159.4485244492485 8110.3218782521,1167.5205038968272 8149.811539299812,1175.6076989099122 8183.622318515954,1183.7181974936766 8211.849040788771,1191.8600876532953 8244.985271577565,1203.6375969919873 8228.193299858554,1296.0006797986612 8187.732886058133,1406.4398343540354 8139.655915730311,1535.2592310845068 8090.8572478970245,1664.3413105786522 8048.396260583096,1775.1939460104747 8019.332331813329,1849.3250105540242 8004.755969348175,1876.135004418591 7962.00825911986,1896.7792398778772 7884.02739461013,1917.92348164228 7773.28563690651,1939.0870122781118 7632.255247096506,1959.789114351693 7463.408486267623,1979.549070429341 7377.399949464657,1988.2008774318456 7318.121393596152,1993.790523796661 7254.731920319044,1999.4942888888272 7187.20607377028,2005.3132794849985 7115.518398086815,2011.2486023618292 7039.643437405604,2017.3013642959734 6959.555735863591,2023.4726720640858 6875.229837597749,2029.7636324428197 6786.640286745023,2036.1753522088293 6693.761627442369,2042.708938138769 6596.56840382674,2049.3654970092934 6495.035160035079,2056.146135597057 6389.136440204363,2063.051960678712 6278.8467884715365,2070.084079030914 6164.140748973552,2077.243597430317 6044.992865847366,2084.531622653575 5921.377683229918,2091.949261477343 5793.26974525819,2099.4976206782735 5660.6435960691215,2107.177807033022 5523.4737797996695,2114.9909273182416 5381.734840586787,2122.9380883105873 5235.401322567412,2131.020396786714 5084.44776987853,2139.2389595232744 4928.848726657083,2147.5948832969225 4768.578737040023,2156.0892748843135 4602.958484281824,2164.8110250721393 4478.882417177661,2172.8906974275424 4483.491184209102,2180.011001640019 4549.653570371387,2182.778847450729 4675.100349535085,2189.244880533861 4808.838471931154,2196.542300387042 4912.101263834874,2202.328438903192 5027.037052187806,2208.805830991115 5144.370583438899,2215.388671163376 5254.82660403709,2221.4911539325385 5378.212712970818,2228.2315105288894 5533.4750823054765,2236.9059054750205 5664.158233095286,2244.303465464205 5775.313050015344,2250.710324357347 5871.990417740731,2256.41261601535 5959.241220946526,2261.696474299117 6042.116344307817,2266.848033069554 6125.666672499666,2272.153426187561 6263.121813400578,2281.223286705541 6443.628929312529,2293.7558493918136 6612.364606833483,2306.134966757219 6769.399410570234,2318.370174559431 6914.8039051295245,2330.471008556119 7048.648655118151,2342.4470045049584 7171.004225142891,2354.307698163621 7281.941179810524,2366.062625289779 7381.530083727836,2377.721321641108 7469.841501501585,2389.293322975276 7546.94599773856,2400.788165049959 7612.914137045538,2412.2153836228285 7667.816484029304,2423.584514451559 7711.723603296623,2434.9050932938203 7744.706059454279,2446.1866559072864 7772.127261275223,2509.5440302334114 7733.666670385484,2611.07999018232 7695.206079495742,2712.6159501312404 7652.762393085559,2824.9212060707728 7596.516231175135,2970.0144823602072 7551.503517341419,3079.0867584370562 7525.438996767507,3133.985692694039 7510.843288387077,3144.4983841319126 7488.82458355502,3154.149461436637 7459.53024098556,3163.8278036619627 7422.874534519555,3173.5430288647694 7378.771737997855,3183.3047551019376 7327.136125261311,3193.122600430348 7267.881970150786,3203.0061829068777 7200.9235465071315,3212.965120588408 7126.175128171201,3223.0090315318184 7043.5509889838495,3233.147533793989 6952.965402785919,3243.3902454318004 6854.3326434182845,3253.74678450213 6747.566984721791,3264.2267690618587 6632.582700537293,3274.839817167867 6509.294064705645,3285.5955468770335 6377.615351067685,3296.5035762462403 6237.460833464296,3307.573523332364 6088.74478573632,3318.8150061922856 5931.381481724611,3330.2376428828857 5765.285195270022,3341.851051461043 5590.370200213389,3353.6648499836388 5406.550770395604,3365.688656507551 5213.741179657502,3377.9320890896597 5011.855701839937,3390.4047657868455 4818.952899436866,3402.029321995037 4661.172833131108,3411.8687533391508 4537.973671368017,3420.092091192777 4462.1236070591685,3425.832359494017 4448.44795249559,3428.8916009544164 4534.866470250488,3436.3373027937823 4695.394746424701,3447.22905174913 4890.034539764736,3459.649073617463 5074.474242432191,3471.58375638297 5249.01585046106,3483.05924457863 5413.961359885335,3494.1016827374215 5569.612766739026,3504.737215392323 5716.27206705609,3514.9919870763106 5854.241256870539,3524.8921423223637 5983.822332216365,3534.4638256634607 6105.317289127562,3543.7331816325795 6219.0281236381325,3552.726354762699 6325.256831782046,3561.469489586796 6424.305409593308,3569.9887306378496 6516.475853105911,3578.3102224488375 6602.070158353846,3586.460109552738 6681.390321371116,3594.46453648253 6754.738338191697,3602.3496477711906 6822.416204849589,3610.1415879516985 6884.725917378787,3617.8665015570314 6941.969471813287,3625.550533120169 6994.44886418707,3633.2198271740876 7042.466090534137,3640.9005282517655 7086.323146888481,3648.6187808861823 7204.368745024224,3675.629175150343 7300.480602744304,3711.5091065236716 7304.541406006863,3739.7237740971495 7275.419673817539,3821.5611740897707 7227.525035312773,3951.9043640046402 7164.2729621745475,4120.5203428172335 7105.6158636921145,4270.545454646384 7067.103090024517,4359.408694828719 7045.048537636551,4395.250208671144 7024.551541067076,4406.2499404174705 6994.585567359552,4417.440843207503 6955.288980300936,4428.783515149637 6906.679864723877,4440.276383649726 6848.776305461012,4451.917876113629 6781.5963873449855,4463.706419947202 6705.158195208439,4475.640442556304 6619.479813884004,4487.718371346793 6524.579328204343,4499.938633724523 6420.474823002089,4512.299657095353 6307.184383109882,4524.799868865139 6184.7260933603675,4537.43769643974 6053.118038586171,4550.211567225013 5912.378303619963,4563.119908626813 5762.524973294373,4576.161148051 5603.576132442043,4589.333712903429 5435.549865895615,4602.636030589958 5258.464258487711,4616.066528516447 5072.337395051012,4629.623634088748 4885.838770330969,4642.718510665172 4731.345849478092,4653.893268412861 4598.340629908737,4664.157486157726 4498.007505754973,4672.541418743811 4441.530871148896,4678.07532101515 4431.434917204781,4688.7144101412705 4480.70364062072,4690.381424600733 4542.209601758262,4693.900391776478 4623.715192205055,4699.247402255593 4722.11605289909,4706.17776700989 4834.30782477838,4714.446797011177 4957.18614878093,4723.809803231265 5087.646665844748,4734.022096641962 5222.585016907855,4744.838988215081 5358.896842908226,4756.01578892243 5493.477784783883,4767.307809735818 5623.223483472833,4778.470361627058 5745.029579913082,4789.258755567957 5855.791715042646,4799.4283025303275 5952.405529799509,4808.734313485977 6113.161116912892,4825.321736381908 6284.3377528504125,4845.43550214624 6435.582345468069,4866.072057335719 6565.301834327904,4886.914972137327 6671.903158991915,4907.6478167380355 6753.793259022146,4927.954161324826 6809.379073980626,4947.517576084677 6837.067543429383,4966.021631204565 6835.263152654953,4988.33186496137 6807.261274976746,5065.857853443066 6760.075003434226,5193.113450469692 6694.171578781623,5367.50637714815 6628.565936734809,5536.533510971119 6584.743739575634,5625.487324391175 6542.605085476958,5665.187666876594 6482.05007261163,5686.454387895682 6426.269968698226,5701.6078020136165 6363.461976600255,5715.570068001633 6288.440310449117,5729.83476059067 6201.17460551959,5744.4018797807275 6101.634497086462,5759.2714255718065 5989.78962042452,5774.443397963906 5865.609610808537,5789.917796957029 5729.064103513327,5805.694622551172 5580.122733813665,5821.773874746336 5418.755136984337,5838.155553542521 5308.724414702798,5848.631924987205 5217.448790255714,5857.204755071048 5131.568154055258,5865.172318827832 5044.093851523041,5873.161803206902 4948.037228080682,5881.800395157597 4836.409629149805,5891.715281629261 4702.2224001520135,5903.533649571236 4530.0286077588435,5918.540855282497 4380.976209234787,5933.703868355283 4392.150855865535,5939.214043249062 4452.342683092383,5943.891449827222 4561.671745611977,5953.177003509525 4698.861212421222,5965.198155912863 4842.634252517059,5978.082358654125 4971.71403489642,5989.957063350204 5064.823728556234,5998.949721617993 5213.273398958828,6014.30270299829 5353.999251757487,6029.046884681891 5468.36314580635,6041.294377928126 5556.1002108914245,6051.045182736994 5616.945576798718,6058.299299108496 5701.5237236656885,6068.755800391879 5821.193661109521,6084.306338050361 5972.836512664948,6106.613205677771 6108.8082095985255,6131.851131105371 6222.262736738542,6158.434314208643 6306.354078913292,6184.776954863068 6354.236220951044,6209.293252944118 6358.01137993367,6235.449237936557 6334.693132476295,6312.130193610537 6282.4596864748355,6456.884192115937 6216.975478951561,6630.314613155092 6165.744814618545,6762.543069748636 6128.6816434750135,6854.906925439881 6111.927604335189,6890.8901990391605 6093.04758494732,6907.739409661243 6062.327893458284,6924.630515631859 6019.444473338473,6941.623313096348 5964.073268058269,6958.77759820006 5895.890221088056,6976.153167088339 5814.571275898221,6993.809815906531 5719.792375959135,7011.807340799984 5611.229464741205,7030.205537914039 5488.558485714808,7049.064203394044 5351.455382350325,7068.443133385345 5199.596098118143,7088.402124033288 5032.656576488627,7109.0009714832195 4850.3127609322,7130.299471880482 4652.240594919227,7152.357421370422 4467.169737351851,7172.382088795971 4362.708061111957,7185.853798240871 4377.288121804906,7191.957558830017 4486.295266220068,7205.849022378609 4654.824668748904,7225.282773322948 4843.226731041026,7247.335158729982 5014.3960543481335,7268.666444971208 5168.797981482721,7289.356612842523 5306.897855257347,7309.485643139835 5429.161018484547,7329.133516659049 5536.052813976856,7348.380214196069 5628.038584546819,7367.305716546802 5705.583673006953,7385.990004507148 5769.153422169804,7404.513058873014 5819.213174847908,7422.954860440305 5856.228273853801,7441.3953900049255 5898.014481485388,7480.265940408318 5859.7084125901365,7581.86029704355 5821.402343694885,7683.454653678783 5779.787264608726,7793.79202202102 5699.511136536272,8004.950635814229 5654.863411673126,8114.886095654218 5629.35435369114,8160.499757432093 5606.494226262144,8178.692977038998 5568.807950535469,8197.136570188175 5513.011845489824,8217.160151261543 5440.413211125963,8238.477532652589 5352.296517848168,8260.815764400402 5249.946236060696,8283.901896544077 5134.6468361678135,8307.462979122709 5007.682788573785,8331.226062175392 4870.338563682861,8354.918195741222 4723.898631899337,8378.266429859286 4569.647463627463,8400.99781456868 4415.501083431764,8422.918255592369 4330.664321000387,8436.844600362761 4405.037939305006,8455.33285423977 4589.781129547787,8484.69276497028 4764.5983849285285,8514.204847963849 4919.365484102806,8543.301085890344 5053.783191068424,8571.9027324334 5167.5522698232035,8599.931041276652 5260.373484364926,8627.30726610373 5331.947598691412,8653.952660598266 5381.975376800469,8679.788478443897 5410.157582689903,8704.735973324257 5414.684547234042,8734.47256218098 5389.274626028863,8821.360293294463 5332.76980491609,8977.922909797258 5252.370481782486,9190.554058217102 5202.038367174393,9319.247469390835 5171.502545742989,9387.807500068084 5150.492102139461,9420.03850699845 5123.387412708162,9443.022217369842 5068.021363260821,9473.264489248842 4987.910905629311,9506.141083034096 4884.555569716559,9541.181557971744 4759.45488542553,9577.915473307914 4614.108382659153,9615.872388288744 4466.869938081207,9650.68972525162 4356.269793708477,9677.183539754813 4299.123309631154,9699.452364576504 4404.594019588532,9725.234093677196 4569.685419445434,9768.860927250646 4713.876544868046,9814.545701278057 4824.183141044634,9859.056878004429 4900.252386676806,9902.288611040249 4941.731460466147,9944.135053995986 4948.62941472537,9978.013007074436 4928.214736834789,10038.855871239 4889.425462499062,10146.831528718247 4840.110682829981,10280.789861029863 4788.119488939322,10419.580749691573 4741.300971938867,10542.054076221088 4707.504222940399,10627.059722136124 4675.3614659792165,10685.361088050799 4615.208678517545,10743.817047896555 4512.251372781593,10811.273426494061 4383.562761082748,10882.489685932484 4340.899109618333,10961.817187745104 4406.7567327143515,11046.428019000085 4472.81360458848,11126.695257813519 4478.183079848607,11223.16316612656 4438.263936751378,11354.708862122838 4463.175778155652,11353.79395142275 4572.846598369065,11285.314278971735 4770.8256864744535,11159.280984897403 4868.26393603102,11098.546014171849 4874.341478317676,11100.5471040369 4837.2998788424065,11145.869840014531 4758.898727531776,11239.179799688434 4665.52413137641,11349.157139826646 4583.881301641869,11444.370063098908 4536.359802592852,11497.962494401841 4558.347807519636,11536.284301657104 4676.067176531625,11548.259118977152 4777.494341981723,11556.67709458217 4894.330357708479,11566.775206476343 4996.653607548892,11576.16385549512 5095.297467558818,11585.359245770625 5212.020173047911,11595.690867161737 5329.169284321722,11605.879557371754 5540.936308331704,11625.02659330234 5681.960874371577,11638.111509665976 5725.778323399675,11643.187616365616 5725.033222449329,11645.491080982247 5679.441757451492,11648.801373401388 5586.398782552684,11654.25435673321 5455.627730374999,11661.315776438038 5296.852033540533,11669.451377976196 5133.101589506504,11677.78549187217 4986.011251594556,11685.628914520441 4852.073069613469,11692.918998455709 4738.5325871838495,11699.279795659922 4652.635347926305,11704.335358115028 4601.626895461438,11707.709737802978 4515.013571719485,11721.276256447249 4573.508491859051,11812.748178544689 4632.003411998616,11904.220100642131 4705.143471066956,12017.99214067279 4777.452726747818,12131.588035897765 4818.356520237544,12196.97459967265 4824.047709704575,12211.884142223806 4784.85939311411,12183.136809469344 4661.57199047622,12078.356100491503 4498.19382999407,11938.050812459147 4408.2962593022885,11863.294948291852 4387.475141723567,11853.066718290214 4379.790239167099,11896.843857414597 4366.121632689492,12023.376656384176 4347.501214385846,12215.655986984764 4336.274011968276,12329.377245367741 4325.947749937332,12434.96183204291 4315.88529937767,12547.851348928514 4302.874709805831,12662.489961830193 4293.051384896877,12589.564015133556 4297.0,12548.0 "/></svg>